<?xml version="1.0" encoding="utf-8"?>
<!-- Generator: Adobe Illustrator 21.0.2, SVG Export Plug-In . SVG Version: 6.00 Build 0)  -->
<svg version="1.1" id="Calque_1" xmlns="http://www.w3.org/2000/svg" fill="#fbb52d" xmlns:xlink="http://www.w3.org/1999/xlink" x="0px" y="0px"
	viewBox="0 0 358.4 296" style="enable-background:new 0 0 358.4 296;" xml:space="preserve">
<path d="M358.4,168c0-45.9-37.3-83.2-83.2-83.2c-16.3,0-32.2,4.8-45.7,13.7c-3.5-15.3-8.2-30.1-13.8-43.4C200.6,19.6,180.8,0,160,0
	c-20.9,0-40.6,19.5-55.7,54.9c-5.3,12.5-9.8,26.4-13.2,40.8L70.2,19.1c-0.8-2.8-3.3-4.7-6.2-4.7c-2.9,0-5.4,1.9-6.2,4.7L0.2,230.3
	c-0.5,1.9-0.1,4,1.1,5.6c1.2,1.6,3.1,2.5,5.1,2.5h51.2v51.2c0,3.5,2.9,6.4,6.4,6.4c3.5,0,6.4-2.9,6.4-6.4v-51.2h51.2
	c2,0,3.9-0.9,5.1-2.5c1-1.3,1.4-2.9,1.3-4.5c7.9,3.6,16.6,6,25.6,6.7v51.5c0,3.5,2.9,6.4,6.4,6.4s6.4-2.9,6.4-6.4v-51.5
	c16.6-1.4,31.8-8.1,43.7-18.3c14.4,18.1,35.7,29.4,58.7,31.1v38.7c0,3.5,2.9,6.4,6.4,6.4c3.5,0,6.4-2.9,6.4-6.4V251
	C324.5,247.7,358.4,211.7,358.4,168L358.4,168z M113.2,225.6H70.4v-10.1l11.3-11.3c2.5-2.5,2.5-6.6,0-9.1s-6.6-2.5-9.1,0l-2.3,2.3
	v-42.1c0-3.5-2.9-6.4-6.4-6.4c-3.5,0-6.4,2.9-6.4,6.4v29.3l-8.3-8.3c-2.5-2.5-6.6-2.5-9.1,0c-2.5,2.5-2.5,6.6,0,9.1l17.3,17.3v22.9
	H14.8L64,45.1l21.7,79.5c-1.7,12.4-2.6,24.9-2.6,36.9c0,24.3,11.4,46,29,60.1L113.2,225.6z M166.4,215.5l23.7-23.7
	c2.5-2.5,2.5-6.6,0-9.1c-2.5-2.5-6.6-2.5-9.1,0l-14.7,14.7v-26.7l17.3-17.3c2.5-2.5,2.5-6.6,0-9.1c-2.5-2.5-6.6-2.5-9.1,0l-8.3,8.3
	V136c0-3.5-2.9-6.4-6.4-6.4s-6.4,2.9-6.4,6.4v48.5l-14.7-14.7c-2.5-2.5-6.6-2.5-9.1,0c-2.5,2.5-2.5,6.6,0,9.1l23.7,23.7v22.6
	c-32.4-3.2-57.7-30.6-57.7-63.8c0-34,7.5-72,20.1-101.6c12.8-29.9,28.8-47.1,44-47.1c15.1,0,31.2,17.3,44,47.3
	c12.6,29.6,20.1,67.5,20.1,101.4c0,33.2-25.4,60.6-57.7,63.8V215.5z M281.6,238.1v-9.9l23.7-23.7c2.5-2.5,2.5-6.6,0-9.1
	c-2.5-2.5-6.6-2.5-9.1,0l-14.7,14.7V168c0-3.5-2.9-6.4-6.4-6.4c-3.5,0-6.4,2.9-6.4,6.4v29.3l-14.7-14.7c-2.5-2.5-6.6-2.5-9.1,0
	c-2.5,2.5-2.5,6.6,0,9.1l23.7,23.7v22.7c-19.6-1.8-37.7-11.7-49.7-27.5c11.1-13.3,17.8-30.4,17.8-49.1c0-16-1.6-32.8-4.6-49.3
	c12.2-9.4,27.4-14.6,42.9-14.6c38.8,0,70.4,31.6,70.4,70.4C345.6,204.7,317.4,234.9,281.6,238.1L281.6,238.1z M281.6,238.1"/>
</svg>