<?xml version="1.0" encoding="utf-8"?>
<!-- Generator: Adobe Illustrator 21.0.2, SVG Export Plug-In . SVG Version: 6.00 Build 0)  -->
<svg version="1.1" id="Calque_1" xmlns="http://www.w3.org/2000/svg" fill="#fbb52d"  xmlns:xlink="http://www.w3.org/1999/xlink" x="0px" y="0px"
	 viewBox="0 0 349.9 289" style="enable-background:new 0 0 349.9 289;" xml:space="preserve">
<style type="text/css">
	.st0{fill:none;}
</style>
<path d="M222.5,241.3c-3.2-0.7-6.4,1.3-7.2,4.5l-6.9,30.2H13.5l18.4-79.7h148.4c3.3,0,6-2.7,6-6c0-3.3-2.7-6-6-6H31.9l-18.4-79.7
	h194.8l8.8,38.4c0.7,3.2,4,5.2,7.2,4.5c3.2-0.7,5.2-4,4.5-7.2l-9.6-41.7l20.8-90.4c0.4-1.8,0-3.7-1.2-5.1c-1.1-1.4-2.9-2.3-4.7-2.3
	H27.1c-2.8,0-5.2,1.9-5.8,4.7L0.2,97.2c-0.2,0.9-0.2,1.8,0,2.7L21,190.3L0.2,280.7c-0.4,1.8,0,3.7,1.2,5.1c1.1,1.4,2.9,2.3,4.7,2.3
	h207.1c2.8,0,5.2-1.9,5.8-4.7l8-34.8C227.7,245.3,225.7,242.1,222.5,241.3L222.5,241.3z M31.9,12.8h194.8l-18.4,79.7H13.5L31.9,12.8
	z M31.9,12.8"/>
<rect x="0" class="st0" width="349.9" height="289"/>
<path d="M50.4,44.3h103.2c3.3,0,6-2.7,6-6c0-3.3-2.7-6-6-6H50.4c-3.3,0-6,2.7-6,6C44.4,41.6,47.1,44.3,50.4,44.3L50.4,44.3z
	 M50.4,44.3"/>
<path d="M39.6,73.1h103.2c3.3,0,6-2.7,6-6c0-3.3-2.7-6-6-6H39.6c-3.3,0-6,2.7-6,6C33.6,70.4,36.3,73.1,39.6,73.1L39.6,73.1z
	 M39.6,73.1"/>
<path d="M159.6,221.7c0-3.3-2.7-6-6-6H50.4c-3.3,0-6,2.7-6,6c0,3.3,2.7,6,6,6h103.2C156.9,227.7,159.6,225,159.6,221.7L159.6,221.7z
	 M159.6,221.7"/>
<path d="M39.6,244.5c-3.3,0-6,2.7-6,6c0,3.3,2.7,6,6,6h103.2c3.3,0,6-2.7,6-6c0-3.3-2.7-6-6-6H39.6z M39.6,244.5"/>
<path d="M148.8,130c0-3.3-2.7-6-6-6H39.6c-3.3,0-6,2.7-6,6c0,3.3,2.7,6,6,6h103.2C146.1,136,148.8,133.3,148.8,130L148.8,130z
	 M148.8,130"/>
<path d="M50.4,164.8h103.2c3.3,0,6-2.7,6-6c0-3.3-2.7-6-6-6H50.4c-3.3,0-6,2.7-6,6C44.4,162.1,47.1,164.8,50.4,164.8L50.4,164.8z
	 M50.4,164.8"/>
<path d="M172.9,50c0.4,2.1,1.9,3.8,4,4.5c0.6,0.2,1.3,0.3,1.9,0.3c1.4,0,2.9-0.5,4-1.5l20.4-18c2.5-2.2,2.7-6,0.5-8.5
	c-2.2-2.5-6-2.7-8.5-0.5l-12.6,11.1l-0.4-1.8c-0.6-3.3-3.8-5.4-7.1-4.7c-3.2,0.6-5.4,3.8-4.7,7.1L172.9,50z M172.9,50"/>
<path d="M179.1,147.9c0.3,0,0.6,0,0.9-0.1c2.1-0.3,3.9-1.7,4.7-3.7l9.9-25.3c1.2-3.1-0.3-6.6-3.4-7.8c-3.1-1.2-6.6,0.3-7.8,3.4
	l-6.1,15.6l-1.1-1.4c-2.1-2.6-5.8-3-8.4-1c-2.6,2.1-3,5.8-1,8.4l7.6,9.6C175.5,147.1,177.3,147.9,179.1,147.9L179.1,147.9z
	 M179.1,147.9"/>
<path d="M179.8,176.6c1.1,1.4,2.9,2.3,4.7,2.3c0.3,0,0.6,0,0.9-0.1c2.1-0.3,3.9-1.7,4.7-3.7l9.9-25.3c1.2-3.1-0.3-6.6-3.4-7.8
	c-3.1-1.2-6.6,0.3-7.8,3.4l-6.1,15.6l-1.1-1.4c-2.1-2.6-5.8-3-8.4-1c-2.6,2.1-3,5.8-1,8.4L179.8,176.6z M179.8,176.6"/>
<path d="M347.8,112.7L317.2,80c-1.1-1.2-2.6-1.8-4.2-1.9c-1.6,0-3.1,0.5-4.3,1.6L194.1,187.3c-0.7,0.7-1.3,1.6-1.6,2.5L178,234.1
	c-0.7,2.1-0.2,4.4,1.3,6c1.2,1.2,2.7,1.9,4.4,1.9c0.5,0,1-0.1,1.5-0.2l45.1-11.6c1-0.3,1.9-0.7,2.6-1.4l114.6-107.5
	C349.9,118.9,350,115.1,347.8,112.7L347.8,112.7z M192.8,227.4l7.9-24.2l16.7,17.8L192.8,227.4z M229,215.8L206.6,192l105.9-99.3
	l22.4,23.9L229,215.8z M229,215.8"/>
<rect x="0" class="st0" width="349.9" height="289"/>
</svg>
