<?xml version="1.0" encoding="utf-8"?>
<!-- Generator: Adobe Illustrator 21.0.2, SVG Export Plug-In . SVG Version: 6.00 Build 0)  -->
<svg version="1.1" id="Calque_1" xmlns="http://www.w3.org/2000/svg"  fill="#fbb52d"  xmlns:xlink="http://www.w3.org/1999/xlink" x="0px" y="0px"
	 viewBox="0 0 384 295.4" style="enable-background:new 0 0 384 295.4;" xml:space="preserve">
<style type="text/css">
	.st0{fill=#3a4807;}
</style>
<path class="st0" d="M377.6,281.6V128c2.1,0,4-1,5.2-2.7c1.2-1.7,1.5-3.8,0.9-5.8L364.5,62c-0.9-2.6-3.3-4.4-6.1-4.4h-83.2v-20h0
	c2.8,0,5.3-1.8,6.1-4.6c1-3.4-0.9-6.9-4.3-8L193.8,0.3c-1.2-0.4-2.5-0.4-3.7,0L107,25.1c-3.4,1-5.3,4.6-4.3,8
	c0.8,2.8,3.4,4.6,6.1,4.6v20H25.6c-2.8,0-5.2,1.8-6.1,4.4L0.3,119.6c-0.6,2-0.3,4.1,0.9,5.8c1.2,1.7,3.1,2.7,5.2,2.7v153.6
	c-3.5,0-6.4,2.9-6.4,6.4c0,3.5,2.9,6.4,6.4,6.4h371.2c3.5,0,6.4-2.9,6.4-6.4C384,284.5,381.1,281.6,377.6,281.6L377.6,281.6z
	 M364.8,281.6h-89.6V128h89.6V281.6z M121.6,243.2h25.6v38.4h-25.6V243.2z M160,243.2h64v38.4h-64V243.2z M236.8,243.2h25.6v38.4
	h-25.6V243.2z M353.8,70.4l14.9,44.8h-93.5V70.4H353.8z M192,13.1l70.4,21v196.3H121.6V34.1L192,13.1z M30.2,70.4h78.6v44.8H15.3
	L30.2,70.4z M19.2,128h89.6v153.6H19.2V128z M19.2,128"/>
<path class="st0" d="M89.6,83.2c-3.5,0-6.4,2.9-6.4,6.4v12.8c0,3.5,2.9,6.4,6.4,6.4c3.5,0,6.4-2.9,6.4-6.4V89.6
	C96,86.1,93.1,83.2,89.6,83.2L89.6,83.2z M89.6,83.2"/>
<path class="st0" d="M64,83.2c-3.5,0-6.4,2.9-6.4,6.4v12.8c0,3.5,2.9,6.4,6.4,6.4c3.5,0,6.4-2.9,6.4-6.4V89.6
	C70.4,86.1,67.5,83.2,64,83.2L64,83.2z M64,83.2"/>
<path class="st0" d="M38.4,83.2c-3.5,0-6.4,2.9-6.4,6.4v12.8c0,3.5,2.9,6.4,6.4,6.4c3.5,0,6.4-2.9,6.4-6.4V89.6
	C44.8,86.1,41.9,83.2,38.4,83.2L38.4,83.2z M38.4,83.2"/>
<path class="st0" d="M345.6,108.8c3.5,0,6.4-2.9,6.4-6.4V89.6c0-3.5-2.9-6.4-6.4-6.4c-3.5,0-6.4,2.9-6.4,6.4v12.8
	C339.2,105.9,342.1,108.8,345.6,108.8L345.6,108.8z M345.6,108.8"/>
<path class="st0" d="M320,108.8c3.5,0,6.4-2.9,6.4-6.4V89.6c0-3.5-2.9-6.4-6.4-6.4c-3.5,0-6.4,2.9-6.4,6.4v12.8
	C313.6,105.9,316.5,108.8,320,108.8L320,108.8z M320,108.8"/>
<path class="st0" d="M294.4,108.8c3.5,0,6.4-2.9,6.4-6.4V89.6c0-3.5-2.9-6.4-6.4-6.4c-3.5,0-6.4,2.9-6.4,6.4v12.8
	C288,105.9,290.9,108.8,294.4,108.8L294.4,108.8z M294.4,108.8"/>
<path class="st0" d="M89.6,140.8c-3.5,0-6.4,2.9-6.4,6.4v19.2c0,3.5,2.9,6.4,6.4,6.4c3.5,0,6.4-2.9,6.4-6.4v-19.2
	C96,143.7,93.1,140.8,89.6,140.8L89.6,140.8z M89.6,140.8"/>
<path class="st0" d="M64,140.8c-3.5,0-6.4,2.9-6.4,6.4v19.2c0,3.5,2.9,6.4,6.4,6.4c3.5,0,6.4-2.9,6.4-6.4v-19.2
	C70.4,143.7,67.5,140.8,64,140.8L64,140.8z M64,140.8"/>
<path class="st0" d="M38.4,140.8c-3.5,0-6.4,2.9-6.4,6.4v19.2c0,3.5,2.9,6.4,6.4,6.4c3.5,0,6.4-2.9,6.4-6.4v-19.2
	C44.8,143.7,41.9,140.8,38.4,140.8L38.4,140.8z M38.4,140.8"/>
<path class="st0" d="M89.6,185.6c-3.5,0-6.4,2.9-6.4,6.4v19.2c0,3.5,2.9,6.4,6.4,6.4c3.5,0,6.4-2.9,6.4-6.4V192
	C96,188.5,93.1,185.6,89.6,185.6L89.6,185.6z M89.6,185.6"/>
<path class="st0" d="M64,185.6c-3.5,0-6.4,2.9-6.4,6.4v19.2c0,3.5,2.9,6.4,6.4,6.4c3.5,0,6.4-2.9,6.4-6.4V192
	C70.4,188.5,67.5,185.6,64,185.6L64,185.6z M64,185.6"/>
<path class="st0" d="M38.4,185.6c-3.5,0-6.4,2.9-6.4,6.4v19.2c0,3.5,2.9,6.4,6.4,6.4c3.5,0,6.4-2.9,6.4-6.4V192
	C44.8,188.5,41.9,185.6,38.4,185.6L38.4,185.6z M38.4,185.6"/>
<path class="st0" d="M89.6,230.4c-3.5,0-6.4,2.9-6.4,6.4V256c0,3.5,2.9,6.4,6.4,6.4c3.5,0,6.4-2.9,6.4-6.4v-19.2
	C96,233.3,93.1,230.4,89.6,230.4L89.6,230.4z M89.6,230.4"/>
<path class="st0" d="M64,230.4c-3.5,0-6.4,2.9-6.4,6.4V256c0,3.5,2.9,6.4,6.4,6.4c3.5,0,6.4-2.9,6.4-6.4v-19.2
	C70.4,233.3,67.5,230.4,64,230.4L64,230.4z M64,230.4"/>
<path class="st0" d="M38.4,230.4c-3.5,0-6.4,2.9-6.4,6.4V256c0,3.5,2.9,6.4,6.4,6.4c3.5,0,6.4-2.9,6.4-6.4v-19.2
	C44.8,233.3,41.9,230.4,38.4,230.4L38.4,230.4z M38.4,230.4"/>
<path class="st0" d="M345.6,172.8c3.5,0,6.4-2.9,6.4-6.4v-19.2c0-3.5-2.9-6.4-6.4-6.4c-3.5,0-6.4,2.9-6.4,6.4v19.2
	C339.2,169.9,342.1,172.8,345.6,172.8L345.6,172.8z M345.6,172.8"/>
<path class="st0" d="M320,172.8c3.5,0,6.4-2.9,6.4-6.4v-19.2c0-3.5-2.9-6.4-6.4-6.4c-3.5,0-6.4,2.9-6.4,6.4v19.2
	C313.6,169.9,316.5,172.8,320,172.8L320,172.8z M320,172.8"/>
<path class="st0" d="M294.4,172.8c3.5,0,6.4-2.9,6.4-6.4v-19.2c0-3.5-2.9-6.4-6.4-6.4c-3.5,0-6.4,2.9-6.4,6.4v19.2
	C288,169.9,290.9,172.8,294.4,172.8L294.4,172.8z M294.4,172.8"/>
<path class="st0" d="M345.6,217.6c3.5,0,6.4-2.9,6.4-6.4V192c0-3.5-2.9-6.4-6.4-6.4c-3.5,0-6.4,2.9-6.4,6.4v19.2
	C339.2,214.7,342.1,217.6,345.6,217.6L345.6,217.6z M345.6,217.6"/>
<path class="st0" d="M320,217.6c3.5,0,6.4-2.9,6.4-6.4V192c0-3.5-2.9-6.4-6.4-6.4c-3.5,0-6.4,2.9-6.4,6.4v19.2
	C313.6,214.7,316.5,217.6,320,217.6L320,217.6z M320,217.6"/>
<path class="st0" d="M294.4,217.6c3.5,0,6.4-2.9,6.4-6.4V192c0-3.5-2.9-6.4-6.4-6.4c-3.5,0-6.4,2.9-6.4,6.4v19.2
	C288,214.7,290.9,217.6,294.4,217.6L294.4,217.6z M294.4,217.6"/>
<path class="st0" d="M345.6,262.4c3.5,0,6.4-2.9,6.4-6.4v-19.2c0-3.5-2.9-6.4-6.4-6.4c-3.5,0-6.4,2.9-6.4,6.4V256
	C339.2,259.5,342.1,262.4,345.6,262.4L345.6,262.4z M345.6,262.4"/>
<path class="st0" d="M320,262.4c3.5,0,6.4-2.9,6.4-6.4v-19.2c0-3.5-2.9-6.4-6.4-6.4c-3.5,0-6.4,2.9-6.4,6.4V256
	C313.6,259.5,316.5,262.4,320,262.4L320,262.4z M320,262.4"/>
<path class="st0" d="M294.4,262.4c3.5,0,6.4-2.9,6.4-6.4v-19.2c0-3.5-2.9-6.4-6.4-6.4c-3.5,0-6.4,2.9-6.4,6.4V256
	C288,259.5,290.9,262.4,294.4,262.4L294.4,262.4z M294.4,262.4"/>
<path class="st0" d="M217.6,172.8c3.5,0,6.4-2.9,6.4-6.4v-19.2c0-3.5-2.9-6.4-6.4-6.4c-3.5,0-6.4,2.9-6.4,6.4v19.2
	C211.2,169.9,214.1,172.8,217.6,172.8L217.6,172.8z M217.6,172.8"/>
<path class="st0" d="M192,172.8c3.5,0,6.4-2.9,6.4-6.4v-19.2c0-3.5-2.9-6.4-6.4-6.4c-3.5,0-6.4,2.9-6.4,6.4v19.2
	C185.6,169.9,188.5,172.8,192,172.8L192,172.8z M192,172.8"/>
<path class="st0" d="M166.4,172.8c3.5,0,6.4-2.9,6.4-6.4v-19.2c0-3.5-2.9-6.4-6.4-6.4c-3.5,0-6.4,2.9-6.4,6.4v19.2
	C160,169.9,162.9,172.8,166.4,172.8L166.4,172.8z M166.4,172.8"/>
<path class="st0" d="M217.6,217.6c3.5,0,6.4-2.9,6.4-6.4V192c0-3.5-2.9-6.4-6.4-6.4c-3.5,0-6.4,2.9-6.4,6.4v19.2
	C211.2,214.7,214.1,217.6,217.6,217.6L217.6,217.6z M217.6,217.6"/>
<path class="st0" d="M192,217.6c3.5,0,6.4-2.9,6.4-6.4V192c0-3.5-2.9-6.4-6.4-6.4c-3.5,0-6.4,2.9-6.4,6.4v19.2
	C185.6,214.7,188.5,217.6,192,217.6L192,217.6z M192,217.6"/>
<path class="st0" d="M166.4,217.6c3.5,0,6.4-2.9,6.4-6.4V192c0-3.5-2.9-6.4-6.4-6.4c-3.5,0-6.4,2.9-6.4,6.4v19.2
	C160,214.7,162.9,217.6,166.4,217.6L166.4,217.6z M166.4,217.6"/>
<path class="st0" d="M140.8,172.8c3.5,0,6.4-2.9,6.4-6.4v-19.2c0-3.5-2.9-6.4-6.4-6.4c-3.5,0-6.4,2.9-6.4,6.4v19.2
	C134.4,169.9,137.3,172.8,140.8,172.8L140.8,172.8z M140.8,172.8"/>
<path class="st0" d="M140.8,217.6c3.5,0,6.4-2.9,6.4-6.4V192c0-3.5-2.9-6.4-6.4-6.4c-3.5,0-6.4,2.9-6.4,6.4v19.2
	C134.4,214.7,137.3,217.6,140.8,217.6L140.8,217.6z M140.8,217.6"/>
<path class="st0" d="M243.2,172.8c3.5,0,6.4-2.9,6.4-6.4v-19.2c0-3.5-2.9-6.4-6.4-6.4c-3.5,0-6.4,2.9-6.4,6.4v19.2
	C236.8,169.9,239.7,172.8,243.2,172.8L243.2,172.8z M243.2,172.8"/>
<path class="st0" d="M217.6,128c3.5,0,6.4-2.9,6.4-6.4v-19.2c0-3.5-2.9-6.4-6.4-6.4c-3.5,0-6.4,2.9-6.4,6.4v19.2
	C211.2,125.1,214.1,128,217.6,128L217.6,128z M217.6,128"/>
<path class="st0" d="M192,128c3.5,0,6.4-2.9,6.4-6.4v-19.2c0-3.5-2.9-6.4-6.4-6.4c-3.5,0-6.4,2.9-6.4,6.4v19.2
	C185.6,125.1,188.5,128,192,128L192,128z M192,128"/>
<path class="st0" d="M166.4,128c3.5,0,6.4-2.9,6.4-6.4v-19.2c0-3.5-2.9-6.4-6.4-6.4c-3.5,0-6.4,2.9-6.4,6.4v19.2
	C160,125.1,162.9,128,166.4,128L166.4,128z M166.4,128"/>
<path class="st0" d="M140.8,128c3.5,0,6.4-2.9,6.4-6.4v-19.2c0-3.5-2.9-6.4-6.4-6.4c-3.5,0-6.4,2.9-6.4,6.4v19.2
	C134.4,125.1,137.3,128,140.8,128L140.8,128z M140.8,128"/>
<path class="st0" d="M243.2,128c3.5,0,6.4-2.9,6.4-6.4v-19.2c0-3.5-2.9-6.4-6.4-6.4c-3.5,0-6.4,2.9-6.4,6.4v19.2
	C236.8,125.1,239.7,128,243.2,128L243.2,128z M243.2,128"/>
<path class="st0" d="M217.6,83.2c3.5,0,6.4-2.9,6.4-6.4V57.6c0-3.5-2.9-6.4-6.4-6.4c-3.5,0-6.4,2.9-6.4,6.4v19.2
	C211.2,80.3,214.1,83.2,217.6,83.2L217.6,83.2z M217.6,83.2"/>
<path class="st0" d="M192,83.2c3.5,0,6.4-2.9,6.4-6.4V57.6c0-3.5-2.9-6.4-6.4-6.4c-3.5,0-6.4,2.9-6.4,6.4v19.2
	C185.6,80.3,188.5,83.2,192,83.2L192,83.2z M192,83.2"/>
<path class="st0" d="M166.4,83.2c3.5,0,6.4-2.9,6.4-6.4V57.6c0-3.5-2.9-6.4-6.4-6.4c-3.5,0-6.4,2.9-6.4,6.4v19.2
	C160,80.3,162.9,83.2,166.4,83.2L166.4,83.2z M166.4,83.2"/>
<path class="st0" d="M140.8,83.2c3.5,0,6.4-2.9,6.4-6.4V57.6c0-3.5-2.9-6.4-6.4-6.4c-3.5,0-6.4,2.9-6.4,6.4v19.2
	C134.4,80.3,137.3,83.2,140.8,83.2L140.8,83.2z M140.8,83.2"/>
<path class="st0" d="M243.2,83.2c3.5,0,6.4-2.9,6.4-6.4V57.6c0-3.5-2.9-6.4-6.4-6.4c-3.5,0-6.4,2.9-6.4,6.4v19.2
	C236.8,80.3,239.7,83.2,243.2,83.2L243.2,83.2z M243.2,83.2"/>
<path class="st0" d="M243.2,217.6c3.5,0,6.4-2.9,6.4-6.4V192c0-3.5-2.9-6.4-6.4-6.4c-3.5,0-6.4,2.9-6.4,6.4v19.2
	C236.8,214.7,239.7,217.6,243.2,217.6L243.2,217.6z M243.2,217.6"/>
</svg>
