<?xml version="1.0" encoding="utf-8"?>
<!-- Generator: Adobe Illustrator 21.0.2, SVG Export Plug-In . SVG Version: 6.00 Build 0)  -->
<svg version="1.1" id="Calque_1" xmlns="http://www.w3.org/2000/svg"  fill="#fbb52d" xmlns:xlink="http://www.w3.org/1999/xlink" x="0px" y="0px"
	 viewBox="0 0 371.2 313.6" style="enable-background:new 0 0 371.2 313.6;" xml:space="preserve">
<path d="M364.8,236.8c-12.9,0-19.6,3.8-25.6,7.2c-5.2,3-9.7,5.6-19.2,5.6c-9.5,0-14-2.6-19.2-5.6c-5.9-3.4-12.7-7.2-25.6-7.2
	c-12.9,0-19.6,3.8-25.6,7.2c-5.2,3-9.7,5.6-19.2,5.6s-14-2.6-19.2-5.6c-5.9-3.4-12.7-7.2-25.6-7.2c-12.9,0-19.6,3.8-25.6,7.2
	c-5.2,3-9.7,5.6-19.2,5.6c-9.5,0-14-2.6-19.2-5.6c-5.9-3.4-12.7-7.2-25.6-7.2c-2.4,0-4.6,0.1-6.6,0.4V205h57.8v19.5
	c0,3.5,2.9,6.4,6.4,6.4c3.5,0,6.4-2.9,6.4-6.4V77c0-22.4,11.5-42.1,28.9-53.6c18.1,11.9,28.8,31.8,28.8,53.6c0,3.5,2.9,6.4,6.4,6.4
	c3.5,0,6.4-2.9,6.4-6.4c0-23.7-10.6-45.6-28.9-60.1c7-2.6,14.6-4.1,22.5-4.1c35.4,0,64.2,28.8,64.2,64.2c0,3.5,2.9,6.4,6.4,6.4
	c3.5,0,6.4-2.9,6.4-6.4c0-42.4-34.5-77-77-77c-42.4,0-77,34.5-77,77v12.3H89.4V77c0-35.4,28.8-64.2,64.2-64.2c1.5,0,3,0.1,4.4,0.2
	c3.5,0.2,6.6-2.4,6.8-6c0.2-3.5-2.4-6.6-5.9-6.8c-1.8-0.1-3.6-0.2-5.3-0.2c-42.4,0-77,34.5-77,77v163.8c-2.2,1-4.2,2.2-6.1,3.3
	c-5.2,3-9.7,5.6-19.2,5.6c-9.5,0-14-2.6-19.2-5.6c-5.9-3.4-12.7-7.2-25.6-7.2c-3.5,0-6.4,2.9-6.4,6.4c0,3.5,2.9,6.4,6.4,6.4
	c9.5,0,14,2.6,19.2,5.6c5.9,3.4,12.7,7.2,25.6,7.2c12.9,0,19.6-3.8,25.6-7.2c5.2-3,9.7-5.6,19.2-5.6c9.5,0,14,2.6,19.2,5.6
	c5.9,3.4,12.7,7.2,25.6,7.2s19.6-3.8,25.6-7.2c5.2-3,9.7-5.6,19.2-5.6c9.5,0,14,2.6,19.2,5.6c5.9,3.4,12.7,7.2,25.6,7.2
	c12.9,0,19.6-3.8,25.6-7.2c5.2-3,9.7-5.6,19.2-5.6c9.5,0,14,2.6,19.2,5.6c5.9,3.4,12.7,7.2,25.6,7.2c12.9,0,19.6-3.8,25.6-7.2
	c5.2-3,9.7-5.6,19.2-5.6c3.5,0,6.4-2.9,6.4-6.4C371.2,239.7,368.3,236.8,364.8,236.8L364.8,236.8z M89.4,192.2v-38.6h57.8v38.6H89.4
	z M147.1,102.1v38.6H89.4v-38.6H147.1z M147.1,102.1"/>
<path d="M320,275.2c-9.5,0-14-2.6-19.2-5.6c-5.9-3.4-12.7-7.2-25.6-7.2c-12.9,0-19.6,3.9-25.6,7.2c-5.2,3-9.7,5.6-19.2,5.6
	s-14-2.6-19.2-5.6c-5.9-3.4-12.7-7.2-25.6-7.2c-12.9,0-19.6,3.9-25.6,7.2c-5.2,3-9.7,5.6-19.2,5.6c-9.5,0-14-2.6-19.2-5.6
	c-5.9-3.4-12.7-7.2-25.6-7.2c-12.9,0-19.6,3.9-25.6,7.2c-5.2,3-9.7,5.6-19.2,5.6c-3.5,0-6.4,2.9-6.4,6.4c0,3.5,2.9,6.4,6.4,6.4
	c12.9,0,19.6-3.8,25.6-7.2c5.2-3,9.7-5.6,19.2-5.6c9.5,0,14,2.6,19.2,5.6c5.9,3.4,12.7,7.2,25.6,7.2s19.6-3.8,25.6-7.2
	c5.2-3,9.7-5.6,19.2-5.6c9.5,0,14,2.6,19.2,5.6c5.9,3.4,12.7,7.2,25.6,7.2c12.9,0,19.6-3.8,25.6-7.2c5.2-3,9.7-5.6,19.2-5.6
	c9.5,0,14,2.6,19.2,5.6c5.9,3.4,12.7,7.2,25.6,7.2c3.5,0,6.4-2.9,6.4-6.4C326.4,278.1,323.5,275.2,320,275.2L320,275.2z M320,275.2"
	/>
<path d="M275.2,288c-12.9,0-19.6,3.8-25.6,7.2c-5.2,3-9.7,5.6-19.2,5.6s-14-2.6-19.2-5.6c-5.9-3.4-12.7-7.2-25.6-7.2
	c-12.9,0-19.6,3.8-25.6,7.2c-5.2,3-9.7,5.6-19.2,5.6c-9.5,0-14-2.6-19.2-5.6c-5.9-3.4-12.7-7.2-25.6-7.2c-3.5,0-6.4,2.9-6.4,6.4
	c0,3.5,2.9,6.4,6.4,6.4c9.5,0,14,2.6,19.2,5.6c5.9,3.4,12.7,7.2,25.6,7.2s19.6-3.9,25.6-7.2c5.2-3,9.7-5.6,19.2-5.6
	c9.5,0,14,2.6,19.2,5.6c5.9,3.4,12.7,7.2,25.6,7.2c12.9,0,19.6-3.9,25.6-7.2c5.2-3,9.7-5.6,19.2-5.6c3.5,0,6.4-2.9,6.4-6.4
	C281.6,290.9,278.7,288,275.2,288L275.2,288z M275.2,288"/>
</svg>
