<?xml version="1.0" encoding="utf-8"?>
<!-- Generator: Adobe Illustrator 21.0.2, SVG Export Plug-In . SVG Version: 6.00 Build 0)  -->
<svg version="1.1" id="Calque_1" xmlns="http://www.w3.org/2000/svg"  fill="#fbb52d" xmlns:xlink="http://www.w3.org/1999/xlink" x="0px" y="0px"
	 viewBox="0 0 294 360" style="enable-background:new 0 0 294 360;" xml:space="preserve">
<path d="M262.4,1H32C14.4,1,0,15.4,0,33v294.4c0,17.6,14.4,32,32,32h230.4c17.6,0,32-14.4,32-32V33C294.4,15.4,280,1,262.4,1
	L262.4,1z M281.6,327.4c0,10.6-8.6,19.2-19.2,19.2H32c-10.6,0-19.2-8.6-19.2-19.2V33c0-10.6,8.6-19.2,19.2-19.2h230.4
	c10.6,0,19.2,8.6,19.2,19.2V327.4z M281.6,327.4"/>
<path d="M147.2,52.2c-49.4,0-89.6,40.2-89.6,89.6s40.2,89.6,89.6,89.6s89.6-40.2,89.6-89.6S196.6,52.2,147.2,52.2L147.2,52.2z
	 M217,173.8h-21.9c1.7-8,2.8-16.6,3.1-25.6h25.5C223,157.3,220.6,165.9,217,173.8L217,173.8z M77.4,109.8h21.9
	c-1.7,8-2.8,16.6-3.1,25.6H70.7C71.4,126.3,73.8,117.7,77.4,109.8L77.4,109.8z M121.6,97h-5.4c5.8-15.9,14.6-27.4,24.6-30.9v69.3
	h-31.9c0.4-9,1.6-17.7,3.5-25.6h9.2c3.5,0,6.4-2.9,6.4-6.4C128,99.9,125.1,97,121.6,97L121.6,97z M178.2,97h-24.6V66.1
	C163.5,69.6,172.3,81.1,178.2,97L178.2,97z M70.7,148.2h25.5c0.3,9,1.4,17.6,3.1,25.6H77.4C73.8,165.9,71.4,157.3,70.7,148.2
	L70.7,148.2z M108.9,148.2h31.9v25.6h-28.4C110.5,165.9,109.3,157.2,108.9,148.2L108.9,148.2z M140.8,186.6v30.9
	c-9.9-3.5-18.7-15-24.6-30.9H140.8z M153.6,217.5v-30.9h24.6C172.3,202.5,163.5,214,153.6,217.5L153.6,217.5z M153.6,173.8v-64H182
	c1.9,7.9,3.1,16.6,3.5,25.6h-12.7c-3.5,0-6.4,2.9-6.4,6.4s2.9,6.4,6.4,6.4h12.7c-0.4,9-1.6,17.7-3.5,25.6H153.6z M198.3,135.4
	c-0.3-9-1.4-17.6-3.1-25.6H217c3.6,7.9,6,16.5,6.7,25.6H198.3z M209.5,97h-17.8c-3.1-9.5-7.1-17.8-11.9-24.7
	C191.7,77.9,201.9,86.5,209.5,97L209.5,97z M114.5,72.3c-4.8,6.8-8.8,15.2-11.9,24.7H84.9C92.5,86.5,102.7,77.9,114.5,72.3
	L114.5,72.3z M84.9,186.6h17.8c3.1,9.5,7.1,17.8,11.9,24.7C102.7,205.7,92.5,197.1,84.9,186.6L84.9,186.6z M179.9,211.3
	c4.8-6.8,8.8-15.2,11.9-24.7h17.8C201.9,197.1,191.7,205.7,179.9,211.3L179.9,211.3z M179.9,211.3"/>
<path d="M228.8,263.4H64c-3.5,0-6.4,2.9-6.4,6.4c0,3.5,2.9,6.4,6.4,6.4h164.8c3.5,0,6.4-2.9,6.4-6.4
	C235.2,266.3,232.3,263.4,228.8,263.4L228.8,263.4z M228.8,263.4"/>
<path d="M122.4,289H89.6c-3.5,0-6.4,2.9-6.4,6.4c0,3.5,2.9,6.4,6.4,6.4h32.8c3.5,0,6.4-2.9,6.4-6.4C128.8,291.9,125.9,289,122.4,289
	L122.4,289z M122.4,289"/>
<path d="M204.8,289h-57.6c-3.5,0-6.4,2.9-6.4,6.4c0,3.5,2.9,6.4,6.4,6.4h57.6c3.5,0,6.4-2.9,6.4-6.4
	C211.2,291.9,208.3,289,204.8,289L204.8,289z M204.8,289"/>
</svg>
