<svg xmlns="http://www.w3.org/2000/svg" xmlns:xlink="http://www.w3.org/1999/xlink" viewBox="0 0 1785.73 414.22"><defs><style>.cls-1,.cls-3{fill:none;}.cls-2{clip-path:url(#clip-path);}.cls-3{stroke:#b9a472;stroke-miterlimit:10;stroke-width:0.4px;}</style><clipPath id="clip-path"><path class="cls-1" d="M647.3,100.41,687,151.35l9,11.57,14.65-.88,64.49-3.85L739,211.73l-8.22,12.16,5.36,13.66,23.59,60.15-62.09-17.86-14.11-4.06-11.34,9.32-49.91,41-2.2-64.57-.5-14.67L607.25,239,552.81,204.2l60.73-22,13.8-5,3.69-14.2,16.26-62.53M634.52,38.63,604,155.91l-113.9,41.35,102.11,65.25,4.13,121.11L690,306.67l116.46,33.49L762.17,227.36,830,127l-121,7.23L634.52,38.63Z"/></clipPath></defs><title>Fichier 2</title><g id="Calque_2" data-name="Calque 2"><g id="Calque_1-2" data-name="Calque 1"><g class="cls-2"><line class="cls-3" x1="486.8" y1="0.14" x2="113.14" y2="389.08"/><line class="cls-3" x1="494.53" y1="0.14" x2="120.88" y2="389.08"/><line class="cls-3" x1="502.26" y1="0.14" x2="128.61" y2="389.08"/><line class="cls-3" x1="509.99" y1="0.14" x2="136.34" y2="389.08"/><line class="cls-3" x1="517.73" y1="0.14" x2="144.07" y2="389.08"/><line class="cls-3" x1="525.46" y1="0.14" x2="151.8" y2="389.08"/><line class="cls-3" x1="533.19" y1="0.14" x2="159.53" y2="389.08"/><line class="cls-3" x1="540.92" y1="0.14" x2="167.26" y2="389.08"/><line class="cls-3" x1="548.65" y1="0.14" x2="174.99" y2="389.08"/><line class="cls-3" x1="556.38" y1="0.14" x2="182.72" y2="389.08"/><line class="cls-3" x1="564.11" y1="0.14" x2="190.45" y2="389.08"/><line class="cls-3" x1="571.84" y1="0.14" x2="198.18" y2="389.08"/><line class="cls-3" x1="579.57" y1="0.14" x2="205.91" y2="389.08"/><line class="cls-3" x1="587.3" y1="0.14" x2="213.65" y2="389.08"/><line class="cls-3" x1="595.03" y1="0.14" x2="221.38" y2="389.08"/><line class="cls-3" x1="602.76" y1="0.14" x2="229.11" y2="389.08"/><line class="cls-3" x1="610.5" y1="0.14" x2="236.84" y2="389.08"/><line class="cls-3" x1="618.23" y1="0.14" x2="244.57" y2="389.08"/><line class="cls-3" x1="625.96" y1="0.14" x2="252.3" y2="389.08"/><line class="cls-3" x1="633.69" y1="0.14" x2="260.03" y2="389.08"/><line class="cls-3" x1="641.42" y1="0.14" x2="267.76" y2="389.08"/><line class="cls-3" x1="649.15" y1="0.14" x2="275.49" y2="389.08"/><line class="cls-3" x1="656.88" y1="0.14" x2="283.22" y2="389.08"/><line class="cls-3" x1="664.61" y1="0.14" x2="290.95" y2="389.08"/><line class="cls-3" x1="672.34" y1="0.14" x2="298.68" y2="389.08"/><line class="cls-3" x1="680.07" y1="0.14" x2="306.42" y2="389.08"/><line class="cls-3" x1="687.8" y1="0.14" x2="314.15" y2="389.08"/><line class="cls-3" x1="695.54" y1="0.14" x2="321.88" y2="389.08"/><line class="cls-3" x1="703.27" y1="0.14" x2="329.61" y2="389.08"/><line class="cls-3" x1="711" y1="0.14" x2="337.34" y2="389.08"/><line class="cls-3" x1="718.73" y1="0.14" x2="345.07" y2="389.08"/><line class="cls-3" x1="726.46" y1="0.14" x2="352.8" y2="389.08"/><line class="cls-3" x1="734.19" y1="0.14" x2="360.53" y2="389.08"/><line class="cls-3" x1="741.92" y1="0.14" x2="368.26" y2="389.08"/><line class="cls-3" x1="749.65" y1="0.14" x2="375.99" y2="389.08"/><line class="cls-3" x1="757.38" y1="0.14" x2="383.72" y2="389.08"/><line class="cls-3" x1="765.11" y1="0.14" x2="391.45" y2="389.08"/><line class="cls-3" x1="772.84" y1="0.14" x2="399.19" y2="389.08"/><line class="cls-3" x1="780.57" y1="0.14" x2="406.92" y2="389.08"/><line class="cls-3" x1="788.31" y1="0.14" x2="414.65" y2="389.08"/><line class="cls-3" x1="796.04" y1="0.14" x2="422.38" y2="389.08"/><line class="cls-3" x1="803.77" y1="0.14" x2="430.11" y2="389.08"/><line class="cls-3" x1="811.5" y1="0.14" x2="437.84" y2="389.08"/><line class="cls-3" x1="819.23" y1="0.14" x2="445.57" y2="389.08"/><line class="cls-3" x1="826.96" y1="0.14" x2="453.3" y2="389.08"/><line class="cls-3" x1="834.69" y1="0.14" x2="461.03" y2="389.08"/><line class="cls-3" x1="842.42" y1="0.14" x2="468.76" y2="389.08"/><line class="cls-3" x1="850.15" y1="0.14" x2="476.49" y2="389.08"/><line class="cls-3" x1="857.88" y1="0.14" x2="484.23" y2="389.08"/><line class="cls-3" x1="865.61" y1="0.14" x2="491.96" y2="389.08"/><line class="cls-3" x1="873.34" y1="0.14" x2="499.69" y2="389.08"/><line class="cls-3" x1="881.08" y1="0.14" x2="507.42" y2="389.08"/><line class="cls-3" x1="888.81" y1="0.14" x2="515.15" y2="389.08"/><line class="cls-3" x1="896.54" y1="0.14" x2="522.88" y2="389.08"/><line class="cls-3" x1="904.27" y1="0.14" x2="530.61" y2="389.08"/><line class="cls-3" x1="912" y1="0.14" x2="538.34" y2="389.08"/><line class="cls-3" x1="919.73" y1="0.14" x2="546.07" y2="389.08"/><line class="cls-3" x1="927.46" y1="0.14" x2="553.8" y2="389.08"/><line class="cls-3" x1="935.19" y1="0.14" x2="561.53" y2="389.08"/><line class="cls-3" x1="942.92" y1="0.14" x2="569.26" y2="389.08"/><line class="cls-3" x1="950.65" y1="0.14" x2="577" y2="389.08"/><line class="cls-3" x1="958.38" y1="0.14" x2="584.73" y2="389.08"/><line class="cls-3" x1="966.11" y1="0.14" x2="592.46" y2="389.08"/><line class="cls-3" x1="973.85" y1="0.14" x2="600.19" y2="389.08"/><line class="cls-3" x1="981.58" y1="0.14" x2="607.92" y2="389.08"/><line class="cls-3" x1="989.31" y1="0.14" x2="615.65" y2="389.08"/><line class="cls-3" x1="997.04" y1="0.14" x2="623.38" y2="389.08"/><line class="cls-3" x1="1004.77" y1="0.14" x2="631.11" y2="389.08"/><line class="cls-3" x1="1012.5" y1="0.14" x2="638.84" y2="389.08"/><line class="cls-3" x1="1020.23" y1="0.14" x2="646.57" y2="389.08"/><line class="cls-3" x1="1027.96" y1="0.14" x2="654.3" y2="389.08"/><line class="cls-3" x1="1035.69" y1="0.14" x2="662.03" y2="389.08"/><line class="cls-3" x1="1043.42" y1="0.14" x2="669.77" y2="389.08"/><line class="cls-3" x1="1051.15" y1="0.14" x2="677.5" y2="389.08"/><line class="cls-3" x1="1058.89" y1="0.14" x2="685.23" y2="389.08"/><line class="cls-3" x1="1066.62" y1="0.14" x2="692.96" y2="389.08"/><line class="cls-3" x1="1074.35" y1="0.14" x2="700.69" y2="389.08"/><line class="cls-3" x1="1082.08" y1="0.14" x2="708.42" y2="389.08"/><line class="cls-3" x1="1089.81" y1="0.14" x2="716.15" y2="389.08"/><line class="cls-3" x1="1097.54" y1="0.14" x2="723.88" y2="389.08"/><line class="cls-3" x1="1105.27" y1="0.14" x2="731.61" y2="389.08"/><line class="cls-3" x1="1113" y1="0.14" x2="739.34" y2="389.08"/><line class="cls-3" x1="1120.73" y1="0.14" x2="747.07" y2="389.08"/><line class="cls-3" x1="1128.46" y1="0.14" x2="754.8" y2="389.08"/><line class="cls-3" x1="1136.19" y1="0.14" x2="762.54" y2="389.08"/><line class="cls-3" x1="1143.92" y1="0.14" x2="770.27" y2="389.08"/><line class="cls-3" x1="1151.66" y1="0.14" x2="778" y2="389.08"/><line class="cls-3" x1="1159.39" y1="0.14" x2="785.73" y2="389.08"/><line class="cls-3" x1="1167.12" y1="0.14" x2="793.46" y2="389.08"/><line class="cls-3" x1="1174.85" y1="0.14" x2="801.19" y2="389.08"/><line class="cls-3" x1="1182.58" y1="0.14" x2="808.92" y2="389.08"/><line class="cls-3" x1="1190.31" y1="0.14" x2="816.65" y2="389.08"/><line class="cls-3" x1="1198.04" y1="0.14" x2="824.38" y2="389.08"/><line class="cls-3" x1="1205.77" y1="0.14" x2="832.11" y2="389.08"/><line class="cls-3" x1="1213.5" y1="0.14" x2="839.84" y2="389.08"/><line class="cls-3" x1="1221.23" y1="0.14" x2="847.58" y2="389.08"/><line class="cls-3" x1="1228.96" y1="0.14" x2="855.31" y2="389.08"/><line class="cls-3" x1="1236.69" y1="0.14" x2="863.04" y2="389.08"/><line class="cls-3" x1="1244.43" y1="0.14" x2="870.77" y2="389.08"/><line class="cls-3" x1="1252.16" y1="0.14" x2="878.5" y2="389.08"/><line class="cls-3" x1="1259.89" y1="0.14" x2="886.23" y2="389.08"/><line class="cls-3" x1="1267.62" y1="0.14" x2="893.96" y2="389.08"/><line class="cls-3" x1="1275.35" y1="0.14" x2="901.69" y2="389.08"/><line class="cls-3" x1="1283.08" y1="0.14" x2="909.42" y2="389.08"/><line class="cls-3" x1="1290.81" y1="0.14" x2="917.15" y2="389.08"/><line class="cls-3" x1="1298.54" y1="0.14" x2="924.88" y2="389.08"/><line class="cls-3" x1="1306.27" y1="0.14" x2="932.61" y2="389.08"/><line class="cls-3" x1="1314" y1="0.14" x2="940.35" y2="389.08"/><line class="cls-3" x1="1321.73" y1="0.14" x2="948.08" y2="389.08"/><line class="cls-3" x1="1329.46" y1="0.14" x2="955.81" y2="389.08"/><line class="cls-3" x1="1337.2" y1="0.14" x2="963.54" y2="389.08"/><line class="cls-3" x1="1344.93" y1="0.14" x2="971.27" y2="389.08"/><line class="cls-3" x1="1352.66" y1="0.14" x2="979" y2="389.08"/><line class="cls-3" x1="1360.39" y1="0.14" x2="986.73" y2="389.08"/><line class="cls-3" x1="1368.12" y1="0.14" x2="994.46" y2="389.08"/><line class="cls-3" x1="1375.85" y1="0.14" x2="1002.19" y2="389.08"/><line class="cls-3" x1="1383.58" y1="0.14" x2="1009.92" y2="389.08"/><line class="cls-3" x1="1391.31" y1="0.14" x2="1017.65" y2="389.08"/><line class="cls-3" x1="1399.04" y1="0.14" x2="1025.38" y2="389.08"/><line class="cls-3" x1="1406.77" y1="0.14" x2="1033.12" y2="389.08"/><line class="cls-3" x1="1414.5" y1="0.14" x2="1040.85" y2="389.08"/><line class="cls-3" x1="1422.24" y1="0.14" x2="1048.58" y2="389.08"/><line class="cls-3" x1="1429.97" y1="0.14" x2="1056.31" y2="389.08"/><line class="cls-3" x1="1437.7" y1="0.14" x2="1064.04" y2="389.08"/><line class="cls-3" x1="1445.43" y1="0.14" x2="1071.77" y2="389.08"/><line class="cls-3" x1="1453.16" y1="0.14" x2="1079.5" y2="389.08"/><line class="cls-3" x1="1460.89" y1="0.14" x2="1087.23" y2="389.08"/><line class="cls-3" x1="1468.62" y1="0.14" x2="1094.96" y2="389.08"/><line class="cls-3" x1="1476.35" y1="0.14" x2="1102.69" y2="389.08"/><line class="cls-3" x1="1484.08" y1="0.14" x2="1110.42" y2="389.08"/><line class="cls-3" x1="1491.81" y1="0.14" x2="1118.15" y2="389.08"/><line class="cls-3" x1="1499.54" y1="0.14" x2="1125.89" y2="389.08"/><line class="cls-3" x1="1507.27" y1="0.14" x2="1133.62" y2="389.08"/><line class="cls-3" x1="1515.01" y1="0.14" x2="1141.35" y2="389.08"/><line class="cls-3" x1="1522.74" y1="0.14" x2="1149.08" y2="389.08"/><line class="cls-3" x1="1530.47" y1="0.14" x2="1156.81" y2="389.08"/><line class="cls-3" x1="1538.2" y1="0.14" x2="1164.54" y2="389.08"/><line class="cls-3" x1="1545.93" y1="0.14" x2="1172.27" y2="389.08"/><line class="cls-3" x1="1553.66" y1="0.14" x2="1180" y2="389.08"/><line class="cls-3" x1="1561.39" y1="0.14" x2="1187.73" y2="389.08"/><line class="cls-3" x1="1569.12" y1="0.14" x2="1195.46" y2="389.08"/><line class="cls-3" x1="1576.85" y1="0.14" x2="1203.19" y2="389.08"/><line class="cls-3" x1="1584.58" y1="0.14" x2="1210.93" y2="389.08"/><line class="cls-3" x1="1592.31" y1="0.14" x2="1218.66" y2="389.08"/><line class="cls-3" x1="1600.04" y1="0.14" x2="1226.39" y2="389.08"/><line class="cls-3" x1="1607.78" y1="0.14" x2="1234.12" y2="389.08"/><line class="cls-3" x1="1615.51" y1="0.14" x2="1241.85" y2="389.08"/><line class="cls-3" x1="1623.24" y1="0.14" x2="1249.58" y2="389.08"/><line class="cls-3" x1="1630.97" y1="0.14" x2="1257.31" y2="389.08"/><line class="cls-3" x1="1638.7" y1="0.14" x2="1265.04" y2="389.08"/><line class="cls-3" x1="1646.43" y1="0.14" x2="1272.77" y2="389.08"/><line class="cls-3" x1="1654.16" y1="0.14" x2="1280.5" y2="389.08"/><line class="cls-3" x1="1661.89" y1="0.14" x2="1288.23" y2="389.08"/><line class="cls-3" x1="1669.62" y1="0.14" x2="1295.96" y2="389.08"/><line class="cls-3" x1="1677.35" y1="0.14" x2="1303.7" y2="389.08"/><line class="cls-3" x1="1685.08" y1="0.14" x2="1311.43" y2="389.08"/><line class="cls-3" x1="1692.81" y1="0.14" x2="1319.16" y2="389.08"/><line class="cls-3" x1="1700.55" y1="0.14" x2="1326.89" y2="389.08"/><line class="cls-3" x1="1708.28" y1="0.14" x2="1334.62" y2="389.08"/><line class="cls-3" x1="1716.01" y1="0.14" x2="1342.35" y2="389.08"/><line class="cls-3" x1="1723.74" y1="0.14" x2="1350.08" y2="389.08"/><line class="cls-3" x1="1731.47" y1="0.14" x2="1357.81" y2="389.08"/><line class="cls-3" x1="1739.2" y1="0.14" x2="1365.54" y2="389.08"/><line class="cls-3" x1="1746.93" y1="0.14" x2="1373.27" y2="389.08"/><line class="cls-3" x1="1754.66" y1="0.14" x2="1381" y2="389.08"/><line class="cls-3" x1="1762.39" y1="0.14" x2="1388.73" y2="389.08"/><line class="cls-3" x1="1770.12" y1="0.14" x2="1396.47" y2="389.08"/><line class="cls-3" x1="1777.85" y1="0.14" x2="1404.2" y2="389.08"/><line class="cls-3" x1="1785.59" y1="0.14" x2="1411.93" y2="389.08"/><line class="cls-3" x1="373.8" y1="25.14" x2="0.14" y2="414.08"/><line class="cls-3" x1="381.53" y1="25.14" x2="7.88" y2="414.08"/><line class="cls-3" x1="389.26" y1="25.14" x2="15.61" y2="414.08"/><line class="cls-3" x1="396.99" y1="25.14" x2="23.34" y2="414.08"/><line class="cls-3" x1="404.73" y1="25.14" x2="31.07" y2="414.08"/><line class="cls-3" x1="412.46" y1="25.14" x2="38.8" y2="414.08"/><line class="cls-3" x1="420.19" y1="25.14" x2="46.53" y2="414.08"/><line class="cls-3" x1="427.92" y1="25.14" x2="54.26" y2="414.08"/><line class="cls-3" x1="435.65" y1="25.14" x2="61.99" y2="414.08"/><line class="cls-3" x1="443.38" y1="25.14" x2="69.72" y2="414.08"/><line class="cls-3" x1="451.11" y1="25.14" x2="77.45" y2="414.08"/><line class="cls-3" x1="458.84" y1="25.14" x2="85.18" y2="414.08"/><line class="cls-3" x1="466.57" y1="25.14" x2="92.91" y2="414.08"/><line class="cls-3" x1="474.3" y1="25.14" x2="100.65" y2="414.08"/><line class="cls-3" x1="482.03" y1="25.14" x2="108.38" y2="414.08"/><line class="cls-3" x1="489.76" y1="25.14" x2="116.11" y2="414.08"/><line class="cls-3" x1="497.5" y1="25.14" x2="123.84" y2="414.08"/><line class="cls-3" x1="505.23" y1="25.14" x2="131.57" y2="414.08"/><line class="cls-3" x1="512.96" y1="25.14" x2="139.3" y2="414.08"/><line class="cls-3" x1="520.69" y1="25.14" x2="147.03" y2="414.08"/><line class="cls-3" x1="528.42" y1="25.14" x2="154.76" y2="414.08"/><line class="cls-3" x1="536.15" y1="25.14" x2="162.49" y2="414.08"/><line class="cls-3" x1="543.88" y1="25.14" x2="170.22" y2="414.08"/><line class="cls-3" x1="551.61" y1="25.14" x2="177.95" y2="414.08"/><line class="cls-3" x1="559.34" y1="25.14" x2="185.68" y2="414.08"/><line class="cls-3" x1="567.07" y1="25.14" x2="193.42" y2="414.08"/><line class="cls-3" x1="574.8" y1="25.14" x2="201.15" y2="414.08"/><line class="cls-3" x1="582.54" y1="25.14" x2="208.88" y2="414.08"/><line class="cls-3" x1="590.27" y1="25.14" x2="216.61" y2="414.08"/><line class="cls-3" x1="598" y1="25.14" x2="224.34" y2="414.08"/><line class="cls-3" x1="605.73" y1="25.14" x2="232.07" y2="414.08"/><line class="cls-3" x1="613.46" y1="25.14" x2="239.8" y2="414.08"/><line class="cls-3" x1="621.19" y1="25.14" x2="247.53" y2="414.08"/><line class="cls-3" x1="628.92" y1="25.14" x2="255.26" y2="414.08"/><line class="cls-3" x1="636.65" y1="25.14" x2="262.99" y2="414.08"/><line class="cls-3" x1="644.38" y1="25.14" x2="270.72" y2="414.08"/><line class="cls-3" x1="652.11" y1="25.14" x2="278.45" y2="414.08"/><line class="cls-3" x1="659.84" y1="25.14" x2="286.19" y2="414.08"/><line class="cls-3" x1="667.57" y1="25.14" x2="293.92" y2="414.08"/><line class="cls-3" x1="675.31" y1="25.14" x2="301.65" y2="414.08"/><line class="cls-3" x1="683.04" y1="25.14" x2="309.38" y2="414.08"/><line class="cls-3" x1="690.77" y1="25.14" x2="317.11" y2="414.08"/><line class="cls-3" x1="698.5" y1="25.14" x2="324.84" y2="414.08"/><line class="cls-3" x1="706.23" y1="25.14" x2="332.57" y2="414.08"/><line class="cls-3" x1="713.96" y1="25.14" x2="340.3" y2="414.08"/><line class="cls-3" x1="721.69" y1="25.14" x2="348.03" y2="414.08"/><line class="cls-3" x1="729.42" y1="25.14" x2="355.76" y2="414.08"/><line class="cls-3" x1="737.15" y1="25.14" x2="363.49" y2="414.08"/><line class="cls-3" x1="744.88" y1="25.14" x2="371.23" y2="414.08"/><line class="cls-3" x1="752.61" y1="25.14" x2="378.96" y2="414.08"/><line class="cls-3" x1="760.34" y1="25.14" x2="386.69" y2="414.08"/><line class="cls-3" x1="768.08" y1="25.14" x2="394.42" y2="414.08"/><line class="cls-3" x1="775.81" y1="25.14" x2="402.15" y2="414.08"/><line class="cls-3" x1="783.54" y1="25.14" x2="409.88" y2="414.08"/><line class="cls-3" x1="791.27" y1="25.14" x2="417.61" y2="414.08"/><line class="cls-3" x1="799" y1="25.14" x2="425.34" y2="414.08"/><line class="cls-3" x1="806.73" y1="25.14" x2="433.07" y2="414.08"/><line class="cls-3" x1="814.46" y1="25.14" x2="440.8" y2="414.08"/><line class="cls-3" x1="822.19" y1="25.14" x2="448.53" y2="414.08"/><line class="cls-3" x1="829.92" y1="25.14" x2="456.26" y2="414.08"/><line class="cls-3" x1="837.65" y1="25.14" x2="464" y2="414.08"/><line class="cls-3" x1="845.38" y1="25.14" x2="471.73" y2="414.08"/><line class="cls-3" x1="853.11" y1="25.14" x2="479.46" y2="414.08"/><line class="cls-3" x1="860.85" y1="25.14" x2="487.19" y2="414.08"/><line class="cls-3" x1="868.58" y1="25.14" x2="494.92" y2="414.08"/><line class="cls-3" x1="876.31" y1="25.14" x2="502.65" y2="414.08"/><line class="cls-3" x1="884.04" y1="25.14" x2="510.38" y2="414.08"/><line class="cls-3" x1="891.77" y1="25.14" x2="518.11" y2="414.08"/><line class="cls-3" x1="899.5" y1="25.14" x2="525.84" y2="414.08"/><line class="cls-3" x1="907.23" y1="25.14" x2="533.57" y2="414.08"/><line class="cls-3" x1="914.96" y1="25.14" x2="541.3" y2="414.08"/><line class="cls-3" x1="922.69" y1="25.14" x2="549.03" y2="414.08"/><line class="cls-3" x1="930.42" y1="25.14" x2="556.77" y2="414.08"/><line class="cls-3" x1="938.15" y1="25.14" x2="564.5" y2="414.08"/><line class="cls-3" x1="945.89" y1="25.14" x2="572.23" y2="414.08"/><line class="cls-3" x1="953.62" y1="25.14" x2="579.96" y2="414.08"/><line class="cls-3" x1="961.35" y1="25.14" x2="587.69" y2="414.08"/><line class="cls-3" x1="969.08" y1="25.14" x2="595.42" y2="414.08"/><line class="cls-3" x1="976.81" y1="25.14" x2="603.15" y2="414.08"/><line class="cls-3" x1="984.54" y1="25.14" x2="610.88" y2="414.08"/><line class="cls-3" x1="992.27" y1="25.14" x2="618.61" y2="414.08"/><line class="cls-3" x1="1000" y1="25.14" x2="626.34" y2="414.08"/><line class="cls-3" x1="1007.73" y1="25.14" x2="634.07" y2="414.08"/><line class="cls-3" x1="1015.46" y1="25.14" x2="641.8" y2="414.08"/><line class="cls-3" x1="1023.19" y1="25.14" x2="649.54" y2="414.08"/><line class="cls-3" x1="1030.92" y1="25.14" x2="657.27" y2="414.08"/><line class="cls-3" x1="1038.66" y1="25.14" x2="665" y2="414.08"/><line class="cls-3" x1="1046.39" y1="25.14" x2="672.73" y2="414.08"/><line class="cls-3" x1="1054.12" y1="25.14" x2="680.46" y2="414.08"/><line class="cls-3" x1="1061.85" y1="25.14" x2="688.19" y2="414.08"/><line class="cls-3" x1="1069.58" y1="25.14" x2="695.92" y2="414.08"/><line class="cls-3" x1="1077.31" y1="25.14" x2="703.65" y2="414.08"/><line class="cls-3" x1="1085.04" y1="25.14" x2="711.38" y2="414.08"/><line class="cls-3" x1="1092.77" y1="25.14" x2="719.11" y2="414.08"/><line class="cls-3" x1="1100.5" y1="25.14" x2="726.84" y2="414.08"/><line class="cls-3" x1="1108.23" y1="25.14" x2="734.58" y2="414.08"/><line class="cls-3" x1="1115.96" y1="25.14" x2="742.31" y2="414.08"/><line class="cls-3" x1="1123.69" y1="25.14" x2="750.04" y2="414.08"/><line class="cls-3" x1="1131.43" y1="25.14" x2="757.77" y2="414.08"/><line class="cls-3" x1="1139.16" y1="25.14" x2="765.5" y2="414.08"/><line class="cls-3" x1="1146.89" y1="25.14" x2="773.23" y2="414.08"/><line class="cls-3" x1="1154.62" y1="25.14" x2="780.96" y2="414.08"/><line class="cls-3" x1="1162.35" y1="25.14" x2="788.69" y2="414.08"/><line class="cls-3" x1="1170.08" y1="25.14" x2="796.42" y2="414.08"/><line class="cls-3" x1="1177.81" y1="25.14" x2="804.15" y2="414.08"/><line class="cls-3" x1="1185.54" y1="25.14" x2="811.88" y2="414.08"/><line class="cls-3" x1="1193.27" y1="25.14" x2="819.61" y2="414.08"/><line class="cls-3" x1="1201" y1="25.14" x2="827.35" y2="414.08"/><line class="cls-3" x1="1208.73" y1="25.14" x2="835.08" y2="414.08"/><line class="cls-3" x1="1216.46" y1="25.14" x2="842.81" y2="414.08"/><line class="cls-3" x1="1224.2" y1="25.14" x2="850.54" y2="414.08"/><line class="cls-3" x1="1231.93" y1="25.14" x2="858.27" y2="414.08"/><line class="cls-3" x1="1239.66" y1="25.14" x2="866" y2="414.08"/><line class="cls-3" x1="1247.39" y1="25.14" x2="873.73" y2="414.08"/><line class="cls-3" x1="1255.12" y1="25.14" x2="881.46" y2="414.08"/><line class="cls-3" x1="1262.85" y1="25.14" x2="889.19" y2="414.08"/><line class="cls-3" x1="1270.58" y1="25.14" x2="896.92" y2="414.08"/><line class="cls-3" x1="1278.31" y1="25.14" x2="904.65" y2="414.08"/><line class="cls-3" x1="1286.04" y1="25.14" x2="912.38" y2="414.08"/><line class="cls-3" x1="1293.77" y1="25.14" x2="920.12" y2="414.08"/><line class="cls-3" x1="1301.5" y1="25.14" x2="927.85" y2="414.08"/><line class="cls-3" x1="1309.24" y1="25.14" x2="935.58" y2="414.08"/><line class="cls-3" x1="1316.97" y1="25.14" x2="943.31" y2="414.08"/><line class="cls-3" x1="1324.7" y1="25.14" x2="951.04" y2="414.08"/><line class="cls-3" x1="1332.43" y1="25.14" x2="958.77" y2="414.08"/><line class="cls-3" x1="1340.16" y1="25.14" x2="966.5" y2="414.08"/><line class="cls-3" x1="1347.89" y1="25.14" x2="974.23" y2="414.08"/><line class="cls-3" x1="1355.62" y1="25.14" x2="981.96" y2="414.08"/><line class="cls-3" x1="1363.35" y1="25.14" x2="989.69" y2="414.08"/><line class="cls-3" x1="1371.08" y1="25.14" x2="997.42" y2="414.08"/><line class="cls-3" x1="1378.81" y1="25.14" x2="1005.15" y2="414.08"/><line class="cls-3" x1="1386.54" y1="25.14" x2="1012.89" y2="414.08"/><line class="cls-3" x1="1394.27" y1="25.14" x2="1020.62" y2="414.08"/><line class="cls-3" x1="1402.01" y1="25.14" x2="1028.35" y2="414.08"/><line class="cls-3" x1="1409.74" y1="25.14" x2="1036.08" y2="414.08"/><line class="cls-3" x1="1417.47" y1="25.14" x2="1043.81" y2="414.08"/><line class="cls-3" x1="1425.2" y1="25.14" x2="1051.54" y2="414.08"/><line class="cls-3" x1="1432.93" y1="25.14" x2="1059.27" y2="414.08"/><line class="cls-3" x1="1440.66" y1="25.14" x2="1067" y2="414.08"/><line class="cls-3" x1="1448.39" y1="25.14" x2="1074.73" y2="414.08"/><line class="cls-3" x1="1456.12" y1="25.14" x2="1082.46" y2="414.08"/><line class="cls-3" x1="1463.85" y1="25.14" x2="1090.19" y2="414.08"/><line class="cls-3" x1="1471.58" y1="25.14" x2="1097.93" y2="414.08"/><line class="cls-3" x1="1479.31" y1="25.14" x2="1105.66" y2="414.08"/><line class="cls-3" x1="1487.04" y1="25.14" x2="1113.39" y2="414.08"/><line class="cls-3" x1="1494.78" y1="25.14" x2="1121.12" y2="414.08"/><line class="cls-3" x1="1502.51" y1="25.14" x2="1128.85" y2="414.08"/><line class="cls-3" x1="1510.24" y1="25.14" x2="1136.58" y2="414.08"/><line class="cls-3" x1="1517.97" y1="25.14" x2="1144.31" y2="414.08"/><line class="cls-3" x1="1525.7" y1="25.14" x2="1152.04" y2="414.08"/><line class="cls-3" x1="1533.43" y1="25.14" x2="1159.77" y2="414.08"/><line class="cls-3" x1="1541.16" y1="25.14" x2="1167.5" y2="414.08"/><line class="cls-3" x1="1548.89" y1="25.14" x2="1175.23" y2="414.08"/><line class="cls-3" x1="1556.62" y1="25.14" x2="1182.96" y2="414.08"/><line class="cls-3" x1="1564.35" y1="25.14" x2="1190.7" y2="414.08"/><line class="cls-3" x1="1572.08" y1="25.14" x2="1198.43" y2="414.08"/><line class="cls-3" x1="1579.81" y1="25.14" x2="1206.16" y2="414.08"/><line class="cls-3" x1="1587.55" y1="25.14" x2="1213.89" y2="414.08"/><line class="cls-3" x1="1595.28" y1="25.14" x2="1221.62" y2="414.08"/><line class="cls-3" x1="1603.01" y1="25.14" x2="1229.35" y2="414.08"/><line class="cls-3" x1="1610.74" y1="25.14" x2="1237.08" y2="414.08"/><line class="cls-3" x1="1618.47" y1="25.14" x2="1244.81" y2="414.08"/><line class="cls-3" x1="1626.2" y1="25.14" x2="1252.54" y2="414.08"/><line class="cls-3" x1="1633.93" y1="25.14" x2="1260.27" y2="414.08"/><line class="cls-3" x1="1641.66" y1="25.14" x2="1268" y2="414.08"/><line class="cls-3" x1="1649.39" y1="25.14" x2="1275.73" y2="414.08"/><line class="cls-3" x1="1657.12" y1="25.14" x2="1283.47" y2="414.08"/><line class="cls-3" x1="1664.85" y1="25.14" x2="1291.2" y2="414.08"/><line class="cls-3" x1="1672.59" y1="25.14" x2="1298.93" y2="414.08"/></g></g></g></svg>