<svg xmlns="http://www.w3.org/2000/svg" xmlns:xlink="http://www.w3.org/1999/xlink" viewBox="0 0 1419.45 329.3"><defs><style>.cls-1,.cls-3{fill:none;}.cls-2{clip-path:url(#clip-path);}.cls-3{stroke:#b9a472;stroke-miterlimit:10;stroke-width:0.4px;}</style><clipPath id="clip-path"><circle class="cls-1" cx="746.3" cy="161.37" r="133.47"/></clipPath></defs><title>Fichier 3</title><g id="Calque_2" data-name="Calque 2"><g id="Calque_1-2" data-name="Calque 1"><g class="cls-2"><line class="cls-3" x1="386.96" y1="0.14" x2="89.96" y2="309.29"/><line class="cls-3" x1="393.11" y1="0.14" x2="96.11" y2="309.29"/><line class="cls-3" x1="399.25" y1="0.14" x2="102.25" y2="309.29"/><line class="cls-3" x1="405.4" y1="0.14" x2="108.4" y2="309.29"/><line class="cls-3" x1="411.54" y1="0.14" x2="114.54" y2="309.29"/><line class="cls-3" x1="417.69" y1="0.14" x2="120.69" y2="309.29"/><line class="cls-3" x1="423.83" y1="0.14" x2="126.83" y2="309.29"/><line class="cls-3" x1="429.98" y1="0.14" x2="132.98" y2="309.29"/><line class="cls-3" x1="436.12" y1="0.14" x2="139.12" y2="309.29"/><line class="cls-3" x1="442.27" y1="0.14" x2="145.27" y2="309.29"/><line class="cls-3" x1="448.41" y1="0.14" x2="151.41" y2="309.29"/><line class="cls-3" x1="454.56" y1="0.14" x2="157.56" y2="309.29"/><line class="cls-3" x1="460.7" y1="0.14" x2="163.7" y2="309.29"/><line class="cls-3" x1="466.85" y1="0.14" x2="169.85" y2="309.29"/><line class="cls-3" x1="472.99" y1="0.14" x2="175.99" y2="309.29"/><line class="cls-3" x1="479.14" y1="0.14" x2="182.14" y2="309.29"/><line class="cls-3" x1="485.28" y1="0.14" x2="188.28" y2="309.29"/><line class="cls-3" x1="491.43" y1="0.14" x2="194.43" y2="309.29"/><line class="cls-3" x1="497.57" y1="0.14" x2="200.57" y2="309.29"/><line class="cls-3" x1="503.72" y1="0.14" x2="206.71" y2="309.29"/><line class="cls-3" x1="509.86" y1="0.14" x2="212.86" y2="309.29"/><line class="cls-3" x1="516.01" y1="0.14" x2="219" y2="309.29"/><line class="cls-3" x1="522.15" y1="0.14" x2="225.15" y2="309.29"/><line class="cls-3" x1="528.3" y1="0.14" x2="231.29" y2="309.29"/><line class="cls-3" x1="534.44" y1="0.14" x2="237.44" y2="309.29"/><line class="cls-3" x1="540.59" y1="0.14" x2="243.58" y2="309.29"/><line class="cls-3" x1="546.73" y1="0.14" x2="249.73" y2="309.29"/><line class="cls-3" x1="552.88" y1="0.14" x2="255.87" y2="309.29"/><line class="cls-3" x1="559.02" y1="0.14" x2="262.02" y2="309.29"/><line class="cls-3" x1="565.17" y1="0.14" x2="268.16" y2="309.29"/><line class="cls-3" x1="571.31" y1="0.14" x2="274.31" y2="309.29"/><line class="cls-3" x1="577.46" y1="0.14" x2="280.45" y2="309.29"/><line class="cls-3" x1="583.6" y1="0.14" x2="286.6" y2="309.29"/><line class="cls-3" x1="589.75" y1="0.14" x2="292.74" y2="309.29"/><line class="cls-3" x1="595.89" y1="0.14" x2="298.89" y2="309.29"/><line class="cls-3" x1="602.04" y1="0.14" x2="305.03" y2="309.29"/><line class="cls-3" x1="608.18" y1="0.14" x2="311.18" y2="309.29"/><line class="cls-3" x1="614.32" y1="0.14" x2="317.32" y2="309.29"/><line class="cls-3" x1="620.47" y1="0.14" x2="323.47" y2="309.29"/><line class="cls-3" x1="626.61" y1="0.14" x2="329.61" y2="309.29"/><line class="cls-3" x1="632.76" y1="0.14" x2="335.76" y2="309.29"/><line class="cls-3" x1="638.9" y1="0.14" x2="341.9" y2="309.29"/><line class="cls-3" x1="645.05" y1="0.14" x2="348.05" y2="309.29"/><line class="cls-3" x1="651.19" y1="0.14" x2="354.19" y2="309.29"/><line class="cls-3" x1="657.34" y1="0.14" x2="360.34" y2="309.29"/><line class="cls-3" x1="663.48" y1="0.14" x2="366.48" y2="309.29"/><line class="cls-3" x1="669.63" y1="0.14" x2="372.63" y2="309.29"/><line class="cls-3" x1="675.77" y1="0.14" x2="378.77" y2="309.29"/><line class="cls-3" x1="681.92" y1="0.14" x2="384.92" y2="309.29"/><line class="cls-3" x1="688.06" y1="0.14" x2="391.06" y2="309.29"/><line class="cls-3" x1="694.21" y1="0.14" x2="397.21" y2="309.29"/><line class="cls-3" x1="700.35" y1="0.14" x2="403.35" y2="309.29"/><line class="cls-3" x1="706.5" y1="0.14" x2="409.5" y2="309.29"/><line class="cls-3" x1="712.64" y1="0.14" x2="415.64" y2="309.29"/><line class="cls-3" x1="718.79" y1="0.14" x2="421.79" y2="309.29"/><line class="cls-3" x1="724.93" y1="0.14" x2="427.93" y2="309.29"/><line class="cls-3" x1="731.08" y1="0.14" x2="434.08" y2="309.29"/><line class="cls-3" x1="737.22" y1="0.14" x2="440.22" y2="309.29"/><line class="cls-3" x1="743.37" y1="0.14" x2="446.36" y2="309.29"/><line class="cls-3" x1="749.51" y1="0.14" x2="452.51" y2="309.29"/><line class="cls-3" x1="755.66" y1="0.14" x2="458.65" y2="309.29"/><line class="cls-3" x1="761.8" y1="0.14" x2="464.8" y2="309.29"/><line class="cls-3" x1="767.95" y1="0.14" x2="470.94" y2="309.29"/><line class="cls-3" x1="774.09" y1="0.14" x2="477.09" y2="309.29"/><line class="cls-3" x1="780.24" y1="0.14" x2="483.23" y2="309.29"/><line class="cls-3" x1="786.38" y1="0.14" x2="489.38" y2="309.29"/><line class="cls-3" x1="792.53" y1="0.14" x2="495.52" y2="309.29"/><line class="cls-3" x1="798.67" y1="0.14" x2="501.67" y2="309.29"/><line class="cls-3" x1="804.82" y1="0.14" x2="507.81" y2="309.29"/><line class="cls-3" x1="810.96" y1="0.14" x2="513.96" y2="309.29"/><line class="cls-3" x1="817.11" y1="0.14" x2="520.1" y2="309.29"/><line class="cls-3" x1="823.25" y1="0.14" x2="526.25" y2="309.29"/><line class="cls-3" x1="829.4" y1="0.14" x2="532.39" y2="309.29"/><line class="cls-3" x1="835.54" y1="0.14" x2="538.54" y2="309.29"/><line class="cls-3" x1="841.69" y1="0.14" x2="544.68" y2="309.29"/><line class="cls-3" x1="847.83" y1="0.14" x2="550.83" y2="309.29"/><line class="cls-3" x1="853.97" y1="0.14" x2="556.97" y2="309.29"/><line class="cls-3" x1="860.12" y1="0.14" x2="563.12" y2="309.29"/><line class="cls-3" x1="866.26" y1="0.14" x2="569.26" y2="309.29"/><line class="cls-3" x1="872.41" y1="0.14" x2="575.41" y2="309.29"/><line class="cls-3" x1="878.55" y1="0.14" x2="581.55" y2="309.29"/><line class="cls-3" x1="884.7" y1="0.14" x2="587.7" y2="309.29"/><line class="cls-3" x1="890.84" y1="0.14" x2="593.84" y2="309.29"/><line class="cls-3" x1="896.99" y1="0.14" x2="599.99" y2="309.29"/><line class="cls-3" x1="903.13" y1="0.14" x2="606.13" y2="309.29"/><line class="cls-3" x1="909.28" y1="0.14" x2="612.28" y2="309.29"/><line class="cls-3" x1="915.42" y1="0.14" x2="618.42" y2="309.29"/><line class="cls-3" x1="921.57" y1="0.14" x2="624.57" y2="309.29"/><line class="cls-3" x1="927.71" y1="0.14" x2="630.71" y2="309.29"/><line class="cls-3" x1="933.86" y1="0.14" x2="636.86" y2="309.29"/><line class="cls-3" x1="940" y1="0.14" x2="643" y2="309.29"/><line class="cls-3" x1="946.15" y1="0.14" x2="649.15" y2="309.29"/><line class="cls-3" x1="952.29" y1="0.14" x2="655.29" y2="309.29"/><line class="cls-3" x1="958.44" y1="0.14" x2="661.44" y2="309.29"/><line class="cls-3" x1="964.58" y1="0.14" x2="667.58" y2="309.29"/><line class="cls-3" x1="970.73" y1="0.14" x2="673.73" y2="309.29"/><line class="cls-3" x1="976.87" y1="0.14" x2="679.87" y2="309.29"/><line class="cls-3" x1="983.02" y1="0.14" x2="686.02" y2="309.29"/><line class="cls-3" x1="989.16" y1="0.14" x2="692.16" y2="309.29"/><line class="cls-3" x1="995.31" y1="0.14" x2="698.3" y2="309.29"/><line class="cls-3" x1="1001.45" y1="0.14" x2="704.45" y2="309.29"/><line class="cls-3" x1="1007.6" y1="0.14" x2="710.59" y2="309.29"/><line class="cls-3" x1="1013.74" y1="0.14" x2="716.74" y2="309.29"/><line class="cls-3" x1="1019.89" y1="0.14" x2="722.88" y2="309.29"/><line class="cls-3" x1="1026.03" y1="0.14" x2="729.03" y2="309.29"/><line class="cls-3" x1="1032.18" y1="0.14" x2="735.17" y2="309.29"/><line class="cls-3" x1="1038.32" y1="0.14" x2="741.32" y2="309.29"/><line class="cls-3" x1="1044.47" y1="0.14" x2="747.46" y2="309.29"/><line class="cls-3" x1="1050.61" y1="0.14" x2="753.61" y2="309.29"/><line class="cls-3" x1="1056.76" y1="0.14" x2="759.75" y2="309.29"/><line class="cls-3" x1="1062.9" y1="0.14" x2="765.9" y2="309.29"/><line class="cls-3" x1="1069.05" y1="0.14" x2="772.04" y2="309.29"/><line class="cls-3" x1="1075.19" y1="0.14" x2="778.19" y2="309.29"/><line class="cls-3" x1="1081.34" y1="0.14" x2="784.33" y2="309.29"/><line class="cls-3" x1="1087.48" y1="0.14" x2="790.48" y2="309.29"/><line class="cls-3" x1="1093.62" y1="0.14" x2="796.62" y2="309.29"/><line class="cls-3" x1="1099.77" y1="0.14" x2="802.77" y2="309.29"/><line class="cls-3" x1="1105.91" y1="0.14" x2="808.91" y2="309.29"/><line class="cls-3" x1="1112.06" y1="0.14" x2="815.06" y2="309.29"/><line class="cls-3" x1="1118.2" y1="0.14" x2="821.2" y2="309.29"/><line class="cls-3" x1="1124.35" y1="0.14" x2="827.35" y2="309.29"/><line class="cls-3" x1="1130.49" y1="0.14" x2="833.49" y2="309.29"/><line class="cls-3" x1="1136.64" y1="0.14" x2="839.64" y2="309.29"/><line class="cls-3" x1="1142.78" y1="0.14" x2="845.78" y2="309.29"/><line class="cls-3" x1="1148.93" y1="0.14" x2="851.93" y2="309.29"/><line class="cls-3" x1="1155.07" y1="0.14" x2="858.07" y2="309.29"/><line class="cls-3" x1="1161.22" y1="0.14" x2="864.22" y2="309.29"/><line class="cls-3" x1="1167.36" y1="0.14" x2="870.36" y2="309.29"/><line class="cls-3" x1="1173.51" y1="0.14" x2="876.51" y2="309.29"/><line class="cls-3" x1="1179.65" y1="0.14" x2="882.65" y2="309.29"/><line class="cls-3" x1="1185.8" y1="0.14" x2="888.8" y2="309.29"/><line class="cls-3" x1="1191.94" y1="0.14" x2="894.94" y2="309.29"/><line class="cls-3" x1="1198.09" y1="0.14" x2="901.09" y2="309.29"/><line class="cls-3" x1="1204.23" y1="0.14" x2="907.23" y2="309.29"/><line class="cls-3" x1="1210.38" y1="0.14" x2="913.38" y2="309.29"/><line class="cls-3" x1="1216.52" y1="0.14" x2="919.52" y2="309.29"/><line class="cls-3" x1="1222.67" y1="0.14" x2="925.67" y2="309.29"/><line class="cls-3" x1="1228.81" y1="0.14" x2="931.81" y2="309.29"/><line class="cls-3" x1="1234.96" y1="0.14" x2="937.95" y2="309.29"/><line class="cls-3" x1="1241.1" y1="0.14" x2="944.1" y2="309.29"/><line class="cls-3" x1="1247.25" y1="0.14" x2="950.24" y2="309.29"/><line class="cls-3" x1="1253.39" y1="0.14" x2="956.39" y2="309.29"/><line class="cls-3" x1="1259.54" y1="0.14" x2="962.53" y2="309.29"/><line class="cls-3" x1="1265.68" y1="0.14" x2="968.68" y2="309.29"/><line class="cls-3" x1="1271.83" y1="0.14" x2="974.82" y2="309.29"/><line class="cls-3" x1="1277.97" y1="0.14" x2="980.97" y2="309.29"/><line class="cls-3" x1="1284.12" y1="0.14" x2="987.11" y2="309.29"/><line class="cls-3" x1="1290.26" y1="0.14" x2="993.26" y2="309.29"/><line class="cls-3" x1="1296.41" y1="0.14" x2="999.4" y2="309.29"/><line class="cls-3" x1="1302.55" y1="0.14" x2="1005.55" y2="309.29"/><line class="cls-3" x1="1308.7" y1="0.14" x2="1011.69" y2="309.29"/><line class="cls-3" x1="1314.84" y1="0.14" x2="1017.84" y2="309.29"/><line class="cls-3" x1="1320.99" y1="0.14" x2="1023.98" y2="309.29"/><line class="cls-3" x1="1327.13" y1="0.14" x2="1030.13" y2="309.29"/><line class="cls-3" x1="1333.27" y1="0.14" x2="1036.27" y2="309.29"/><line class="cls-3" x1="1339.42" y1="0.14" x2="1042.42" y2="309.29"/><line class="cls-3" x1="1345.56" y1="0.14" x2="1048.56" y2="309.29"/><line class="cls-3" x1="1351.71" y1="0.14" x2="1054.71" y2="309.29"/><line class="cls-3" x1="1357.85" y1="0.14" x2="1060.85" y2="309.29"/><line class="cls-3" x1="1364" y1="0.14" x2="1067" y2="309.29"/><line class="cls-3" x1="1370.14" y1="0.14" x2="1073.14" y2="309.29"/><line class="cls-3" x1="1376.29" y1="0.14" x2="1079.29" y2="309.29"/><line class="cls-3" x1="1382.43" y1="0.14" x2="1085.43" y2="309.29"/><line class="cls-3" x1="1388.58" y1="0.14" x2="1091.58" y2="309.29"/><line class="cls-3" x1="1394.72" y1="0.14" x2="1097.72" y2="309.29"/><line class="cls-3" x1="1400.87" y1="0.14" x2="1103.87" y2="309.29"/><line class="cls-3" x1="1407.01" y1="0.14" x2="1110.01" y2="309.29"/><line class="cls-3" x1="1413.16" y1="0.14" x2="1116.16" y2="309.29"/><line class="cls-3" x1="1419.3" y1="0.14" x2="1122.3" y2="309.29"/><line class="cls-3" x1="297.15" y1="20.01" x2="0.14" y2="329.16"/><line class="cls-3" x1="303.29" y1="20.01" x2="6.29" y2="329.16"/><line class="cls-3" x1="309.44" y1="20.01" x2="12.43" y2="329.16"/><line class="cls-3" x1="315.58" y1="20.01" x2="18.58" y2="329.16"/><line class="cls-3" x1="321.73" y1="20.01" x2="24.72" y2="329.16"/><line class="cls-3" x1="327.87" y1="20.01" x2="30.87" y2="329.16"/><line class="cls-3" x1="334.02" y1="20.01" x2="37.01" y2="329.16"/><line class="cls-3" x1="340.16" y1="20.01" x2="43.16" y2="329.16"/><line class="cls-3" x1="346.31" y1="20.01" x2="49.3" y2="329.16"/><line class="cls-3" x1="352.45" y1="20.01" x2="55.45" y2="329.16"/><line class="cls-3" x1="358.6" y1="20.01" x2="61.59" y2="329.16"/><line class="cls-3" x1="364.74" y1="20.01" x2="67.74" y2="329.16"/><line class="cls-3" x1="370.88" y1="20.01" x2="73.88" y2="329.16"/><line class="cls-3" x1="377.03" y1="20.01" x2="80.03" y2="329.16"/><line class="cls-3" x1="383.17" y1="20.01" x2="86.17" y2="329.16"/><line class="cls-3" x1="389.32" y1="20.01" x2="92.32" y2="329.16"/><line class="cls-3" x1="395.46" y1="20.01" x2="98.46" y2="329.16"/><line class="cls-3" x1="401.61" y1="20.01" x2="104.61" y2="329.16"/><line class="cls-3" x1="407.75" y1="20.01" x2="110.75" y2="329.16"/><line class="cls-3" x1="413.9" y1="20.01" x2="116.9" y2="329.16"/><line class="cls-3" x1="420.04" y1="20.01" x2="123.04" y2="329.16"/><line class="cls-3" x1="426.19" y1="20.01" x2="129.19" y2="329.16"/><line class="cls-3" x1="432.33" y1="20.01" x2="135.33" y2="329.16"/><line class="cls-3" x1="438.48" y1="20.01" x2="141.48" y2="329.16"/><line class="cls-3" x1="444.62" y1="20.01" x2="147.62" y2="329.16"/><line class="cls-3" x1="450.77" y1="20.01" x2="153.77" y2="329.16"/><line class="cls-3" x1="456.91" y1="20.01" x2="159.91" y2="329.16"/><line class="cls-3" x1="463.06" y1="20.01" x2="166.06" y2="329.16"/><line class="cls-3" x1="469.2" y1="20.01" x2="172.2" y2="329.16"/><line class="cls-3" x1="475.35" y1="20.01" x2="178.35" y2="329.16"/><line class="cls-3" x1="481.49" y1="20.01" x2="184.49" y2="329.16"/><line class="cls-3" x1="487.64" y1="20.01" x2="190.64" y2="329.16"/><line class="cls-3" x1="493.78" y1="20.01" x2="196.78" y2="329.16"/><line class="cls-3" x1="499.93" y1="20.01" x2="202.93" y2="329.16"/><line class="cls-3" x1="506.07" y1="20.01" x2="209.07" y2="329.16"/><line class="cls-3" x1="512.22" y1="20.01" x2="215.21" y2="329.16"/><line class="cls-3" x1="518.36" y1="20.01" x2="221.36" y2="329.16"/><line class="cls-3" x1="524.51" y1="20.01" x2="227.5" y2="329.16"/><line class="cls-3" x1="530.65" y1="20.01" x2="233.65" y2="329.16"/><line class="cls-3" x1="536.8" y1="20.01" x2="239.79" y2="329.16"/><line class="cls-3" x1="542.94" y1="20.01" x2="245.94" y2="329.16"/><line class="cls-3" x1="549.09" y1="20.01" x2="252.08" y2="329.16"/><line class="cls-3" x1="555.23" y1="20.01" x2="258.23" y2="329.16"/><line class="cls-3" x1="561.38" y1="20.01" x2="264.37" y2="329.16"/><line class="cls-3" x1="567.52" y1="20.01" x2="270.52" y2="329.16"/><line class="cls-3" x1="573.67" y1="20.01" x2="276.66" y2="329.16"/><line class="cls-3" x1="579.81" y1="20.01" x2="282.81" y2="329.16"/><line class="cls-3" x1="585.96" y1="20.01" x2="288.95" y2="329.16"/><line class="cls-3" x1="592.1" y1="20.01" x2="295.1" y2="329.16"/><line class="cls-3" x1="598.25" y1="20.01" x2="301.24" y2="329.16"/><line class="cls-3" x1="604.39" y1="20.01" x2="307.39" y2="329.16"/><line class="cls-3" x1="610.53" y1="20.01" x2="313.53" y2="329.16"/><line class="cls-3" x1="616.68" y1="20.01" x2="319.68" y2="329.16"/><line class="cls-3" x1="622.82" y1="20.01" x2="325.82" y2="329.16"/><line class="cls-3" x1="628.97" y1="20.01" x2="331.97" y2="329.16"/><line class="cls-3" x1="635.11" y1="20.01" x2="338.11" y2="329.16"/><line class="cls-3" x1="641.26" y1="20.01" x2="344.26" y2="329.16"/><line class="cls-3" x1="647.4" y1="20.01" x2="350.4" y2="329.16"/><line class="cls-3" x1="653.55" y1="20.01" x2="356.55" y2="329.16"/><line class="cls-3" x1="659.69" y1="20.01" x2="362.69" y2="329.16"/><line class="cls-3" x1="665.84" y1="20.01" x2="368.84" y2="329.16"/><line class="cls-3" x1="671.98" y1="20.01" x2="374.98" y2="329.16"/><line class="cls-3" x1="678.13" y1="20.01" x2="381.13" y2="329.16"/><line class="cls-3" x1="684.27" y1="20.01" x2="387.27" y2="329.16"/><line class="cls-3" x1="690.42" y1="20.01" x2="393.42" y2="329.16"/><line class="cls-3" x1="696.56" y1="20.01" x2="399.56" y2="329.16"/><line class="cls-3" x1="702.71" y1="20.01" x2="405.71" y2="329.16"/><line class="cls-3" x1="708.85" y1="20.01" x2="411.85" y2="329.16"/><line class="cls-3" x1="715" y1="20.01" x2="418" y2="329.16"/><line class="cls-3" x1="721.14" y1="20.01" x2="424.14" y2="329.16"/><line class="cls-3" x1="727.29" y1="20.01" x2="430.29" y2="329.16"/><line class="cls-3" x1="733.43" y1="20.01" x2="436.43" y2="329.16"/><line class="cls-3" x1="739.58" y1="20.01" x2="442.58" y2="329.16"/><line class="cls-3" x1="745.72" y1="20.01" x2="448.72" y2="329.16"/><line class="cls-3" x1="751.87" y1="20.01" x2="454.86" y2="329.16"/><line class="cls-3" x1="758.01" y1="20.01" x2="461.01" y2="329.16"/><line class="cls-3" x1="764.16" y1="20.01" x2="467.15" y2="329.16"/><line class="cls-3" x1="770.3" y1="20.01" x2="473.3" y2="329.16"/><line class="cls-3" x1="776.45" y1="20.01" x2="479.44" y2="329.16"/><line class="cls-3" x1="782.59" y1="20.01" x2="485.59" y2="329.16"/><line class="cls-3" x1="788.74" y1="20.01" x2="491.73" y2="329.16"/><line class="cls-3" x1="794.88" y1="20.01" x2="497.88" y2="329.16"/><line class="cls-3" x1="801.03" y1="20.01" x2="504.02" y2="329.16"/><line class="cls-3" x1="807.17" y1="20.01" x2="510.17" y2="329.16"/><line class="cls-3" x1="813.32" y1="20.01" x2="516.31" y2="329.16"/><line class="cls-3" x1="819.46" y1="20.01" x2="522.46" y2="329.16"/><line class="cls-3" x1="825.61" y1="20.01" x2="528.6" y2="329.16"/><line class="cls-3" x1="831.75" y1="20.01" x2="534.75" y2="329.16"/><line class="cls-3" x1="837.9" y1="20.01" x2="540.89" y2="329.16"/><line class="cls-3" x1="844.04" y1="20.01" x2="547.04" y2="329.16"/><line class="cls-3" x1="850.18" y1="20.01" x2="553.18" y2="329.16"/><line class="cls-3" x1="856.33" y1="20.01" x2="559.33" y2="329.16"/><line class="cls-3" x1="862.47" y1="20.01" x2="565.47" y2="329.16"/><line class="cls-3" x1="868.62" y1="20.01" x2="571.62" y2="329.16"/><line class="cls-3" x1="874.76" y1="20.01" x2="577.76" y2="329.16"/><line class="cls-3" x1="880.91" y1="20.01" x2="583.91" y2="329.16"/><line class="cls-3" x1="887.05" y1="20.01" x2="590.05" y2="329.16"/><line class="cls-3" x1="893.2" y1="20.01" x2="596.2" y2="329.16"/><line class="cls-3" x1="899.34" y1="20.01" x2="602.34" y2="329.16"/><line class="cls-3" x1="905.49" y1="20.01" x2="608.49" y2="329.16"/><line class="cls-3" x1="911.63" y1="20.01" x2="614.63" y2="329.16"/><line class="cls-3" x1="917.78" y1="20.01" x2="620.78" y2="329.16"/><line class="cls-3" x1="923.92" y1="20.01" x2="626.92" y2="329.16"/><line class="cls-3" x1="930.07" y1="20.01" x2="633.07" y2="329.16"/><line class="cls-3" x1="936.21" y1="20.01" x2="639.21" y2="329.16"/><line class="cls-3" x1="942.36" y1="20.01" x2="645.36" y2="329.16"/><line class="cls-3" x1="948.5" y1="20.01" x2="651.5" y2="329.16"/><line class="cls-3" x1="954.65" y1="20.01" x2="657.65" y2="329.16"/><line class="cls-3" x1="960.79" y1="20.01" x2="663.79" y2="329.16"/><line class="cls-3" x1="966.94" y1="20.01" x2="669.94" y2="329.16"/><line class="cls-3" x1="973.08" y1="20.01" x2="676.08" y2="329.16"/><line class="cls-3" x1="979.23" y1="20.01" x2="682.23" y2="329.16"/><line class="cls-3" x1="985.37" y1="20.01" x2="688.37" y2="329.16"/><line class="cls-3" x1="991.52" y1="20.01" x2="694.51" y2="329.16"/><line class="cls-3" x1="997.66" y1="20.01" x2="700.66" y2="329.16"/><line class="cls-3" x1="1003.81" y1="20.01" x2="706.8" y2="329.16"/><line class="cls-3" x1="1009.95" y1="20.01" x2="712.95" y2="329.16"/><line class="cls-3" x1="1016.1" y1="20.01" x2="719.09" y2="329.16"/><line class="cls-3" x1="1022.24" y1="20.01" x2="725.24" y2="329.16"/><line class="cls-3" x1="1028.39" y1="20.01" x2="731.38" y2="329.16"/><line class="cls-3" x1="1034.53" y1="20.01" x2="737.53" y2="329.16"/><line class="cls-3" x1="1040.68" y1="20.01" x2="743.67" y2="329.16"/><line class="cls-3" x1="1046.82" y1="20.01" x2="749.82" y2="329.16"/><line class="cls-3" x1="1052.97" y1="20.01" x2="755.96" y2="329.16"/><line class="cls-3" x1="1059.11" y1="20.01" x2="762.11" y2="329.16"/><line class="cls-3" x1="1065.26" y1="20.01" x2="768.25" y2="329.16"/><line class="cls-3" x1="1071.4" y1="20.01" x2="774.4" y2="329.16"/><line class="cls-3" x1="1077.55" y1="20.01" x2="780.54" y2="329.16"/><line class="cls-3" x1="1083.69" y1="20.01" x2="786.69" y2="329.16"/><line class="cls-3" x1="1089.84" y1="20.01" x2="792.83" y2="329.16"/><line class="cls-3" x1="1095.98" y1="20.01" x2="798.98" y2="329.16"/><line class="cls-3" x1="1102.12" y1="20.01" x2="805.12" y2="329.16"/><line class="cls-3" x1="1108.27" y1="20.01" x2="811.27" y2="329.16"/><line class="cls-3" x1="1114.41" y1="20.01" x2="817.41" y2="329.16"/><line class="cls-3" x1="1120.56" y1="20.01" x2="823.56" y2="329.16"/><line class="cls-3" x1="1126.7" y1="20.01" x2="829.7" y2="329.16"/><line class="cls-3" x1="1132.85" y1="20.01" x2="835.85" y2="329.16"/><line class="cls-3" x1="1138.99" y1="20.01" x2="841.99" y2="329.16"/><line class="cls-3" x1="1145.14" y1="20.01" x2="848.14" y2="329.16"/><line class="cls-3" x1="1151.28" y1="20.01" x2="854.28" y2="329.16"/><line class="cls-3" x1="1157.43" y1="20.01" x2="860.43" y2="329.16"/><line class="cls-3" x1="1163.57" y1="20.01" x2="866.57" y2="329.16"/><line class="cls-3" x1="1169.72" y1="20.01" x2="872.72" y2="329.16"/><line class="cls-3" x1="1175.86" y1="20.01" x2="878.86" y2="329.16"/><line class="cls-3" x1="1182.01" y1="20.01" x2="885.01" y2="329.16"/><line class="cls-3" x1="1188.15" y1="20.01" x2="891.15" y2="329.16"/><line class="cls-3" x1="1194.3" y1="20.01" x2="897.3" y2="329.16"/><line class="cls-3" x1="1200.44" y1="20.01" x2="903.44" y2="329.16"/><line class="cls-3" x1="1206.59" y1="20.01" x2="909.59" y2="329.16"/><line class="cls-3" x1="1212.73" y1="20.01" x2="915.73" y2="329.16"/><line class="cls-3" x1="1218.88" y1="20.01" x2="921.88" y2="329.16"/><line class="cls-3" x1="1225.02" y1="20.01" x2="928.02" y2="329.16"/><line class="cls-3" x1="1231.17" y1="20.01" x2="934.16" y2="329.16"/><line class="cls-3" x1="1237.31" y1="20.01" x2="940.31" y2="329.16"/><line class="cls-3" x1="1243.46" y1="20.01" x2="946.45" y2="329.16"/><line class="cls-3" x1="1249.6" y1="20.01" x2="952.6" y2="329.16"/><line class="cls-3" x1="1255.75" y1="20.01" x2="958.74" y2="329.16"/><line class="cls-3" x1="1261.89" y1="20.01" x2="964.89" y2="329.16"/><line class="cls-3" x1="1268.04" y1="20.01" x2="971.03" y2="329.16"/><line class="cls-3" x1="1274.18" y1="20.01" x2="977.18" y2="329.16"/><line class="cls-3" x1="1280.33" y1="20.01" x2="983.32" y2="329.16"/><line class="cls-3" x1="1286.47" y1="20.01" x2="989.47" y2="329.16"/><line class="cls-3" x1="1292.62" y1="20.01" x2="995.61" y2="329.16"/><line class="cls-3" x1="1298.76" y1="20.01" x2="1001.76" y2="329.16"/><line class="cls-3" x1="1304.91" y1="20.01" x2="1007.9" y2="329.16"/><line class="cls-3" x1="1311.05" y1="20.01" x2="1014.05" y2="329.16"/><line class="cls-3" x1="1317.2" y1="20.01" x2="1020.19" y2="329.16"/><line class="cls-3" x1="1323.34" y1="20.01" x2="1026.34" y2="329.16"/><line class="cls-3" x1="1329.49" y1="20.01" x2="1032.48" y2="329.16"/></g></g></g></svg>