<svg xmlns="http://www.w3.org/2000/svg" xmlns:xlink="http://www.w3.org/1999/xlink" width="126px" height="40px" viewBox="0 0 126 40" version="1.1">
    <!-- Generator: Sketch 63 (92445) - https://sketch.com -->
    <title>app_store_fr</title>
    <desc>Created with Sketch.</desc>
    <g id="Page-1" stroke="none" stroke-width="1" fill="none" fill-rule="evenodd">
        <g id="app_store_fr">
            <g id="Group"/>
            <g id="Group" transform="translate(9.000000, 8.000000)" fill="#FFFFFF" fill-rule="nonzero">
                <g id="_Group_">
                    <g id="_Group_2">
                        <g id="_Group_3">
                            <path d="M15.7718,12.30068 C15.793657,10.6042091 16.6830429,9.03718611 18.12836,8.14862 C17.2124326,6.84051277 15.733312,6.04087835 14.1372,5.99094 C12.45796,5.81468 10.83001,6.99577 9.9743,6.99577 C9.10203,6.99577 7.78453,6.00844 6.3658,6.03763 C4.49912126,6.09793842 2.80105717,7.13352548 1.89288,8.7655 C-0.04112,12.11392 1.40147,17.03497 3.25408,19.74158 C4.18098,21.06693 5.26426,22.54738 6.68171,22.49488 C8.06877,22.43735 8.58681,21.6104 10.26111,21.6104 C11.91987,21.6104 12.4059,22.49488 13.85211,22.4615 C15.34049,22.43734 16.27824,21.13026 17.17262,19.79236 C17.8385821,18.8479971 18.351036,17.8042735 18.691,16.69985 C16.9232722,15.952169 15.7738564,14.2200247 15.7718,12.30068 Z" id="_Path_"/>
                            <path d="M13.04017,4.21089 C13.8516966,3.23668191 14.251505,1.98450245 14.15469,0.72027 C12.9148578,0.850490487 11.7696002,1.44304968 10.94711,2.37988 C10.1349387,3.30418903 9.72349463,4.51343268 9.8034,5.74127 C11.0598568,5.75420677 12.2528361,5.19015322 13.04017,4.21089 Z" id="_Path_2"/>
                        </g>
                    </g>
                </g>
                <g id="_Group_4" transform="translate(24.000000, 0.000000)">
                    <g id="Group">
                        <polygon id="Path" points="2.65528 6.70166 2.65528 1.57813 0.77828 1.57813 0.77828 0.73486 5.45504 0.73486 5.45504 1.57812 3.582 1.57812 3.582 6.70166"/>
                        <path d="M9.76466,5.48584 C9.51546704,6.33521948 8.6935089,6.88401304 7.81349,6.78857 C7.21305192,6.80442066 6.6359975,6.55553983 6.23543394,6.10796194 C5.83487039,5.66038405 5.65129317,5.05935753 5.73341,4.46435 C5.65347739,3.86769048 5.83636823,3.26570373 6.23470084,2.81434696 C6.63303345,2.36299018 7.20761201,2.10667675 7.80958,2.11181 C9.06251,2.11181 9.81837,2.96781 9.81837,4.38181 L9.81837,4.69187 L6.63868,4.69187 L6.63868,4.74167 C6.61054202,5.07581014 6.72466073,5.40631775 6.95297079,5.6519107 C7.18128085,5.89750365 7.50259788,6.03539392 7.8379,6.03167 C8.27267185,6.08386468 8.69589251,5.86820304 8.90919,5.48577 L9.76466,5.48584 Z M6.63866,4.03467 L8.9131,4.03467 C8.9357529,3.72907044 8.82829846,3.42811507 8.61721693,3.20596909 C8.4061354,2.98382311 8.11105749,2.86114623 7.8047,2.86817 C7.49418683,2.86426075 7.19525499,2.98591948 6.97571681,3.20554803 C6.75617864,3.42517658 6.63464296,3.72415847 6.63868,4.03467 L6.63866,4.03467 Z M7.2754,1.4458 L8.31349,0.02344 L9.35549,0.02344 L8.19337,1.4458 L7.2754,1.4458 Z" id="Shape"/>
                        <polygon id="Path" points="11.05274 0.44092 11.94141 0.44092 11.94141 6.70166 11.05274 6.70166"/>
                        <path d="M17.208,5.48584 C16.958807,6.33521948 16.1368489,6.88401304 15.25683,6.78857 C14.6563919,6.80442066 14.0793375,6.55553983 13.6787739,6.10796194 C13.2782104,5.66038405 13.0946332,5.05935753 13.17675,4.46435 C13.0968174,3.86769048 13.2797082,3.26570373 13.6780408,2.81434696 C14.0763734,2.36299018 14.650952,2.10667675 15.25292,2.11181 C16.50585,2.11181 17.26171,2.96781 17.26171,4.38181 L17.26171,4.69187 L14.082,4.69187 L14.082,4.74167 C14.053862,5.07581014 14.1679807,5.40631775 14.3962908,5.6519107 C14.6246009,5.89750365 14.9459179,6.03539392 15.28122,6.03167 C15.7159919,6.08386468 16.1392125,5.86820304 16.35251,5.48577 L17.208,5.48584 Z M14.082,4.03467 L16.35641,4.03467 C16.3790629,3.72907044 16.2716085,3.42811507 16.0605269,3.20596909 C15.8494454,2.98382311 15.5543675,2.86114623 15.24801,2.86817 C14.9374986,2.86426347 14.6385693,2.9859234 14.4190333,3.20555165 C14.1994973,3.42517989 14.077963,3.72416022 14.082,4.03467 L14.082,4.03467 Z M14.71872,1.4458 L15.75681,0.02344 L16.79881,0.02344 L15.63673,1.4458 L14.71872,1.4458 Z" id="Shape"/>
                        <path d="M21.40333,3.67041 C21.2862526,3.18791177 20.834514,2.86310837 20.33985,2.90576 C19.59571,2.90576 19.14063,3.47607 19.14063,4.43555 C19.14063,5.41162 19.59963,5.99463 20.33985,5.99463 C20.8303094,6.05145529 21.2862948,5.73406892 21.40333,5.2544 L22.26759,5.2544 C22.1487297,6.20261457 21.2956755,6.88323896 20.34474,6.78858 C19.7352891,6.80782282 19.148412,6.55711197 18.7409787,6.10346142 C18.3335454,5.64981088 18.1470932,5.03946987 18.23146,4.43558 C18.1513399,3.83615327 18.3395773,3.23189355 18.7459503,2.78401787 C19.1523233,2.33614219 19.7354896,2.09021504 20.33986,2.11185 C21.2985026,2.02355018 22.1531758,2.71456247 22.26759,3.67044 L21.40333,3.67041 Z" id="Path"/>
                        <path d="M23.44728,0.44092 L24.32814,0.44092 L24.32814,2.92237 L24.39845,2.92237 C24.6404778,2.39108856 25.1895501,2.06850754 25.77145,2.11573 C26.2127466,2.09171728 26.6417683,2.26572371 26.9416593,2.59035385 C27.2415502,2.91498399 27.3810749,3.35642564 27.32223,3.79444 L27.32223,6.70167 L26.43258,6.70167 L26.43258,4.01367 C26.43258,3.29443 26.09758,2.93017 25.46969,2.93017 C25.160519,2.90481367 24.8559191,3.01721096 24.6373223,3.2373135 C24.4187256,3.45741605 24.3084219,3.76278031 24.3359,4.07177 L24.3359,6.70167 L23.44723,6.70167 L23.44728,0.44092 Z" id="Path"/>
                        <path d="M28.43946,5.42822 C28.43946,4.61767 29.04298,4.15039 30.11426,4.08398 L31.33399,4.01367 L31.33399,3.625 C31.33399,3.14941 31.01954,2.88086 30.41211,2.88086 C29.91602,2.88086 29.57227,3.06299 29.47363,3.38135 L28.61328,3.38135 C28.7041,2.60791 29.43164,2.11182 30.45312,2.11182 C31.58203,2.11182 32.21826,2.67382 32.21826,3.625 L32.21826,6.70166 L31.36326,6.70166 L31.36326,6.06885 L31.293,6.06885 C31.0024486,6.53097633 30.4857536,6.80106323 29.94046,6.77585 C29.5581929,6.81561786 29.1769424,6.69181945 28.8909625,6.43506054 C28.6049826,6.17830164 28.4409655,5.81254718 28.43946,5.42822 Z M31.334,5.04345 L31.334,4.667 L30.23438,4.73731 C29.61426,4.77881 29.33301,4.98975 29.33301,5.38672 C29.33301,5.79199 29.68457,6.02783 30.16801,6.02783 C30.4541977,6.05680275 30.7398906,5.96838925 30.9596869,5.78282949 C31.1794831,5.59726972 31.3145617,5.33045298 31.334,5.04346 L31.334,5.04345 Z" id="Shape"/>
                        <path d="M33.60987,2.19873 L34.46534,2.19873 L34.46534,2.88916 L34.53175,2.88916 C34.728224,2.39744827 35.2192558,2.08843208 35.74757,2.12402 C35.8806746,2.1222305 36.0135894,2.13467114 36.14405,2.16113 L36.14405,3.03813 C35.9809629,3.00328173 35.8147265,2.98528387 35.64796,2.98442 C35.351574,2.95780374 35.0577299,3.05758699 34.8388391,3.25918036 C34.6199483,3.46077373 34.4963673,3.74542932 34.49855,4.043 L34.49855,6.70169 L33.60987,6.70169 L33.60987,2.19873 Z" id="Path"/>
                        <path d="M36.96144,7.15234 L37.87062,7.15234 C37.94582,7.479 38.32179,7.68994 38.9214,7.68994 C39.66163,7.68994 40.10011,7.33838 40.10011,6.74316 L40.10011,5.8789 L40.0337,5.8789 C39.7494847,6.37219156 39.2126143,6.66439601 38.64405,6.63525 C37.49464,6.63525 36.7837,5.74658 36.7837,4.39843 C36.7837,3.02543 37.50245,2.12402 38.65284,2.12402 C39.2355,2.10373016 39.7808745,2.40994072 40.0669,2.91797 L40.13721,2.91797 L40.13721,2.19873 L40.98877,2.19873 L40.98877,6.73873 C40.98877,7.76852 40.18213,8.42184 38.90869,8.42184 C37.7837,8.42184 37.05616,7.91748 36.96144,7.15234 Z M40.11671,4.39404 C40.11671,3.49704 39.65284,2.92236 38.89601,2.92236 C38.13136,2.92236 37.70167,3.49707 37.70167,4.39404 C37.70167,5.2915 38.13136,5.86621 38.89601,5.86621 C39.65773,5.86621 40.11671,5.2959 40.11671,4.394 L40.11671,4.39404 Z" id="Shape"/>
                        <path d="M46.21241,5.48584 C45.963217,6.33521948 45.1412589,6.88401304 44.26124,6.78857 C43.6608019,6.80442066 43.0837475,6.55553983 42.6831839,6.10796194 C42.2826204,5.66038405 42.0990432,5.05935753 42.18116,4.46435 C42.1012274,3.86769048 42.2841182,3.26570373 42.6824508,2.81434696 C43.0807834,2.36299018 43.655362,2.10667675 44.25733,2.11181 C45.51026,2.11181 46.26612,2.96781 46.26612,4.38181 L46.26612,4.69187 L43.08644,4.69187 L43.08644,4.74167 C43.058302,5.07581014 43.1724207,5.40631775 43.4007308,5.6519107 C43.6290409,5.89750365 43.9503579,6.03539392 44.28566,6.03167 C44.7204319,6.08386468 45.1436525,5.86820304 45.35695,5.48577 L46.21241,5.48584 Z M43.08641,4.03467 L45.36082,4.03467 C45.3834729,3.72907044 45.2760185,3.42811507 45.0649369,3.20596909 C44.8538554,2.98382311 44.5587775,2.86114623 44.25242,2.86817 C43.9419137,2.86427163 43.6429923,2.98593516 43.4234629,3.2055625 C43.2039334,3.42518985 43.0824032,3.72416549 43.08644,4.03467 L43.08641,4.03467 Z" id="Shape"/>
                        <path d="M47.45948,2.19873 L48.315,2.19873 L48.315,2.88916 L48.38141,2.88916 C48.577884,2.39744827 49.0689158,2.08843208 49.59723,2.12402 C49.7303346,2.1222305 49.8632494,2.13467114 49.99371,2.16113 L49.99371,3.03813 C49.8306229,3.00328173 49.6643865,2.98528387 49.49762,2.98442 C49.2012241,2.95778578 48.9073637,3.05756095 48.6884592,3.25915637 C48.4695548,3.4607518 48.3459657,3.74541789 48.34815,4.043 L48.34815,6.70169 L47.45948,6.70169 L47.45948,2.19873 Z" id="Path"/>
                        <path d="M53.19581,4.44824 C53.19581,3.02539 53.92726,2.12402 55.06495,2.12402 C55.6394268,2.09755013 56.1774775,2.40537287 56.44581,2.91402 L56.51222,2.91402 L56.51222,0.44092 L57.40089,0.44092 L57.40089,6.70166 L56.54933,6.70166 L56.54933,5.99023 L56.479,5.99023 C56.1903842,6.49465698 55.6457045,6.79727648 55.06494,6.77587 C53.91944,6.77588 53.19581,5.87451 53.19581,4.44824 Z M54.11381,4.44824 C54.11381,5.40332 54.56401,5.97803 55.31694,5.97803 C56.06594,5.97803 56.52885,5.39503 56.52885,4.45215 C56.52885,3.51367 56.06108,2.92236 55.31694,2.92236 C54.56886,2.92236 54.11378,3.501 54.11378,4.44824 L54.11381,4.44824 Z" id="Shape"/>
                        <path d="M58.60206,5.42822 C58.60206,4.61767 59.20558,4.15039 60.27686,4.08398 L61.49659,4.01367 L61.49659,3.625 C61.49659,3.14941 61.18214,2.88086 60.57472,2.88086 C60.07863,2.88086 59.73488,3.06299 59.63624,3.38135 L58.77589,3.38135 C58.86671,2.60791 59.59425,2.11182 60.61573,2.11182 C61.74464,2.11182 62.38136,2.67382 62.38136,3.625 L62.38136,6.70166 L61.52589,6.70166 L61.52589,6.06885 L61.45558,6.06885 C61.1650286,6.53097633 60.6483336,6.80106323 60.10304,6.77585 C59.7207761,6.81561181 59.3395311,6.69181066 59.0535558,6.43505244 C58.7675805,6.17829423 58.6035661,5.81254331 58.60206,5.42822 L58.60206,5.42822 Z M61.49659,5.04345 L61.49659,4.667 L60.397,4.7373 C59.77688,4.7788 59.49563,4.98974 59.49563,5.38671 C59.49563,5.79198 59.84719,6.02782 60.33063,6.02782 C60.6168112,6.05678412 60.9024948,5.96836801 61.122284,5.78281129 C61.3420732,5.59725456 61.4771487,5.33044543 61.49659,5.04346 L61.49659,5.04345 Z" id="Shape"/>
                        <path d="M63.773,2.19873 L64.62847,2.19873 L64.62847,2.91406 L64.69488,2.91406 C64.9258149,2.38738794 65.4654429,2.06521747 66.03863,2.11181 C66.4824468,2.07844177 66.9173559,2.2486999 67.2205608,2.57451207 C67.5237657,2.90032424 67.6623631,3.34633376 67.59722,3.78661 L67.59722,6.70161 L66.70855,6.70161 L66.70855,4.00977 C66.70855,3.28614 66.3941,2.92627 65.73687,2.92627 C65.4358358,2.91224912 65.1436902,3.03039257 64.9370246,3.24972678 C64.730359,3.469061 64.629785,3.76771101 64.66167,4.06738 L64.66167,6.70166 L63.773,6.70166 L63.773,2.19873 Z" id="Path"/>
                        <path d="M70.61769,2.11182 C71.63039,2.11182 72.29249,2.58301 72.37941,3.37696 L71.52687,3.37696 C71.44487,3.04639 71.1216,2.83546 70.61769,2.83546 C70.1216,2.83546 69.74469,3.07081 69.74469,3.42237 C69.74469,3.69137 69.97223,3.86085 70.46051,3.97266 L71.20851,4.146 C72.06496,4.34473 72.46632,4.71289 72.46632,5.37452 C72.46632,6.22218 71.67632,6.78858 70.60109,6.78858 C69.5298,6.78858 68.83156,6.30469 68.75246,5.50684 L69.64211,5.50684 C69.799892,5.89767623 70.2045572,6.12986019 70.6216,6.06884 C71.17531,6.06884 71.56887,5.82084 71.56887,5.46093 C71.56887,5.19238 71.35793,5.01855 70.90676,4.91113 L70.1216,4.729 C69.26515,4.52636 68.86867,4.14209 68.86867,3.47216 C68.86866,2.67383 69.60011,2.11182 70.61769,2.11182 Z" id="Path"/>
                    </g>
                </g>
            </g>
            <g id="Group" transform="translate(35.000000, 17.000000)" fill="#FFFFFF" fill-rule="nonzero">
                <polygon id="Path" points="0.19825 1.06689 2.05763 1.06689 2.05763 13.48535 0.19825 13.48535"/>
                <polygon id="Path" points="4.29786 5.61084 5.31349 1.06689 7.12013 1.06689 5.88966 5.61084"/>
                <path d="M14.14649,10.12891 L9.4131,10.12891 L8.27638,13.48536 L6.27149,13.48536 L10.75489,1.0669 L12.83789,1.0669 L17.32129,13.48536 L15.28224,13.48536 L14.14649,10.12891 Z M9.90333,8.58008 L13.65533,8.58008 L11.80572,3.13233 L11.75396,3.13233 L9.90333,8.58008 Z" id="Shape"/>
                <path d="M27.00294,8.959 C27.00294,11.77248 25.49708,13.58009 23.22462,13.58009 C22.0500053,13.6415346 20.9435824,13.0263007 20.37599,11.99609 L20.33299,11.99609 L20.33299,16.48047 L18.47459,16.48047 L18.47459,4.43115 L20.27342,4.43115 L20.27342,5.937 L20.3076,5.937 C20.9004083,4.91324792 22.0080243,4.29827884 23.19041,4.33641 C25.48829,4.33643 27.00294,6.15283 27.00294,8.959 Z M25.09278,8.959 C25.09278,7.1255 24.14551,5.92043 22.7002,5.92043 C21.28028,5.92043 20.3252,7.1509 20.3252,8.959 C20.3252,10.78322 21.28028,12.0049 22.7002,12.0049 C24.14552,12.0049 25.09278,10.80859 25.09278,8.959 L25.09278,8.959 Z" id="Shape"/>
                <path d="M36.9673,8.959 C36.9673,11.77248 35.46144,13.58009 33.18898,13.58009 C32.0143653,13.6415346 30.9079424,13.0263007 30.34035,11.99609 L30.29735,11.99609 L30.29735,16.48047 L28.43946,16.48047 L28.43946,4.43115 L30.2378,4.43115 L30.2378,5.937 L30.272,5.937 C30.8648083,4.91324792 31.9724243,4.29827884 33.15481,4.33641 C35.45265,4.33643 36.9673,6.15283 36.9673,8.959 Z M35.05714,8.959 C35.05714,7.1255 34.10987,5.92043 32.66456,5.92043 C31.24464,5.92043 30.28956,7.1509 30.28956,8.959 C30.28956,10.78322 31.24464,12.0049 32.66456,12.0049 C34.10987,12.0049 35.05714,10.80859 35.05714,8.959 L35.05714,8.959 Z" id="Shape"/>
                <path d="M43.55323,10.02539 C43.69093,11.25684 44.88723,12.06539 46.52198,12.06539 C48.08839,12.06539 49.21534,11.2568 49.21534,10.14644 C49.21534,9.18257 48.53565,8.60544 46.92628,8.20992 L45.31691,7.82174 C43.03663,7.271 41.978,6.20459 41.978,4.47412 C41.978,2.33154 43.84519,0.85986 46.49655,0.85986 C49.12055,0.85986 50.9194,2.33154 50.97995,4.47412 L49.104,4.47412 C48.9917,3.23486 47.96728,2.48682 46.47021,2.48682 C44.97314,2.48682 43.94873,3.24366 43.94873,4.34522 C43.94873,5.22315 44.60303,5.73975 46.20361,6.13522 L47.57177,6.47116 C50.11962,7.0737 51.17822,8.09762 51.17822,9.91403 C51.17822,12.23727 49.32763,13.69235 46.38427,13.69235 C43.63036,13.69235 41.77099,12.27145 41.65087,10.02535 L43.55323,10.02539 Z" id="Path"/>
                <path d="M55.19,2.28857 L55.19,4.43115 L56.91168,4.43115 L56.91168,5.90283 L55.19,5.90283 L55.19,10.89453 C55.19,11.66992 55.53473,12.03125 56.29156,12.03125 C56.4959514,12.0276859 56.7000121,12.0133326 56.90289,11.98825 L56.90289,13.45114 C56.5626183,13.5147196 56.2167608,13.5435145 55.87066,13.53708 C54.03766,13.53708 53.32281,12.8486 53.32281,11.09274 L53.32281,5.90283 L52.00636,5.90283 L52.00636,4.43115 L53.32277,4.43115 L53.32277,2.28857 L55.19,2.28857 Z" id="Path"/>
                <path d="M57.90773,8.959 C57.90773,6.10988 59.58546,4.31984 62.20168,4.31984 C64.82668,4.31984 66.4966,6.10984 66.4966,8.959 C66.4966,11.81545 64.83547,13.59767 62.20168,13.59767 C59.56886,13.59767 57.90773,11.81543 57.90773,8.959 Z M64.60304,8.959 C64.60304,7.00441 63.70753,5.85109 62.20167,5.85109 C60.69581,5.85109 59.80128,7.0132 59.80128,8.959 C59.80128,10.92091 60.69581,12.06545 62.20167,12.06545 C63.70753,12.06545 64.60304,10.9209 64.60304,8.959 L64.60304,8.959 Z" id="Shape"/>
                <path d="M68.02881,4.43115 L69.80128,4.43115 L69.80128,5.97215 L69.84428,5.97215 C70.091456,4.98013841 71.0004126,4.29740156 72.02201,4.33641 C72.236174,4.33566223 72.4497472,4.35892075 72.65873,4.40575 L72.65873,6.144 C72.388361,6.06138332 72.1063196,6.02345129 71.82373,6.0317 C71.277297,6.00956998 70.7484904,6.22739207 70.3761745,6.62796632 C70.0038587,7.02854056 69.825235,7.571842 69.88721,8.1152 L69.88721,13.48532 L68.02881,13.48532 L68.02881,4.43115 Z" id="Path"/>
                <path d="M81.22608,10.82617 C80.97608,12.46972 79.37549,13.59765 77.32764,13.59765 C74.69385,13.59765 73.05909,11.833 73.05909,9.00195 C73.05909,6.16162 74.70264,4.31982 77.24952,4.31982 C79.7544,4.31982 81.3296,6.04052 81.3296,8.78613 L81.3296,9.42285 L74.93507,9.42285 L74.93507,9.53515 C74.8753674,10.2091816 75.1081116,10.8763794 75.5740999,11.3670299 C76.0400883,11.8576804 76.6944075,12.1244933 77.37062,12.0996 C78.2724623,12.1840996 79.1227231,11.6662377 79.46144,10.82616 L81.22608,10.82617 Z M74.9438515,8.124 L79.47023,8.124 C79.5040543,7.51826627 79.2836343,6.92588526 78.8620811,6.48959372 C78.4405279,6.05330217 77.8560681,5.81266327 77.24953,5.82566 C76.6381997,5.82204912 76.0507573,6.06279937 75.6177863,6.4943939 C75.1848153,6.92598842 74.9421957,7.51266135 74.9438515,8.124 Z" id="Shape"/>
            </g>
        </g>
    </g>
</svg>