<svg xmlns="http://www.w3.org/2000/svg" xmlns:xlink="http://www.w3.org/1999/xlink" width="136px" height="40px" viewBox="0 0 136 40" version="1.1">
    <!-- Generator: Sketch 63 (92445) - https://sketch.com -->
    <title>google_play_fr</title>
    <desc>Created with Sketch.</desc>
    <defs>
        <linearGradient x1="61.0453132%" y1="4.94615078%" x2="26.512955%" y2="71.8787395%" id="linearGradient-1">
            <stop stop-color="#00A0FF" offset="0%"/>
            <stop stop-color="#00A1FF" offset="1%"/>
            <stop stop-color="#00BEFF" offset="26%"/>
            <stop stop-color="#00D2FF" offset="51%"/>
            <stop stop-color="#00DFFF" offset="76%"/>
            <stop stop-color="#00E3FF" offset="100%"/>
        </linearGradient>
        <linearGradient x1="107.684729%" y1="50%" x2="-130.640394%" y2="50%" id="linearGradient-2">
            <stop stop-color="#FFE000" offset="0%"/>
            <stop stop-color="#FFBD00" offset="41%"/>
            <stop stop-color="#FFA500" offset="78%"/>
            <stop stop-color="#FF9C00" offset="100%"/>
        </linearGradient>
        <linearGradient x1="86.2709832%" y1="30.8725537%" x2="-50.1798561%" y2="136.108936%" id="linearGradient-3">
            <stop stop-color="#FF3A44" offset="0%"/>
            <stop stop-color="#C31162" offset="100%"/>
        </linearGradient>
        <linearGradient x1="-18.82494%" y1="-11.9103989%" x2="42.0863309%" y2="35.0790955%" id="linearGradient-4">
            <stop stop-color="#32A071" offset="0%"/>
            <stop stop-color="#2DA771" offset="7%"/>
            <stop stop-color="#15CF74" offset="48%"/>
            <stop stop-color="#06E775" offset="80%"/>
            <stop stop-color="#00F076" offset="100%"/>
        </linearGradient>
    </defs>
    <g id="Page-1" stroke="none" stroke-width="1" fill="none" fill-rule="evenodd">
        <g id="google_play_fr" fill-rule="nonzero">
            <g id="Group-2" transform="translate(9.767131, 7.200000)">
                <path d="M58.3728685,14.8817962 C56.020145,14.8873255 54.117367,16.7990648 54.1228681,19.1517883 C54.1284169,21.5045118 56.0401528,23.4072934 58.3928763,23.4017966 C60.7455998,23.396252 62.6483848,21.4845197 62.6428685,19.1317962 C62.6593415,17.99617 62.2141001,16.9025059 61.4091236,16.1012999 C60.6041472,15.3000938 59.5084049,14.8599918 58.3728685,14.8817962 L58.3728685,14.8817962 Z M58.3728685,21.7117962 C57.3160958,21.7857015 56.3215415,21.2061097 55.8648898,20.2502333 C55.4082382,19.2943569 55.5823043,18.156479 56.3038344,17.3808342 C57.0253644,16.6051894 58.1477064,16.3494286 59.1340563,16.7358793 C60.1204063,17.12233 60.7702874,18.0724456 60.7728685,19.1317962 C60.8054113,19.7944681 60.5689012,20.442189 60.1170088,20.9279733 C59.6651165,21.4137575 59.0361606,21.6964126 58.3728685,21.7117962 L58.3728685,21.7117962 Z M49.0528685,14.8817962 C46.700145,14.8873255 44.797367,16.7990648 44.8028681,19.1517883 C44.8084169,21.5045118 46.7201528,23.4072934 49.0728763,23.4017966 C51.4255998,23.396252 53.3283848,21.4845197 53.3228685,19.1317962 C53.3393415,17.99617 52.8941001,16.9025059 52.0891236,16.1012999 C51.2841472,15.3000938 50.1884049,14.8599918 49.0528685,14.8817962 L49.0528685,14.8817962 Z M49.0528685,21.7117962 C47.9960958,21.7857015 47.0015415,21.2061097 46.5448898,20.2502333 C46.0882382,19.2943569 46.2623043,18.156479 46.9838344,17.3808342 C47.7053644,16.6051894 48.8277064,16.3494286 49.8140563,16.7358793 C50.8004063,17.12233 51.4502874,18.0724456 51.4528685,19.1317962 C51.4854113,19.7944681 51.2489012,20.442189 50.7970088,20.9279733 C50.3451165,21.4137575 49.7161606,21.6964126 49.0528685,21.7117962 L49.0528685,21.7117962 Z M37.9728685,16.1917962 L37.9728685,17.9917962 L42.2928685,17.9917962 C42.2251319,18.8396 41.8727131,19.6395907 41.2928685,20.2617962 C40.4165203,21.1546587 39.202841,21.6343164 37.9528685,21.5817962 C35.3019017,21.5817962 33.1528685,19.432763 33.1528685,16.7817962 C33.1528685,14.1308294 35.3019017,11.9817962 37.9528685,11.9817962 C39.1733161,11.963646 40.3517639,12.4271209 41.2328685,13.2717962 L42.5028685,12.0017962 C41.2988492,10.8109504 39.666107,10.1549701 37.9728685,10.1817962 C35.5518293,10.0875752 33.2732621,11.325468 32.0347225,13.4078533 C30.796183,15.4902385 30.796183,18.0833539 32.0347225,20.1657391 C33.2732621,22.2481244 35.5518293,23.4860172 37.9728685,23.3917962 C39.7030672,23.4609008 41.380416,22.7877782 42.5828685,21.5417962 C43.632987,20.3882063 44.1925316,18.8709794 44.1428685,17.3117962 C44.1464478,16.9365217 44.1163269,16.5616837 44.0528685,16.1917962 L37.9728685,16.1917962 Z M83.2828685,17.5917962 C82.7489481,16.0210063 81.3007963,14.9428492 79.6428685,14.8817809 C78.537232,14.8796345 77.4800136,15.3352038 76.7222479,16.1403298 C75.9644823,16.9454558 75.573764,18.0283193 75.6428685,19.1317962 C75.6253092,21.0066156 76.8439915,22.6692949 78.6371284,23.2169411 C80.4302653,23.7645872 82.369951,23.0665127 83.4028685,21.5017962 L81.9528685,20.5017962 C81.5130355,21.2348902 80.7177433,21.6801016 79.8628685,21.6717962 C78.9757035,21.7084259 78.157281,21.1959186 77.8028685,20.3817809 L83.4928685,18.0317962 L83.2828685,17.5917962 Z M77.4828685,19.0117962 C77.4419256,18.3843078 77.6552554,17.7667472 78.074771,17.2983194 C78.4942867,16.8298916 79.0846796,16.5500219 79.7128685,16.5217962 C80.3716344,16.4815855 80.9903177,16.8401854 81.2828685,17.4317962 L77.4828685,19.0117962 Z M72.8628685,23.1317962 L74.7328685,23.1317962 L74.7328685,10.6317962 L72.8628685,10.6317962 L72.8628685,23.1317962 Z M69.8028685,15.8317962 L69.7328685,15.8317962 C69.1675751,15.1880035 68.3495745,14.8228247 67.4928685,14.8317962 C65.2230154,14.9418679 63.4392056,16.8142758 63.4392056,19.0867962 C63.4392056,21.3593166 65.2230154,23.2317245 67.4928685,23.3417962 C68.3512661,23.3590149 69.1725856,22.9923544 69.7328685,22.3417962 L69.8028685,22.3417962 L69.8028685,22.9517962 C69.8028685,24.5817962 68.9328685,25.4517962 67.5328685,25.4517962 C66.5763831,25.4307838 65.7272177,24.8343932 65.3828685,23.9417962 L63.7628685,24.6117962 C64.3760178,26.1517857 65.8754536,27.1540611 67.5328685,27.1317962 C69.7228685,27.1317962 71.5328685,25.8417962 71.5328685,22.7017962 L71.5328685,15.1317962 L69.8028685,15.1317962 L69.8028685,15.8317962 Z M67.6528685,21.7117962 C66.2929551,21.6270084 65.2334144,20.4993502 65.2334144,19.1367962 C65.2334144,17.7742422 66.2929551,16.646584 67.6528685,16.5617962 C68.2998889,16.589718 68.9078791,16.8790172 69.337668,17.3634722 C69.7674568,17.8479271 69.9822456,18.4860587 69.9328685,19.1317962 C69.9880033,19.7798456 69.775526,20.4222273 69.3448388,20.9095839 C68.9141516,21.3969405 68.3027789,21.68681 67.6528685,21.7117962 L67.6528685,21.7117962 Z M92.0428685,10.6317962 L87.5628685,10.6317962 L87.5628685,23.1317962 L89.4328685,23.1317962 L89.4328685,18.3917962 L92.0428685,18.3917962 C93.4955525,18.49616 94.8848425,17.7803052 95.6429985,16.5367692 C96.4011545,15.2932332 96.4011545,13.7303592 95.6429985,12.4868232 C94.8848425,11.2432872 93.4955525,10.5274324 92.0428685,10.6317962 L92.0428685,10.6317962 Z M92.0428685,16.6317962 L89.4328685,16.6317962 L89.4328685,12.3717962 L92.0828685,12.3717962 C92.8474165,12.3717962 93.5538885,12.7796779 93.9361625,13.4417962 C94.3184375,14.1039145 94.3184375,14.9196779 93.9361625,15.5817962 C93.5538885,16.2439145 92.8474165,16.6517962 92.0828685,16.6517962 L92.0428685,16.6317962 Z M103.582869,14.8417962 C102.190958,14.7559709 100.881571,15.5070004 100.252869,16.7517962 L101.902869,17.4417962 C102.243472,16.8277192 102.91327,16.4712768 103.612869,16.5317962 C104.092397,16.4757908 104.574323,16.6147663 104.950397,16.9175064 C105.326472,17.2202465 105.565168,17.6613711 105.612869,18.1417962 L105.612869,18.2617962 C105.011532,17.945713 104.342217,17.7809585 103.662869,17.7817962 C101.882869,17.7817962 100.062869,18.7817962 100.062869,20.6017962 C100.098438,21.3833775 100.449378,22.1171411 101.035493,22.6354104 C101.621609,23.1536797 102.392811,23.4121642 103.172869,23.3517962 C104.128281,23.4046441 105.03798,22.9383279 105.552869,22.1317962 L105.612869,22.1317962 L105.612869,23.1317962 L107.412869,23.1317962 L107.412869,18.3217962 C107.412869,16.1317962 105.752869,14.8617962 103.622869,14.8617962 L103.582869,14.8417962 Z M103.352869,21.6917962 C102.742869,21.6917962 101.892869,21.3817962 101.892869,20.6317962 C101.892869,19.6317962 102.952869,19.2917962 103.892869,19.2917962 C104.486911,19.2771381 105.074,19.4221836 105.592869,19.7117962 C105.463026,20.8349005 104.523229,21.6892613 103.392869,21.7117962 L103.352869,21.6917962 Z M113.972869,15.1317962 L111.832869,20.5517962 L111.772869,20.5517962 L109.552869,15.1317962 L107.552869,15.1317962 L110.882869,22.7117962 L108.982869,26.9217962 L110.932869,26.9217962 L116.052869,15.1317962 L113.972869,15.1317962 Z M97.1728685,23.1317962 L99.0328685,23.1317962 L99.0328685,10.6317962 L97.1728685,10.6317962 L97.1728685,23.1317962 Z" id="Shape" fill="#FFFFFF"/>
                <path d="M0.672868514,0.67179619 C0.343337914,1.06141568 0.175197594,1.56225903 0.202868514,2.07179619 L0.202868514,24.1917962 C0.168842484,24.7021754 0.337762014,25.20534 0.672868514,25.5917962 L0.742868514,25.6717962 L13.1328685,13.2817962 L13.1328685,12.9817962 L0.742868514,0.60179619 L0.672868514,0.67179619 Z" id="Path" fill="url(#linearGradient-1)"/>
                <path d="M17.2328685,17.4117962 L13.1328685,13.2817962 L13.1328685,12.9817962 L17.2328685,8.85179619 L17.3228685,8.91179619 L22.2328685,11.6917962 C23.6328685,12.4817962 23.6328685,13.7817962 22.2328685,14.5817962 L17.3428685,17.3617962 L17.2328685,17.4117962 Z" id="Path" fill="url(#linearGradient-2)"/>
                <path d="M17.3528685,17.3517962 L13.1328685,13.1317962 L0.672868514,25.5917962 C1.25590111,26.110767 2.12610851,26.1401943 2.74286851,25.6617962 L17.3528685,17.3517962" id="Path" fill="url(#linearGradient-3)"/>
                <path d="M17.3528685,8.91179619 L2.74286851,0.61179619 C2.12983311,0.12651769 1.25676621,0.15182398 0.672868514,0.67179619 L13.1328685,13.1317962 L17.3528685,8.91179619 Z" id="Path" fill="url(#linearGradient-4)"/>
                <path d="M17.2328685,17.2617962 L2.74286851,25.5117962 C2.15102271,25.9584754 1.33471431,25.9584754 0.742868514,25.5117962 L0.742868514,25.5117962 L0.672868514,25.5817962 L0.672868514,25.5817962 L0.742868514,25.6617962 L0.742868514,25.6617962 C1.33471431,26.1084754 2.15102271,26.1084754 2.74286851,25.6617962 L17.3528685,17.3517962 L17.2328685,17.2617962 Z" id="Path" fill="#000000" opacity="0.2"/>
                <path d="M0.672868514,25.4517962 C0.351662614,25.0551561 0.194250434,24.5507218 0.232868514,24.0417962 L0.232868514,24.1917962 C0.198842484,24.7021754 0.367762014,25.20534 0.702868514,25.5917962 L0.772868514,25.5217962 L0.672868514,25.4517962 Z" id="Path" fill="#000000" opacity="0.12"/>
                <path d="M22.2328685,14.4317962 L17.2328685,17.2617962 L17.3228685,17.3517962 L22.2328685,14.5717962 C22.8232639,14.3221544 23.2299288,13.769704 23.2928685,13.1317962 L23.2928685,13.1317962 C23.1660767,13.7088964 22.7726302,14.1914252 22.2328685,14.4317962 Z" id="Path" fill="#000000" opacity="0.12"/>
                <path d="M2.74286851,0.75179619 L22.2328685,11.8317962 C22.7726302,12.0721672 23.1660767,12.554696 23.2928685,13.1317962 L23.2928685,13.1317962 C23.2299288,12.4938884 22.8232639,11.941438 22.2328685,11.6917962 L2.74286851,0.61179619 C1.35286851,-0.18820381 0.202868514,0.47179619 0.202868514,2.07179619 L0.202868514,2.22179619 C0.232868514,0.62179619 1.35286851,-0.03820381 2.74286851,0.75179619 Z" id="Path" fill="#FFFFFF" opacity="0.25"/>
                <path d="M31.5128685,6.13179619 L31.5128685,0.13179619 L33.3428685,0.13179619 C34.1654223,0.0920358 34.9681536,0.39215604 35.5628685,0.96179619 C36.1197628,1.54429074 36.4188889,2.32634347 36.3928685,3.13179619 C36.4188889,3.93724889 36.1197628,4.71930169 35.5628685,5.30179619 C34.9681536,5.87143629 34.1654223,6.17155659 33.3428685,6.13179619 L31.5128685,6.13179619 Z M32.2828685,5.39179619 L33.3428685,5.39179619 C33.9577163,5.44776639 34.5656548,5.22770399 35.0022155,4.79114319 C35.4387763,4.35458249 35.6588387,3.74664399 35.6028685,3.13179619 C35.6552156,2.51784905 35.4339788,1.91208858 34.9982774,1.47638724 C34.5625761,1.04068591 33.9568156,0.81944912 33.3428685,0.87179619 L32.2828685,0.87179619 L32.2828685,5.39179619 Z" id="Shape" stroke="#FFFFFF" stroke-width="0.2" fill="#FFFFFF"/>
                <polygon id="Path" stroke="#FFFFFF" stroke-width="0.2" fill="#FFFFFF" points="37.4728685 6.13179619 37.4728685 0.13179619 38.2328685 0.13179619 38.2328685 6.13179619"/>
                <path d="M41.3028685,6.26179619 C40.8466388,6.25441379 40.403544,6.10787849 40.0328685,5.84179619 C39.618723,5.55877999 39.3260468,5.13047339 39.2128685,4.64179619 L39.9128685,4.35179619 C39.9986658,4.67733989 40.1797374,4.96984019 40.4328685,5.19179619 C40.6717361,5.40737799 40.9811218,5.52828729 41.3028685,5.53179619 C41.6118928,5.54217429 41.9152292,5.44694079 42.1628685,5.26179619 C42.3959375,5.10186939 42.5315946,4.83432339 42.5228685,4.55179619 C42.5390782,4.24829229 42.4043441,3.95636839 42.1628685,3.77179619 C41.8206227,3.54046599 41.4420541,3.36808199 41.0428685,3.26179619 C40.5928696,3.14626029 40.1776458,2.92320618 39.8328685,2.61179619 C39.5629126,2.35009954 39.4143204,1.98767951 39.4228685,1.61179619 C39.4232738,1.17949056 39.6089496,0.76809124 39.9328685,0.48179619 C40.6764063,-0.11043925 41.7197234,-0.14697565 42.5028685,0.39179619 C42.790857,0.59721795 43.0075908,0.88736158 43.1228685,1.22179619 L42.4228685,1.51179619 C42.3564753,1.30427179 42.2271673,1.12254161 42.0528685,0.99179619 C41.8349877,0.81788808 41.5613528,0.72904557 41.2828685,0.74179619 C41.0086358,0.7373324 40.7408986,0.82540384 40.5228685,0.99179619 C40.3258158,1.13656201 40.2104496,1.36729456 40.2128685,1.61179619 C40.2101514,1.83513161 40.3189034,2.0451355 40.5028685,2.17179619 C40.7589895,2.36119931 41.0468261,2.50342444 41.3528685,2.59179619 C41.6046389,2.66713938 41.8517363,2.75729656 42.0928685,2.86179619 C42.305502,2.95936028 42.5067197,3.08009094 42.6928685,3.22179619 C42.8904216,3.36308979 43.0487312,3.55237309 43.1528685,3.77179619 C43.265301,4.01254609 43.320083,4.27618459 43.3128685,4.54179619 C43.3173952,4.81258679 43.2555985,5.08037249 43.1328685,5.32179619 C43.0228704,5.54069249 42.8573588,5.72689299 42.6528685,5.86179619 C42.4574906,5.99869829 42.2414105,6.10336209 42.0128685,6.17179619 C41.7819119,6.23653039 41.5426723,6.26685649 41.3028685,6.26179619 L41.3028685,6.26179619 Z" id="Path" stroke="#FFFFFF" stroke-width="0.2" fill="#FFFFFF"/>
                <path d="M45.2328685,6.13179619 L44.4628685,6.13179619 L44.4628685,0.13179619 L46.4628685,0.13179619 C46.952498,0.12339153 47.4260836,0.30636777 47.7828685,0.64179619 C48.1401541,0.96946363 48.3435632,1.43200864 48.3435632,1.91679619 C48.3435632,2.40158374 48.1401541,2.86412875 47.7828685,3.19179619 C47.4260836,3.52722459 46.952498,3.71020089 46.4628685,3.70179619 L45.2328685,3.70179619 L45.2328685,6.13179619 Z M45.2328685,2.96179619 L46.5328685,2.96179619 C46.8238851,2.97233242 47.1050382,2.85548955 47.3028685,2.64179619 C47.5015993,2.45300223 47.6141196,2.19090766 47.6141196,1.91679619 C47.6141196,1.64268472 47.5015993,1.38059015 47.3028685,1.19179619 C47.1050382,0.97810283 46.8238851,0.86125996 46.5328685,0.87179619 L45.2328685,0.87179619 L45.2328685,2.96179619 Z" id="Shape" stroke="#FFFFFF" stroke-width="0.2" fill="#FFFFFF"/>
                <path d="M54.2328685,5.35179619 C53.6495575,5.93558379 52.8581319,6.26359239 52.0328685,6.26359239 C51.2076051,6.26359239 50.4161795,5.93558379 49.8328685,5.35179619 C48.6594222,4.10439349 48.6594222,2.15919884 49.8328685,0.91179619 C50.4161795,0.32800857 51.2076051,-4.4408921e-16 52.0328685,-4.4408921e-16 C52.8581319,-4.4408921e-16 53.6495575,0.32800857 54.2328685,0.91179619 C54.80916,1.50497962 55.122683,2.30500366 55.1028685,3.13179619 C55.132026,3.96021139 54.8171178,4.76377019 54.2328685,5.35179619 L54.2328685,5.35179619 Z M50.4028685,4.85179619 C50.8287748,5.29413779 51.4188736,5.54031399 52.0328685,5.53179619 C52.6475654,5.54398029 53.2390739,5.29721609 53.6628685,4.85179619 C54.5575213,3.87963609 54.5575213,2.38395627 53.6628685,1.41179619 C53.2390739,0.96637634 52.6475654,0.71961205 52.0328685,0.73179619 C51.4188736,0.72327837 50.8287748,0.96945459 50.4028685,1.41179619 C49.52231,2.38941126 49.52231,3.87418109 50.4028685,4.85179619 L50.4028685,4.85179619 Z" id="Shape" stroke="#FFFFFF" stroke-width="0.2" fill="#FFFFFF"/>
                <polygon id="Path" stroke="#FFFFFF" stroke-width="0.2" fill="#FFFFFF" points="56.2328685 6.13179619 56.2328685 0.13179619 57.1728685 0.13179619 60.0828685 4.80179619 60.0828685 4.80179619 60.0828685 3.64179619 60.0828685 0.13179619 60.8628685 0.13179619 60.8628685 6.13179619 60.0528685 6.13179619 57.0528685 1.24179619 57.0528685 1.24179619 57.0528685 2.39179619 57.0528685 6.13179619"/>
                <polygon id="Path" stroke="#FFFFFF" stroke-width="0.2" fill="#FFFFFF" points="62.2328685 6.13179619 62.2328685 0.13179619 63.0028685 0.13179619 63.0028685 6.13179619"/>
                <path d="M64.3228685,6.13179619 L64.3228685,0.13179619 L66.4928685,0.13179619 C66.9427309,0.1272806 67.3779767,0.29138968 67.7128685,0.59179619 C68.0511498,0.88537093 68.2416407,1.31397546 68.2328685,1.76179619 C68.2352861,2.03117227 68.158809,2.29536585 68.0128685,2.52179619 C67.8652537,2.73650603 67.6610317,2.90611413 67.4228685,3.01179619 L67.4228685,3.01179619 C67.7115593,3.11051576 67.9652309,3.29121339 68.1528685,3.53179619 C68.3366855,3.77686399 68.4350464,4.07545949 68.4328685,4.38179619 C68.4432046,4.84852199 68.2453,5.29563959 67.8928685,5.60179619 C67.5457846,5.92477189 67.0869,6.10043859 66.6128685,6.09179619 L64.3228685,6.13179619 Z M65.0928685,2.70179619 L66.4928685,2.70179619 C66.758253,2.71714835 67.0160934,2.61032873 67.1928685,2.41179619 C67.3624413,2.24562878 67.4594872,2.01918853 67.4628685,1.78179619 C67.4723178,1.54366313 67.3899872,1.31098978 67.2328685,1.13179619 C67.0626468,0.94296229 66.8168371,0.84023583 66.5628685,0.85179619 L65.0928685,0.85179619 L65.0928685,2.70179619 Z M65.0928685,5.39179619 L66.6528685,5.39179619 C66.9270872,5.40099599 67.1911016,5.28732309 67.3728685,5.08179619 C67.5455337,4.89737309 67.641996,4.65443109 67.6428685,4.40179619 C67.6367839,4.15126799 67.5368565,3.91215579 67.3628685,3.73179619 C67.1679192,3.52710509 66.8954463,3.41448299 66.6128685,3.42179619 L65.0928685,3.42179619 L65.0928685,5.39179619 Z" id="Shape" stroke="#FFFFFF" stroke-width="0.2" fill="#FFFFFF"/>
                <polygon id="Path" stroke="#FFFFFF" stroke-width="0.2" fill="#FFFFFF" points="69.4728685 6.13179619 69.4728685 0.13179619 70.2328685 0.13179619 70.2328685 5.39179619 72.8328685 5.39179619 72.8328685 6.13179619"/>
                <polygon id="Path" stroke="#FFFFFF" stroke-width="0.2" fill="#FFFFFF" points="77.3128685 0.87179619 74.5828685 0.87179619 74.5828685 2.77179619 77.0428685 2.77179619 77.0428685 3.49179619 74.5828685 3.49179619 74.5828685 5.39179619 77.3128685 5.39179619 77.3128685 6.13179619 73.8128685 6.13179619 73.8128685 0.13179619 77.3128685 0.13179619"/>
                <path d="M81.9728685,6.26179619 C81.5137419,6.25329959 81.0677741,6.10696639 80.6928685,5.84179619 C80.2824834,5.55698749 79.9935346,5.12891519 79.8828685,4.64179619 L80.5828685,4.35179619 C80.6686658,4.67733989 80.8497374,4.96984019 81.1028685,5.19179619 C81.3417361,5.40737799 81.6511218,5.52828729 81.9728685,5.53179619 C82.2816758,5.54059489 82.5845046,5.44552069 82.8328685,5.26179619 C83.0659375,5.10186939 83.2015946,4.83432339 83.1928685,4.55179619 C83.2090782,4.24829229 83.0743441,3.95636839 82.8328685,3.77179619 C82.486837,3.54076449 82.1050363,3.36844739 81.7028685,3.26179619 C81.255833,3.14626549 80.8438545,2.92311046 80.5028685,2.61179619 C80.2286581,2.35299995 80.0792543,1.9886005 80.0928685,1.61179619 C80.0932738,1.17949056 80.2789496,0.76809124 80.6028685,0.48179619 C81.3464063,-0.11043925 82.3897234,-0.14697565 83.1728685,0.39179619 C83.460857,0.59721795 83.6775908,0.88736158 83.7928685,1.22179619 L83.0928685,1.51179619 C83.0270128,1.30129986 82.8934142,1.11848062 82.7128685,0.99179619 C82.4994193,0.81688751 82.2284707,0.72775968 81.9528685,0.74179619 C81.6786358,0.7373324 81.4108986,0.82540384 81.1928685,0.99179619 C80.9933175,1.13550695 80.8744113,1.36588767 80.8728685,1.61179619 C80.8752136,1.83390082 80.9828298,2.04171147 81.1628685,2.17179619 C81.4214296,2.35716667 81.7085468,2.49903634 82.0128685,2.59179619 C82.2683927,2.66564168 82.5189087,2.75582742 82.7628685,2.86179619 C82.9742974,2.9616292 83.1752846,3.08222148 83.3628685,3.22179619 C83.5604216,3.36308979 83.7187312,3.55237309 83.8228685,3.77179619 C83.9304745,4.01412489 83.9850271,4.27665919 83.9828685,4.54179619 C83.9873952,4.81258679 83.9255985,5.08037249 83.8028685,5.32179619 C83.6928704,5.54069249 83.5273588,5.72689299 83.3228685,5.86179619 C83.1274906,5.99869829 82.9114105,6.10336209 82.6828685,6.17179619 C82.4519119,6.23653039 82.2126723,6.26685649 81.9728685,6.26179619 L81.9728685,6.26179619 Z" id="Path" stroke="#FFFFFF" stroke-width="0.2" fill="#FFFFFF"/>
                <path d="M87.1728685,6.26179619 C86.5675651,6.28751579 85.980647,6.05056129 85.5628685,5.61179619 C85.1434662,5.14366169 84.9244441,4.52968169 84.9528685,3.90179619 L84.9528685,0.13179619 L85.7228685,0.13179619 L85.7228685,3.93179619 C85.7024754,4.35040439 85.8338585,4.76230799 86.0928685,5.09179619 C86.3676861,5.39441009 86.7648194,5.55620509 87.1728685,5.53179619 C87.5683665,5.56458529 87.9576295,5.41769359 88.2328685,5.13179619 C88.4954576,4.80370389 88.6304362,4.39166399 88.6128685,3.97179619 L88.6128685,0.13179619 L89.3828685,0.13179619 L89.3828685,3.90179619 C89.4129532,4.52814819 89.1977202,5.14156229 88.7828685,5.61179619 C88.3673936,6.05393979 87.7788596,6.29154669 87.1728685,6.26179619 L87.1728685,6.26179619 Z" id="Path" stroke="#FFFFFF" stroke-width="0.2" fill="#FFFFFF"/>
                <path d="M90.6328685,6.13179619 L90.6328685,0.13179619 L92.6328685,0.13179619 C93.1224985,0.12339153 93.5960835,0.30636777 93.9528685,0.64179619 C94.3210305,0.96363669 94.5263675,1.43297879 94.5128685,1.92179619 C94.5126545,2.32879855 94.3672775,2.72237921 94.1028685,3.03179619 C93.8474075,3.33962829 93.4947015,3.55125169 93.1028685,3.63179619 L93.1028685,3.63179619 L94.7828685,6.13179619 L94.7828685,6.13179619 L93.8728685,6.13179619 L92.2328685,3.70179619 L91.3828685,3.70179619 L91.3828685,6.13179619 L90.6328685,6.13179619 Z M91.4028685,2.98179619 L92.6428685,2.98179619 C92.9350905,2.98772887 93.2182435,2.88020225 93.4328685,2.68179619 C93.6475815,2.48809298 93.7679295,2.21092727 93.7628685,1.92179619 C93.7602855,1.65087808 93.6569005,1.3906319 93.4728685,1.19179619 C93.2727375,0.97538444 92.9873235,0.85829142 92.6928685,0.87179619 L91.4028685,0.87179619 L91.4028685,2.98179619 Z" id="Shape" stroke="#FFFFFF" stroke-width="0.2" fill="#FFFFFF"/>
            </g>
        </g>
    </g>
</svg>