<?xml version="1.0" standalone="no"?>
<!DOCTYPE svg PUBLIC "-//W3C//DTD SVG 20010904//EN"
 "http://www.w3.org/TR/2001/REC-SVG-20010904/DTD/svg10.dtd">
<svg version="1.0" xmlns="http://www.w3.org/2000/svg"
 width="260.000000pt" height="260.000000pt" viewBox="0 0 260.000000 260.000000"
 preserveAspectRatio="xMidYMid meet">
<metadata>
Created by potrace 1.11, written by Peter Selinger 2001-2013
</metadata>
<g transform="translate(0.000000,260.000000) scale(0.100000,-0.100000)"
fill="#000000" stroke="none">
<path d="M1638 2415 c-3 -3 -18 -8 -34 -11 -16 -3 -42 -9 -59 -14 -16 -6 -33
-10 -37 -10 -33 -2 -182 -88 -232 -133 l-38 -36 -47 22 c-25 12 -48 24 -51 27
-3 3 -12 7 -20 8 -8 2 -46 12 -85 22 -77 20 -211 24 -291 9 -27 -5 -60 -11
-74 -13 -14 -1 -43 -11 -65 -20 -22 -10 -50 -22 -63 -27 -47 -18 -139 -84
-187 -133 -57 -58 -110 -126 -98 -126 4 0 2 -4 -5 -9 -7 -4 -14 -15 -16 -23
-1 -8 -10 -27 -20 -42 -10 -15 -15 -30 -12 -33 3 -4 2 -11 -3 -17 -11 -13 -23
-64 -34 -141 -1 -11 -6 -25 -10 -32 -4 -6 -3 -14 2 -17 10 -7 9 -25 -2 -42 -3
-6 -4 -14 0 -17 3 -4 7 -26 9 -49 2 -24 11 -77 20 -118 10 -41 17 -78 16 -82
-1 -5 2 -8 8 -8 6 0 9 -3 8 -7 -2 -12 15 -55 35 -88 60 -100 129 -172 219
-228 64 -40 144 -78 169 -80 11 -1 19 -4 19 -7 0 -6 106 -43 112 -40 2 1 17
-4 33 -10 17 -7 44 -14 60 -17 17 -2 34 -9 39 -14 6 -5 16 -9 24 -9 26 0 180
-80 211 -109 31 -29 68 -111 51 -111 -6 0 -10 -7 -10 -17 0 -19 -39 -74 -87
-121 -18 -18 -33 -35 -33 -37 0 -2 -29 -32 -64 -67 -89 -89 -98 -113 -65 -167
14 -21 67 -48 84 -42 6 1 21 4 35 6 38 5 51 9 95 30 47 22 127 74 137 89 4 6
8 8 8 4 0 -11 170 145 170 157 0 2 16 21 35 41 19 19 42 49 52 65 10 16 21 29
25 29 4 0 8 5 8 11 0 6 13 29 29 52 15 23 40 67 53 97 14 30 39 69 55 85 42
43 102 95 108 95 5 0 64 39 75 50 3 3 25 16 50 29 47 25 173 104 193 121 7 6
23 20 37 31 107 88 176 179 215 284 14 36 22 65 19 65 -4 0 -1 7 6 15 17 20
22 239 8 315 -15 83 -53 186 -94 254 -39 63 -137 168 -189 201 -45 29 -135 75
-135 69 0 -2 -8 0 -18 5 -22 12 -67 23 -99 25 -13 0 -23 4 -23 7 0 13 -191 10
-208 -3 -12 -10 -14 -10 -8 0 7 12 -5 17 -16 7z m272 -290 c150 -60 235 -180
256 -360 3 -27 7 -55 9 -62 2 -7 1 -14 -3 -17 -4 -2 -7 -23 -6 -45 0 -23 -2
-41 -6 -41 -4 0 -7 -6 -8 -12 -4 -49 -35 -103 -96 -163 -62 -62 -116 -101
-245 -175 -34 -19 -61 -38 -61 -42 0 -5 -9 -8 -19 -8 -11 0 -21 -3 -23 -7 -1
-5 -30 -28 -63 -52 -84 -62 -176 -158 -205 -216 -29 -58 -50 -84 -50 -63 -1
15 -66 88 -79 88 -5 0 -11 3 -13 8 -5 10 -78 64 -78 57 0 -4 -13 3 -29 14 -16
12 -32 21 -35 21 -3 0 -30 11 -60 25 -30 14 -63 26 -73 28 -10 1 -22 5 -28 9
-10 6 -121 39 -142 42 -7 1 -16 5 -19 9 -4 4 -18 7 -31 7 -12 0 -23 4 -23 10
0 5 -7 7 -15 4 -8 -4 -15 -1 -15 6 0 6 -4 9 -9 5 -5 -3 -12 -1 -16 5 -3 5 -13
10 -20 10 -24 0 -117 61 -160 105 -40 40 -82 113 -90 157 -20 101 -24 141 -20
196 3 35 7 68 11 73 3 5 7 18 9 30 7 34 54 108 96 150 34 34 159 108 159 94 0
-4 6 -3 13 2 15 9 31 13 82 18 22 2 41 5 43 5 3 3 41 3 45 0 1 -1 18 -3 39 -5
46 -4 106 -23 138 -43 14 -9 28 -17 32 -17 7 0 95 -83 113 -107 16 -20 49 -71
60 -92 9 -17 33 -20 28 -4 -5 14 47 142 73 180 60 91 146 153 254 182 73 19
220 14 280 -9z"/>
</g>
</svg>
