<?xml version="1.0" encoding="utf-8"?>
<!-- Generator: Adobe Illustrator 21.0.2, SVG Export Plug-In . SVG Version: 6.00 Build 0)  -->
<svg version="1.1" id="Calque_1" xmlns="http://www.w3.org/2000/svg" fill="#fbb52d"  xmlns:xlink="http://www.w3.org/1999/xlink" x="0px" y="0px"
	 viewBox="0 0 281.7 358.4" style="enable-background:new 0 0 281.7 358.4;" xml:space="preserve">
<path d="M275.4,50.9l-18.7-15.6c-6.5-5.4-18.3-9.7-26.7-9.7h-69.8v-6.4c0-10.6-8.6-19.2-19.2-19.2c-10.6,0-19.2,8.6-19.2,19.2v6.4
	h-64c-10.6,0-19.2,8.6-19.2,19.2v38.4c0,10.6,8.6,19.2,19.2,19.2h64v12.8H51.8c-8.5,0-20.2,4.3-26.7,9.7L6.4,140.5
	c-4,3.4-6.4,8.1-6.4,13.1s2.3,9.7,6.4,13.1l18.7,15.6c6.5,5.4,18.3,9.7,26.7,9.7h69.8v153.6h-6.4c-3.5,0-6.4,2.9-6.4,6.4
	c0,3.5,2.9,6.4,6.4,6.4h51.2c3.5,0,6.4-2.9,6.4-6.4c0-3.5-2.9-6.4-6.4-6.4h-6.4V192h64c10.6,0,19.2-8.6,19.2-19.2v-38.4
	c0-10.6-8.6-19.2-19.2-19.2h-64v-12.8h69.8c8.5,0,20.2-4.3,26.7-9.7l18.7-15.6c4-3.4,6.4-8.1,6.4-13.1
	C281.7,59,279.4,54.3,275.4,50.9L275.4,50.9z M134.5,19.2c0-3.5,2.9-6.4,6.4-6.4c3.5,0,6.4,2.9,6.4,6.4v6.4h-12.8V19.2z
	 M147.3,345.6h-12.8V192h12.8V345.6z M230.5,134.4v38.4c0,3.5-2.9,6.4-6.4,6.4H51.8c-5.6,0-14.2-3.1-18.5-6.7l-18.7-15.6
	c-1.1-0.9-1.8-2.1-1.8-3.3s0.6-2.3,1.8-3.3l18.7-15.6c4.3-3.6,12.9-6.7,18.5-6.7h172.2C227.6,128,230.5,130.9,230.5,134.4
	L230.5,134.4z M147.3,115.2h-12.8v-12.8h12.8V115.2z M267.2,67.3l-18.7,15.6c-4.3,3.6-13,6.7-18.5,6.7H57.7c-3.5,0-6.4-2.9-6.4-6.4
	V44.8c0-3.5,2.9-6.4,6.4-6.4h172.2c5.6,0,14.2,3.1,18.5,6.7l18.7,15.6c1.1,0.9,1.8,2.1,1.8,3.3C268.9,65.2,268.3,66.3,267.2,67.3
	L267.2,67.3z M267.2,67.3"/>
<path d="M96.1,160h108.8c3.5,0,6.4-2.9,6.4-6.4c0-3.5-2.9-6.4-6.4-6.4H96.1c-3.5,0-6.4,2.9-6.4,6.4C89.7,157.1,92.5,160,96.1,160
	L96.1,160z M96.1,160"/>
<path d="M38.5,153.6c0,3.5,2.9,6.4,6.4,6.4h25.6c3.5,0,6.4-2.9,6.4-6.4c0-3.5-2.9-6.4-6.4-6.4H44.9
	C41.3,147.2,38.5,150.1,38.5,153.6L38.5,153.6z M38.5,153.6"/>
<path d="M236.9,57.6h-70.4c-3.5,0-6.4,2.9-6.4,6.4c0,3.5,2.9,6.4,6.4,6.4h70.4c3.5,0,6.4-2.9,6.4-6.4
	C243.3,60.5,240.4,57.6,236.9,57.6L236.9,57.6z M236.9,57.6"/>
<path d="M140.9,57.6h-64c-3.5,0-6.4,2.9-6.4,6.4c0,3.5,2.9,6.4,6.4,6.4h64c3.5,0,6.4-2.9,6.4-6.4C147.3,60.5,144.4,57.6,140.9,57.6
	L140.9,57.6z M140.9,57.6"/>
</svg>
