<?xml version="1.0" standalone="no"?>
<!DOCTYPE svg PUBLIC "-//W3C//DTD SVG 1.1//EN" "http://www.w3.org/Graphics/SVG/1.1/DTD/svg11.dtd" >
<svg xmlns="http://www.w3.org/2000/svg">
<metadata>Generated by IcoMoon</metadata>
<defs>
<font id="icomoon" horiz-adv-x="1024">
<font-face units-per-em="1024" ascent="960" descent="-64" />
<missing-glyph horiz-adv-x="1024" />
<glyph unicode="&#x20;" horiz-adv-x="512" d="" />
<glyph unicode="&#xe900;" glyph-name="ico-connexion" d="M1024 448c0 281.6-230.4 512-512 512s-512-230.4-512-512c0-148.945 65.164-283.927 165.236-377.018v0l16.291-13.964c0 0 2.327-2.327 2.327-2.327 9.309-6.982 18.618-13.964 27.927-20.945 2.327-2.327 6.982-4.655 9.309-6.982 9.309-6.982 20.945-13.964 30.255-18.618 2.327-2.327 4.655-2.327 6.982-4.655 11.636-6.982 23.273-11.636 34.909-18.618 0 0 2.327 0 2.327-2.327 39.564-18.618 81.455-30.255 123.345-39.564 2.327 0 2.327 0 2.327 0 13.964-2.327 27.927-4.655 41.891-4.655 2.327 0 2.327 0 4.655 0 13.964 0 27.927-2.327 41.891-2.327s27.927 0 41.891 2.327c2.327 0 2.327 0 4.655 0 13.964 2.327 27.927 2.327 39.564 4.655 2.327 0 2.327 0 4.655 0 41.891 6.982 83.782 20.945 121.018 37.236 2.327 0 2.327 2.327 4.655 2.327 11.636 4.655 23.273 11.636 34.909 18.618 2.327 2.327 4.655 2.327 9.309 4.655 9.309 6.982 20.945 11.636 30.255 18.618 2.327 2.327 6.982 4.655 9.309 6.982 9.309 6.982 16.291 11.636 23.273 18.618 2.327 2.327 4.655 2.327 4.655 4.655l16.291 13.964c104.727 95.418 169.891 230.4 169.891 379.345v0zM37.236 448c0 260.655 211.782 474.764 474.764 474.764s474.764-214.109 474.764-474.764c0-141.964-62.836-267.636-160.582-356.073-4.655 4.655-11.636 6.982-16.291 9.309l-158.255 81.455c-13.964 6.982-23.273 20.945-23.273 37.236v55.855c4.655 4.655 6.982 9.309 11.636 16.291 20.945 27.927 37.236 60.509 48.873 95.418 23.273 11.636 39.564 34.909 39.564 60.509v65.164c0 16.291-6.982 32.582-16.291 44.218v86.109c0 9.309 4.655 65.164-34.909 109.382-34.909 39.564-90.764 58.182-165.236 58.182s-130.327-20.945-165.236-58.182c-39.564-44.218-34.909-100.073-34.909-109.382v-86.109c-11.636-11.636-16.291-27.927-16.291-44.218v-65.164c0-20.945 9.309-39.564 25.6-53.527 13.964-58.182 46.545-104.727 58.182-118.691v-53.527c0-16.291-9.309-30.255-20.945-37.236l-148.945-81.455c-4.655-2.327-9.309-4.655-13.964-9.309-97.745 88.436-158.255 214.109-158.255 353.745v0zM791.273 64c-6.982-4.655-13.964-9.309-20.945-13.964-2.327-2.327-6.982-4.655-9.309-6.982-9.309-4.655-18.618-11.636-27.927-16.291-2.327 0-4.655-2.327-6.982-2.327-20.945-11.636-41.891-20.945-65.164-27.927 0 0-2.327 0-2.327 0-11.636-4.655-23.273-6.982-34.909-9.309v0c-11.636-2.327-23.273-4.655-37.236-6.982 0 0 0 0 0 0-11.636-2.327-23.273-2.327-34.909-4.655-2.327 0-4.655 0-6.982 0-11.636 0-23.273-2.327-34.909-2.327s-23.273 0-34.909 2.327c-2.327 0-4.655 0-6.982 0-11.636 0-23.273 2.327-34.909 4.655h-2.327c-25.6 4.655-48.873 9.309-72.145 18.618 0 0-2.327 0-2.327 0-11.636 4.655-23.273 9.309-34.909 13.964 0 0 0 0 0 0-11.636 4.655-20.945 9.309-32.582 16.291-2.327 0-2.327 2.327-4.655 2.327-9.309 4.655-18.618 11.636-27.927 16.291-2.327 2.327-4.655 2.327-6.982 4.655-9.309 4.655-16.291 11.636-25.6 16.291 0 0-2.327 2.327-2.327 2.327h2.327l146.618 79.127c25.6 13.964 41.891 39.564 41.891 69.818v67.491l-4.655 4.655c0 0-39.564 48.873-55.855 116.364l-2.327 6.982-6.982 4.655c-9.309 4.655-13.964 16.291-13.964 25.6v65.164c0 9.309 4.655 16.291 9.309 23.273l11.636 6.982v107.055c0 0-4.655 44.218 25.6 81.455 27.927 30.255 72.145 46.545 137.309 46.545 62.836 0 109.382-16.291 137.309-46.545 32.582-34.909 25.6-81.455 25.6-81.455v-107.055l6.982-4.655c6.982-6.982 9.309-13.964 9.309-23.273v-65.164c0-13.964-9.309-25.6-20.945-30.255l-9.309-2.327-2.327-9.309c-11.636-34.909-25.6-65.164-46.545-93.091-4.655-6.982-9.309-13.964-13.964-18.618l-4.655-4.655v-69.818c0-30.255 16.291-55.855 44.218-69.818l158.255-79.127c0 0 2.327 0 2.327-2.327-4.655-2.327-4.655-2.327-6.982-4.655v0z" />
<glyph unicode="&#xe901;" glyph-name="ico-twitter" d="M1024 765.477c-37.689-16.7-78.129-28.026-120.618-33.083 43.384 25.98 76.594 67.187 92.334 116.139-40.696-24.059-85.616-41.529-133.48-50.999-38.328 40.888-92.846 66.356-153.316 66.356-116.010 0-210.072-94.062-210.072-210.009 0-16.444 1.856-32.505 5.44-47.864-174.559 8.768-329.345 92.399-432.941 219.481-18.109-30.971-28.411-67.059-28.411-105.581 0-72.883 37.113-137.191 93.423-174.815-34.426 1.151-66.804 10.621-95.15 26.363v-2.624c0-101.741 72.435-186.652 168.48-205.978-17.597-4.735-36.153-7.359-55.35-7.359-13.565 0-26.683 1.344-39.544 3.904 26.746-83.505 104.301-144.228 196.188-145.893-71.859-56.31-162.466-89.776-260.879-89.776-16.956 0-33.658 1.024-50.102 2.88 92.975-59.702 203.354-94.511 321.988-94.511 386.423 0 597.648 320.069 597.648 597.648l-0.704 27.195c41.271 29.437 76.976 66.421 105.067 108.526z" />
<glyph unicode="&#xe902;" glyph-name="ico-chevron-down" horiz-adv-x="1621" d="M809.045-64l-809.045 839.68 173.995 180.907 635.307-659.627 638.72 663.040 173.995-180.053z" />
<glyph unicode="&#xe903;" glyph-name="ico-chevron-right" horiz-adv-x="646" d="M645.565 446.887l-529.586-511.11-113.976 109.969 415.833 401.141-418.059 403.59 113.976 109.746z" />
<glyph unicode="&#xe904;" glyph-name="ico-facebook" d="M767.966 959.788l-132.79 0.213c-149.185 0-245.595-98.913-245.595-252.008v-116.192h-133.514c-11.537 0-20.88-9.353-20.88-20.891v-168.35c0-11.537 9.353-20.88 20.88-20.88h133.514v-424.8c0-11.537 9.343-20.88 20.88-20.88h174.198c11.537 0 20.88 9.353 20.88 20.88v424.8h156.109c11.537 0 20.88 9.343 20.88 20.88l0.064 168.35c0 5.54-2.205 10.845-6.115 14.765s-9.236 6.125-14.776 6.125h-156.163v98.498c0 47.342 11.282 71.375 72.952 71.375l89.453 0.032c11.527 0 20.869 9.353 20.869 20.88v156.322c0 11.516-9.332 20.859-20.848 20.88z" />
<glyph unicode="&#xe905;" glyph-name="ico-instagram" d="M726.546 960h-429.090c-164.018 0-297.456-133.438-297.456-297.456v-429.088c0-164.018 133.438-297.456 297.456-297.456h429.088c164.018 0 297.456 133.438 297.456 297.454v429.090c0 164.018-133.438 297.456-297.454 297.456zM944 233.456c0-119.906-97.55-217.456-217.454-217.456h-429.090c-119.906 0-217.456 97.55-217.456 217.454v429.090c0 119.906 97.55 217.456 217.456 217.456h429.088c119.906 0 217.456-97.55 217.456-217.456v-429.088zM512 724c-152.188 0-276-123.812-276-276s123.812-276 276-276 276 123.812 276 276-123.812 276-276 276zM512 252c-108.074 0-196 87.926-196 196s87.926 196 196 196 196-87.926 196-196-87.926-196-196-196zM832 728c0-22.091-17.909-40-40-40s-40 17.909-40 40c0 22.091 17.909 40 40 40s40-17.909 40-40z" />
<glyph unicode="&#xe906;" glyph-name="ico-lecteur" horiz-adv-x="683" d="M0.683-64l-0.683 167.708 459.093 343.438-325.86 244.622v-318.578l-132.892-108.089v694.898l682.667-512.91z" />
<glyph unicode="&#xe907;" glyph-name="ico-map" horiz-adv-x="1382" d="M899.84 847.957l-418.56 97.493-481.28-112.043v-897.408l481.28 112.043 418.56-97.451 481.28 112v897.408zM840.533 574.635v-485.035l-359.253 83.669-356.267-82.901v646.827l296.533 69.077v-524.8h125.44v523.392l352.853-82.176 356.267 82.901v-646.827l-290.133-67.584v483.456h-125.44z" />
<glyph unicode="&#xe908;" glyph-name="ico-search" horiz-adv-x="1047" d="M948.444-64.621l-368.47 360.888c-12.861 12.155-20.865 29.33-20.865 48.376s8.005 36.221 20.834 48.346l0.032 0.030c46.528 45.428 75.383 108.779 75.383 178.87s-28.855 133.441-75.334 178.822l-0.049 0.048c-47.197 45.768-111.645 73.982-182.683 73.982s-135.486-28.213-182.75-74.046l0.067 0.065c-46.586-45.41-75.483-108.776-75.483-178.892s28.896-133.482 75.43-178.84l0.053-0.051c47.94-45.631 112.958-73.703 184.533-73.703 16.743 0 33.126 1.536 49.018 4.475l-1.65-0.253c27.935 4.434 34.586-1.463 39.463-10.287 13.128-29.937 26.14-66.795 36.671-104.687l1.462-6.164c-38.004-13.13-81.8-20.711-127.367-20.711-109.404 0-208.6 43.705-281.083 114.607l0.073-0.071c-71.83 69.921-116.391 167.545-116.391 275.576s44.561 205.655 116.305 275.493l0.086 0.084c72.674 70.512 171.931 113.981 281.341 113.981s208.666-43.469 281.442-114.079l-0.101 0.098c71.962-69.871 116.617-167.525 116.617-275.608 0-83.658-26.753-161.067-72.17-224.14l0.78 1.139 323.242-316.813z" />
<glyph unicode="&#xe909;" glyph-name="ico-user" horiz-adv-x="1070" d="M694.094 449.158c71.73 51.422 117.911 134.531 117.911 228.427 0 154.761-125.459 280.22-280.22 280.22s-280.22-125.459-280.22-280.22c0-94.876 47.151-178.739 119.298-229.435l0.893-0.595c-217.322-72.078-371.312-273.48-371.312-510.848 0-0.248 0-0.497 0.001-0.745v0.038h1069.412c0 0.195 0 0.427 0 0.658 0 239.069-156.115 441.676-371.961 511.437l-3.803 1.063zM532.035 826.702c0.145 0.001 0.318 0.001 0.49 0.001 81.905 0 148.302-66.397 148.302-148.302s-66.397-148.302-148.302-148.302c-81.905 0-148.302 66.397-148.302 148.302 0 0.015 0 0.031 0 0.046v-0.002c0 0.040 0 0.087 0 0.134 0 81.697 66.14 147.946 147.795 148.123h0.017zM535.151 339.99c174.656-0.496 323.116-112.102 378.453-267.832l0.872-2.815h-758.65c56.097 158.625 204.624 270.293 379.282 270.648h0.043z" />
<glyph unicode="&#xe90a;" glyph-name="ico-info" d="M505.173 960c-279.799-3.875-505.128-231.6-505.128-511.954 0-282.77 229.23-512 512-512s512 229.23 512 512c0 2.384-0.016 4.764-0.049 7.141l0.004-0.36c-3.824 279.838-231.569 505.219-511.955 505.219-2.416 0-4.828-0.017-7.236-0.050l0.365 0.004zM561.835 789.333c2.667 0.427 5.742 0.671 8.874 0.671 32.613 0 59.051-26.438 59.051-59.051 0-2.232-0.124-4.436-0.365-6.604l0.024 0.267c-1.489-46.377-39.441-83.406-86.043-83.406-2.634 0-5.241 0.118-7.815 0.35l0.332-0.024c-3.307-0.636-7.11-1-10.999-1-33.668 0-60.962 27.294-60.962 60.962 0 2.059 0.102 4.094 0.301 6.101l-0.020-0.253c3.385 46.231 41.724 82.456 88.523 82.456 3.204 0 6.369-0.17 9.486-0.501l-0.388 0.033zM428.715 127.898c-36.181 0-62.123 21.572-36.864 116.531l40.277 168.346c7.509 27.307 8.875 37.82 0 37.82-31.891-8.196-59.885-20.906-84.973-37.631l1.005 0.63-17.749 29.15c62.047 56.47 139.661 96.89 225.656 114.112l3.037 0.507c35.499 0 41.643-42.052 23.893-106.769l-46.421-177.015c-8.875-31.266-4.779-42.052 3.413-42.052 30.886 7.060 57.808 20.992 80.12 40.144l-0.248-0.208 19.797-27.307c-54.047-59.436-126.694-101.103-208.698-115.788l-2.246-0.334z" />
<glyph unicode="&#xe90b;" glyph-name="ico-tel" horiz-adv-x="1023" d="M808.663 325.606c-21.074 21.885-46.202 33.503-72.95 33.503-26.478 0-52.146-11.348-74.031-33.233l-68.357-68.087c-5.674 2.972-11.348 5.944-16.751 8.646-7.835 3.783-15.13 7.565-21.345 11.348-64.034 40.528-122.123 93.484-177.782 162.111-27.018 34.043-45.121 62.953-58.36 92.133 17.832 16.211 34.043 32.963 50.254 49.174 5.944 5.944 12.158 12.428 18.102 18.373 45.391 45.391 45.391 104.291 0 149.682l-58.9 58.9c-6.755 6.755-13.509 13.509-19.994 20.534-12.969 13.509-26.478 27.289-40.528 40.258-21.345 20.804-46.472 31.882-72.68 31.882-26.478 0-51.875-11.078-73.49-31.882l-0.54-0.54-73.49-74.031c-27.829-27.559-43.5-61.332-47.012-100.509-5.134-63.223 13.509-121.853 27.559-160.49 35.124-94.565 87.27-182.104 165.353-275.859 94.565-112.937 208.583-202.368 338.812-265.321 49.714-23.506 116.179-51.335 190.21-56.198 4.593-0.27 9.186-0.54 13.509-0.54 49.984 0 91.863 17.832 124.825 53.497 0.27 0.54 0.54 0.54 0.811 1.081 11.348 13.509 24.317 25.938 37.826 39.177 9.186 8.916 18.913 18.102 28.099 27.829 21.345 22.155 32.692 48.093 32.692 74.841s-11.348 52.416-33.233 74.031l-118.611 119.692zM885.936 98.111c-0.27 0-0.27-0.27 0 0-8.376-9.186-17.022-17.292-26.478-26.478-14.050-13.509-28.369-27.559-41.608-43.23-21.885-23.236-47.553-34.313-81.326-34.313-3.242 0-6.755 0-9.997 0.27-64.304 4.053-123.745 29.18-168.595 50.525-122.394 59.17-229.657 143.198-319.088 249.921-73.49 88.621-122.664 170.757-155.356 259.107-19.994 53.767-27.559 95.645-24.317 135.363 2.161 25.397 11.888 46.202 29.72 64.304l73.76 73.76c10.537 9.997 21.885 15.401 32.963 15.401 13.509 0 24.587-8.106 31.612-15.13l0.54-0.54c13.239-12.428 25.668-25.127 38.907-38.636 6.755-7.025 13.509-13.779 20.534-21.074l58.9-58.9c22.966-22.966 22.966-44.040 0-67.006-6.214-6.214-12.428-12.428-18.643-18.643-18.102-18.643-35.394-35.935-54.307-52.686-0.54-0.54-0.811-0.54-1.081-1.081-18.643-18.643-15.13-36.745-11.348-49.174l0.54-1.891c15.401-37.285 37.015-72.139 69.708-114.018l0.27-0.27c59.711-73.49 122.664-130.769 191.831-174.539 8.916-5.674 17.832-10.267 26.478-14.59 7.835-3.783 15.13-7.565 21.345-11.348 0.811-0.54 1.621-1.081 2.702-1.621 7.295-3.783 14.32-5.404 21.345-5.404 17.832 0 29.18 11.348 32.963 14.86l74.031 74.031c7.295 7.295 18.913 16.211 32.692 16.211 13.509 0 24.317-8.376 31.071-15.671l119.422-119.422c22.966-22.696 22.966-45.391 0.811-68.087v0zM552.798 716.293c56.739-9.456 108.074-36.205 149.142-77.273s67.546-92.403 77.273-149.142c2.432-14.32 14.59-24.317 28.64-24.317 1.621 0 3.242 0.27 4.863 0.54 15.941 2.702 26.478 17.832 24.046 33.773-11.618 68.627-44.040 131.040-93.484 180.483s-111.856 81.866-180.483 93.484c-15.941 2.702-30.801-8.106-33.773-23.776-2.702-15.671 7.565-31.071 23.776-33.773v0zM1022.109 508.251c-19.183 112.937-72.409 215.607-154.005 297.203s-184.266 134.822-297.203 154.005c-15.671 2.702-30.801-8.106-33.503-23.776-2.702-15.941 8.106-30.801 24.046-33.773 100.779-17.022 192.642-64.844 265.592-137.794s120.502-164.813 137.794-265.592c2.432-14.32 14.59-24.317 28.64-24.317 1.621 0 3.242 0.27 4.863 0.54 15.941 2.702 26.748 17.832 23.776 33.503v0z" />
<glyph unicode="&#xe90c;" glyph-name="ico-cursor" horiz-adv-x="196" d="M0 938.213v21.787h196.085v-21.787h-196.085zM0-64v21.787h196.085v-21.787h-196.085zM87.149 938.213h21.787v-980.426h-21.787v980.426z" />
<glyph unicode="&#xe90d;" glyph-name="ico-calendar" d="M910.199 846.199h-51.2v-113.732h-181.999v113.732h-330.001v-113.732h-181.999v113.732h-51.2c-62.764-0.155-113.607-50.974-113.8-113.714v-682.686c0.193-62.772 51.028-113.607 113.782-113.8h796.418c62.772 0.193 113.607 51.028 113.8 113.782v682.686c-0.194 62.759-51.037 113.577-113.786 113.732h-0.015zM910.199 49.801h-796.399v455.066h796.399v-455.066zM295.799 960h-79.599v-193.399h79.599v193.399zM807.799 960h-79.599v-193.399h79.599v193.399z" />
<glyph unicode="&#xe90e;" glyph-name="ico-chevron-left" horiz-adv-x="647" d="M0 449.078l530.486 510.922 114.095-109.945-416.499-400.977 418.762-403.672-114.095-109.945z" />
<glyph unicode="&#xe90f;" glyph-name="ico-google" d="M101.837 673.843c0-76.493 25.549-131.686 75.878-164.096 41.267-26.624 89.088-30.618 113.971-30.618 6.042 0 10.906 0.307 14.285 0.512 0 0-7.885-51.405 30.208-102.195h-1.741c-65.997 0-281.242-13.773-281.242-190.822 0-180.019 197.683-189.184 237.363-189.184 3.123 0 4.966 0.102 4.966 0.102 0.41 0 3.226-0.102 8.090-0.102 25.446 0 91.238 3.174 152.32 32.922 79.258 38.4 119.45 105.421 119.45 198.912 0 90.317-61.235 144.077-105.933 183.398-27.29 24.013-50.893 44.698-50.893 64.819 0 20.48 17.254 35.891 39.014 55.398 35.277 31.488 68.557 76.39 68.557 161.28 0 74.598-9.677 124.723-69.325 156.518 6.195 3.174 28.211 5.478 39.066 7.014 32.307 4.403 79.565 9.421 79.565 35.789v5.069h-235.469c-2.355-0.102-238.131-8.806-238.131-224.717zM481.946 212.378c4.506-71.987-57.088-125.082-149.606-131.789-93.952-6.912-171.264 35.379-175.77 107.315-2.202 34.611 13.005 68.403 42.752 95.386 30.157 27.29 71.578 44.186 116.634 47.514 5.325 0.307 10.598 0.614 15.872 0.614 86.989-0.051 145.869-51.149 150.118-119.040zM420.454 723.149c23.091-81.306-11.776-166.195-67.379-181.914-6.4-1.792-12.954-2.662-19.661-2.662-50.893 0-101.325 51.507-120.064 122.522-10.445 39.731-9.574 74.65 2.406 108.134 11.725 33.024 32.922 55.194 59.546 62.72 6.4 1.792 13.005 2.714 19.712 2.714 61.44 0 100.966-25.498 125.44-111.514zM819.2 550.4v153.6h-102.4v-153.6h-153.6v-102.4h153.6v-153.6h102.4v153.6h153.6v102.4h-153.6z" />
<glyph unicode="&#xe910;" glyph-name="ico-linkedin" d="M256 806.4c0-54.374-36.352-101.171-102.451-101.171-62.208 0-102.349 44.134-102.349 98.509 0 55.808 38.912 105.062 102.4 105.062s101.171-46.592 102.4-102.4zM51.2-12.8v665.6h204.8v-665.6h-204.8zM358.4 425.267c0 79.104-2.611 145.203-5.222 202.291h184.013l9.114-88.218h3.891c25.907 41.523 89.395 102.4 195.686 102.4 129.638 0 226.918-86.784 226.918-273.51v-381.030h-204.8v351.283c0 81.613-31.078 143.872-102.4 143.872-54.374 0-81.613-44.032-95.898-80.333-5.222-13.005-6.502-31.13-6.502-49.306v-365.517h-204.8v438.067z" />
<glyph unicode="&#xe911;" glyph-name="ico-mail" d="M80.589 689.357c24.986-13.414 371.098-199.373 384-206.285s29.594-10.189 46.387-10.189c16.794 0 33.485 3.277 46.387 10.189s359.014 192.87 384 206.285c25.037 13.466 48.691 65.843 2.765 65.843h-866.253c-45.926 0-22.272-52.378 2.714-65.843zM952.986 576.563c-28.416-14.797-378.214-197.069-395.622-206.182s-29.594-10.189-46.387-10.189-28.979 1.075-46.387 10.189-365.21 191.437-393.626 206.234c-19.968 10.445-19.763-1.792-19.763-11.213s0-373.402 0-373.402c0-21.504 28.979-51.2 51.2-51.2h819.2c22.221 0 51.2 29.696 51.2 51.2 0 0 0 363.93 0 373.35s0.205 21.658-19.814 11.213z" />
<glyph unicode="&#xe912;" glyph-name="ico-share" horiz-adv-x="937" d="M722.47 960.265c-118.884-0.501-215.064-96.991-215.064-215.944 0-0.249 0-0.498 0.001-0.747v0.038c0.057-13.742 1.34-27.145 3.745-40.155l-0.212 1.382-245.092-114.818c-17.338 14.090-38.054 24.772-60.702 30.664l-1.123 0.248c-12.425 3.331-26.69 5.244-41.401 5.244-91.704 0-166.045-74.341-166.045-166.045s74.341-166.045 166.045-166.045c25.618 0 49.882 5.802 71.548 16.163l-1.001-0.431 209.322-174.656c-6.826-16.16-10.793-34.949-10.793-54.665 0-79.436 64.396-143.832 143.832-143.832s143.832 64.396 143.832 143.832c0 79.436-64.396 143.832-143.832 143.832-21.657 0-42.197-4.787-60.618-13.36l0.886 0.37-205.789 171.962c5.562 10.491 10.525 22.741 14.228 35.526l0.345 1.393c2.757 11.219 4.339 24.099 4.339 37.348 0 15.148-2.067 29.813-5.936 43.728l0.272-1.145 231.402 108.415c39.464-49.799 99.938-81.461 167.808-81.477h0.003c117.327 2.994 211.296 98.816 211.296 216.587s-93.969 213.593-211.019 216.581l-0.277 0.006zM150.147 401.631c-26.588 6.489-46.013 30.103-46.013 58.254 0 33.072 26.81 59.882 59.882 59.882s59.882-26.81 59.882-59.882c0-5.13-0.645-10.109-1.858-14.861l0.090 0.415c-6.35-26.333-29.706-45.593-57.561-45.593-5.122 0-10.092 0.651-14.832 1.876l0.41-0.090zM574.532 118.207c0.092 0.001 0.2 0.001 0.309 0.001 21.146 0 38.287-17.142 38.287-38.287s-17.142-38.287-38.287-38.287c-21.145 0-38.287 17.141-38.287 38.286v0c0 0 0 0.001 0 0.001 0 21.037 16.966 38.111 37.962 38.286h0.017zM722.47 632.945c-0.223-0.002-0.487-0.003-0.751-0.003-61.144 0-110.711 49.567-110.711 110.711s49.567 110.711 110.711 110.711c61.144 0 110.711-49.567 110.711-110.711 0-0.015 0-0.029 0-0.044v0.002c0-0.079 0-0.172 0-0.266 0-60.818-49.177-110.15-109.937-110.401h-0.024z" />
<glyph unicode="&#xe913;" glyph-name="ico-like" horiz-adv-x="1231" d="M1226.411 474.624c-2.656 87.278-74.044 157.020-161.722 157.020-0.529 0-1.057-0.003-1.585-0.008l0.081 0.001h-193.809l35.362 127.659c2.807 11.213 4.418 24.086 4.418 37.335 0 64.352-38.003 119.828-92.79 145.209l-0.989 0.411-11.605 5.461c-17.334 7.765-37.569 12.288-58.861 12.288-0.115 0-0.229 0-0.344 0h0.018c-0.582 0.008-1.269 0.013-1.957 0.013-56.291 0-105.076-32.137-129.008-79.065l-0.38-0.82c-194.219-357.035-194.219-395.264-194.219-407.552v-377.515c1.186-88.107 72.887-159.075 161.164-159.075 0.749 0 1.497 0.005 2.243 0.015l-0.113-0.001h359.083c0.073 0 0.16-0.001 0.247-0.001 5.402 0 10.63 0.748 15.585 2.146l-0.404-0.097c101.649 30.037 237.773 331.776 268.015 450.56 2.316 14.73 3.64 31.717 3.64 49.013 0 13.037-0.752 25.898-2.214 38.543l0.145-1.541zM757.214 547.669c9.926-12.521 25.136-20.481 42.205-20.481 0.090 0 0.181 0 0.271 0.001h263.495c0.226 0.003 0.493 0.005 0.76 0.005 30.369 0 55.056-24.332 55.627-54.565l0.001-0.053q0-2.048 0-4.096c1.1-11.052 1.728-23.888 1.728-36.87 0-6.481-0.156-12.925-0.466-19.329l0.035 0.903c-40.864-143.482-106.878-268.201-193.702-375.371l1.532 1.953h-346.385c-0.204-0.003-0.444-0.004-0.685-0.004-30.637 0-55.504 24.702-55.772 55.275v374.126c64.404 147.153 125.665 266.827 192.907 382.596l-9.679-18.052c6.656 13.22 20.119 22.13 35.662 22.13 5.482 0 10.705-1.108 15.458-3.113l-0.262 0.098 11.674-5.461c18.583-9.404 31.1-28.356 31.1-50.231 0-3.968-0.412-7.839-1.195-11.574l0.064 0.365-53.521-193.195c-1.121-4.008-1.765-8.611-1.765-13.364 0-12.004 4.109-23.047 10.997-31.802l-0.084 0.11zM291.703 623.445h-238.319c-0.225 0.003-0.491 0.005-0.757 0.005-28.82 0-52.237-23.134-52.695-51.845l-0.001-0.043v-575.488c0.458-28.754 23.875-51.888 52.696-51.888 0.266 0 0.532 0.002 0.797 0.006h238.279c0.225-0.003 0.491-0.005 0.757-0.005 28.82 0 52.237 23.134 52.695 51.845l0.001 0.043v575.488c-0.458 28.754-23.875 51.888-52.696 51.888-0.266 0-0.532-0.002-0.797-0.006h0.040zM238.319 47.957h-131.55v471.040h131.55v-471.040z" />
<glyph unicode="&#xe914;" glyph-name="ico-file" horiz-adv-x="788" d="M786.983 725.268v0.394c-0.852 3.599-2.001 6.75-3.466 9.717l0.118-0.265q-0.551 1.182-1.182 2.363c-1.776 3.141-3.787 5.853-6.085 8.292l0.020-0.021-199.562 202.831c-2.358 2.274-5.039 4.238-7.96 5.813l-0.192 0.095-2.284 1.182c-2.673 1.465-5.769 2.682-9.026 3.488l-0.268 0.056h-0.315c-2.179 0.437-4.716 0.72-7.307 0.787l-0.058 0.001h-510.543c-21.468-0.2-38.795-17.65-38.795-39.147 0-0.084 0-0.167 0.001-0.251v0.013-945.231c0-0.071-0.001-0.154-0.001-0.238 0-21.497 17.326-38.947 38.776-39.147h710.124c21.451 0.222 38.755 17.664 38.755 39.146 0 0.084 0 0.168-0.001 0.251v-0.013 742.4c0 0.022 0 0.047 0 0.073 0 2.623-0.273 5.182-0.791 7.651l0.042-0.241zM655.399 757.169h-67.19v68.529zM77.627 14.769v866.462h433.231v-163.446c0-0.071-0.001-0.155-0.001-0.238 0-21.483 17.304-38.924 38.734-39.146h160.789v-663.631h-632.753zM578.048 505.108h-368.286c-21.752 0-39.385-17.633-39.385-39.385s17.633-39.385 39.385-39.385v0h368.286c21.752 0 39.385 17.633 39.385 39.385s-17.633 39.385-39.385 39.385v0zM578.048 346.782h-368.286c-21.752 0-39.385-17.633-39.385-39.385s17.633-39.385 39.385-39.385v0h368.286c21.752 0 39.385 17.633 39.385 39.385s-17.633 39.385-39.385 39.385v0zM578.048 188.455h-368.286c-21.752 0-39.385-17.633-39.385-39.385s17.633-39.385 39.385-39.385v0h368.286c21.752 0 39.385 17.633 39.385 39.385s-17.633 39.385-39.385 39.385v0z" />
<glyph unicode="&#xe915;" glyph-name="ico-facebook-with-circle" horiz-adv-x="1019" d="M509.549 960c-0.617 0.003-1.348 0.004-2.079 0.004-282.77 0-512-229.23-512-512s229.23-512 512-512c282.768 0 511.997 229.228 512 511.995v0c0.001 0.295 0.001 0.644 0.001 0.994 0 281.84-228.167 510.388-509.862 511.006h-0.059zM630.319 606.255h-76.645c-11.214-2.963-19.347-13.016-19.347-24.969 0-1.042 0.062-2.070 0.182-3.080l-0.012 0.122v-55.855h95.822v-79.127h-95.822v-238.002h-90.515v238.002h-82.044v79.127h82.044v46.856c-0.142 2.131-0.222 4.62-0.222 7.127 0 61.581 48.706 111.786 109.696 114.194l0.219 0.007h76.645v-84.402z" />
<glyph unicode="&#xe916;" glyph-name="ico-share-with-circle" horiz-adv-x="1019" d="M509.673 960h0.059c281.695-0.618 509.862-229.166 509.862-511.006 0-0.35 0-0.699-0.001-0.994v0c-0.003-282.768-229.232-511.995-512-511.995-282.77 0-512 229.23-512 512s229.23 512 512 512c0.731 0 1.462-0.002 2.079-0.004zM600.529 380.664c-0.16 0.001-0.348 0.002-0.537 0.002-18.626 0-35.75-6.431-49.273-17.193l0.161 0.124-141.591 86.264c0.75 4.105 1.179 8.829 1.179 13.653s-0.429 9.548-1.251 14.136l0.072-0.483 141.591 86.264c13.362-10.638 30.486-17.068 49.112-17.068 0.189 0 0.377 0.001 0.566 0.002h-0.029c0.535-0.012 1.165-0.019 1.797-0.019 45.946 0 83.192 37.246 83.192 83.192s-37.246 83.192-83.192 83.192c-45.946 0-83.192-37.246-83.192-83.192 0-4.937 0.43-9.774 1.255-14.474l-0.073 0.499-141.591-86.575c-13.475 10.827-30.787 17.377-49.63 17.377-0.007 0-0.013 0-0.020 0h0.001c-45.757 0-82.851-37.094-82.851-82.851s37.094-82.851 82.851-82.851v0c0.006 0 0.012 0 0.019 0 18.843 0 36.155 6.55 49.785 17.498l-0.155-0.121 141.591-86.575c-0.724-3.996-1.152-8.61-1.179-13.319v-0.024c0.647-44.455 36.836-80.244 81.384-80.244 44.952 0 81.392 36.441 81.392 81.392 0 44.949-36.436 81.388-81.384 81.392v0z" />
<glyph unicode="&#xe917;" glyph-name="ico-twitter-with-circle" horiz-adv-x="1020" d="M510.2 960c-0.617 0.003-1.348 0.004-2.079 0.004-282.77 0-512-229.23-512-512s229.23-512 512-512c282.768 0 511.997 229.228 512 511.995v0c0.001 0.305 0.001 0.665 0.001 1.025 0 281.834-228.172 510.376-509.865 510.975h-0.057zM717.576 540.47c0.217-4.344 0.31-8.688 0.31-13.033 0.006-0.702 0.010-1.531 0.010-2.362 0-157.049-127.313-284.362-284.362-284.362-0.494 0-0.988 0.001-1.482 0.004h0.076c-0.254-0.001-0.554-0.001-0.855-0.001-56.914 0-109.88 16.903-154.152 45.963l1.066-0.657c7.458-0.989 16.082-1.554 24.838-1.554 46.978 0 90.16 16.253 124.229 43.443l-0.401-0.309c-43.808 1.022-80.627 29.818-93.602 69.415l-0.202 0.713c5.626-1.184 12.092-1.862 18.715-1.862 0.064 0 0.128 0 0.192 0h-0.010c9.404 0.019 18.51 1.263 27.176 3.581l-0.739-0.168c-46.369 9.812-80.666 50.392-80.679 98.985v0.001c0 0.31 0 0.931 0 1.241 13.115-7.395 28.676-12.026 45.254-12.716l0.205-0.007c-27.096 18.483-44.653 49.21-44.653 84.038 0 0.019 0 0.038 0 0.057v-0.003c0 0.094-0.001 0.205-0.001 0.317 0 18.521 5.049 35.863 13.845 50.725l-0.253-0.463c49.667-61.012 123.285-100.879 206.311-105.164l0.692-0.028c-1.658 6.852-2.609 14.72-2.609 22.809 0 55.587 44.904 100.687 100.418 101.002h0.030c0.094 0 0.204 0.001 0.315 0.001 28.823 0 54.779-12.281 72.918-31.896l0.060-0.066c24.071 4.974 45.429 13.466 64.733 25.033l-0.935-0.519c-7.736-23.782-23.355-43.194-43.711-55.603l-0.445-0.252c21.428 2.708 40.901 8.382 58.937 16.65l-1.252-0.514c-13.653-20.587-30.253-37.967-49.426-52.047l-0.563-0.395z" />
<glyph unicode="&#xe918;" glyph-name="ico-conference" horiz-adv-x="840" d="M742.616 758.768h-644.729c-0.117 0.001-0.255 0.001-0.394 0.001-53.521 0-96.925-43.313-97.074-96.798v-380.964c0.149-53.5 43.553-96.812 97.074-96.812 0.138 0 0.277 0 0.415 0.001h283.33v-170.535h-82.67c-21.445 0-38.83-17.385-38.83-38.83s17.385-38.83 38.83-38.83h243.682c21.445 0 38.83 17.385 38.83 38.83s-17.385 38.83-38.83 38.83h-82.697v170.535h283.351c0.125-0.001 0.272-0.001 0.42-0.001 53.521 0 96.925 43.313 97.074 96.798v380.964c-0.148 53.501-43.553 96.814-97.074 96.814-0.249 0-0.498-0.001-0.747-0.003h0.038zM761.769 281.006c-0.030-10.566-8.587-19.123-19.15-19.152h-644.732c-10.56 0.045-19.108 8.593-19.152 19.148v380.954c0.045 10.56 8.593 19.108 19.148 19.152h644.864c10.566-0.030 19.123-8.587 19.152-19.15v-380.953zM48.668 795.499h743.062c21.517 0 38.961 17.443 38.961 38.961s-17.443 38.961-38.961 38.961v0h-332.387v47.488c-0.566 21.193-17.881 38.157-39.158 38.157s-38.592-16.964-39.156-38.105l-0.001-0.052v-47.488h-332.361c-21.517 0-38.961-17.443-38.961-38.961s17.443-38.961 38.961-38.961v0z" />
<glyph unicode="&#xe919;" glyph-name="ico-debat" horiz-adv-x="1222" d="M1086.526 959.432h-615.366c-0.119 0-0.261 0.001-0.402 0.001-74.292 0-134.586-59.936-135.165-134.092v-324.052c0.564-74.364 60.978-134.43 135.421-134.43 0.051 0 0.102 0 0.154 0h458.817l139.034-170.24c2.197-3.482 5.694-5.974 9.794-6.805l0.097-0.016c3.894 0 6.395 4.547 6.395 12.789v164.272h1.222c0.035 0 0.076 0 0.117 0 74.443 0 134.858 60.066 135.421 134.377v324.050c-0.563 74.207-60.85 134.147-135.137 134.147-0.141 0-0.282 0-0.424-0.001h0.022zM1137.001 501.289c-0.573-27.905-23.329-50.306-51.318-50.306-0.133 0-0.267 0.001-0.4 0.002h-85.043v-36.379l-4.121 5.116-25.579 31.263h-499.381c-27.676 0.361-50.030 22.645-50.503 50.26l-0.001 0.045v323.997c0.446 27.614 22.85 49.848 50.487 50.020h615.383c0.052 0 0.114 0 0.175 0 13.839 0 26.358-5.652 35.375-14.774l0.005-0.005c9.205-8.87 14.921-21.305 14.921-35.075 0-0.059 0-0.118 0-0.176v0.009-323.997zM278.893 445.016v129.599h-176.351c-0.102 0-0.223 0.001-0.345 0.001-56.207 0-101.829-45.323-102.311-101.417v-301.59c0.387-56.413 46.192-102 102.653-102.031h0.941v-124.199c0-6.253 1.904-9.663 4.832-9.663 3.179 0.618 5.833 2.491 7.476 5.070l0.027 0.046 105.157 128.746h347.529c56.463 0.031 102.269 45.617 102.656 101.994v139.015h-256.867c-74.394 0.11-134.737 60.114-135.396 134.367v0.063z" />
<glyph unicode="&#xe91a;" glyph-name="ico-check" d="M396.224-64l-396.224 477.44 164.096 141.44 217.6-262.4 467.2 667.52 174.912-127.36z" />
<glyph unicode="&#xe91b;" glyph-name="multiply" d="M1024 870.967l-89.033 89.033-422.967-422.967-422.967 422.967-89.033-89.033 422.967-422.967-422.967-422.967 89.033-89.033 422.967 422.967 422.967-422.967 89.033 89.033-422.967 422.967z" />
<glyph unicode="&#xe91c;" glyph-name="ico-home" horiz-adv-x="1111" d="M555.384 960.384l-555.384-558.802h162.685v-465.967h785.398v465.967h162.685zM819.875 401.583v-336.99h-528.982v336.99h264.491v127.909h-246.975l246.975 248.47 264.491-266.157v-110.222z" />
<glyph unicode="&#xe91d;" glyph-name="arrow-bold-up" d="M512 832l384-384h-179.2v-358.4h-409.6v358.4h-179.2l384 384z" />
<glyph unicode="&#xe91e;" glyph-name="ico-handicap-moteur" horiz-adv-x="769" d="M267.926 787.070c-0.419-0.007-0.914-0.011-1.409-0.011-47.753 0-86.465 38.712-86.465 86.465s38.712 86.465 86.465 86.465c47.704 0 86.385-38.632 86.465-86.318v-0.008c0.029-0.82 0.045-1.783 0.045-2.751 0-46.31-37.542-83.852-83.852-83.852-0.439 0-0.878 0.003-1.315 0.010l0.066-0.001zM674.964 108.417c10.261-14.605 27.033-24.032 46.007-24.032 8.664 0 16.869 1.966 24.193 5.475l-0.337-0.146c14.763 9.094 24.456 25.169 24.456 43.509 0 8.939-2.303 17.341-6.348 24.643l0.133-0.261-145.825 256.448c-8.456 14.79-24.137 24.596-42.109 24.596-0.147 0-0.294-0.001-0.441-0.002h-212.616l-3.049 67.891h151.896c0.476-0.021 1.034-0.034 1.595-0.034 20.677 0 37.486 16.562 37.884 37.144l0.001 0.037c-1.354 21.339-18.192 38.346-39.335 39.957l-0.144 0.009h-154.919l-6.097 74.040c-1.714 44.858-38.494 80.573-83.615 80.573-46.211 0-83.672-37.461-83.672-83.672 0-2.155 0.081-4.291 0.242-6.405l-0.017 0.281 15.192-262.341c3.691-45.041 41.155-80.197 86.831-80.197 0.439 0 0.877 0.003 1.314 0.010l-0.066-0.001h276.431zM322.597 3.379c-141.425 2.402-255.15 117.613-255.15 259.385 0 72.215 29.507 137.538 77.122 184.57l0.026 0.026c6.322 5.888 10.265 14.259 10.265 23.552 0 0.367-0.006 0.732-0.018 1.095l0.001-0.053-0.154 4.355c-0.443 16.79-14.159 30.232-31.015 30.232-8.379 0-15.982-3.322-21.565-8.72l0.009 0.008c-62.488-59.585-101.344-143.476-101.344-236.443 0-163.709 120.49-299.277 277.627-322.859l1.796-0.221c12.498-1.747 26.937-2.744 41.608-2.744 125.038 0 233.156 72.443 284.671 177.648l0.827 1.869c1.878 3.889 2.976 8.457 2.976 13.281 0 5.773-1.572 11.179-4.31 15.813l0.079-0.145-3.74 6.661c-5.382 9.386-15.344 15.607-26.759 15.607-12.326 0-22.957-7.253-27.859-17.725l-0.079-0.189c-40.548-85.677-125.915-144.080-225.020-145.004l-0.122-0.001z" />
<glyph unicode="&#xe91f;" glyph-name="ico-handicap-oeil" horiz-adv-x="1195" d="M777.216 390.997c-2.708 105.875-89.18 190.669-195.456 190.669-107.98 0-195.516-87.535-195.516-195.516s87.535-195.516 195.516-195.516c0.003 0 0.006 0 0.009 0v0c108.252 1.417 195.462 89.503 195.462 197.957 0 0.846-0.005 1.69-0.016 2.533l0.001-0.128zM726.255-63.659l-293.82 993.963 95.778 29.696 293.82-993.963zM528.521 753.152l-2.047-0.295c17.911 3.121 36.3 4.85 55.26 5.074l0.254-0.003c197.692-2.694 357.12-163.789 357.12-362.12 0-1.691-0.012-3.38-0.032-4.81v0.091c0.003-0.588 0.004-1.177 0.004-1.765 0-141.498-79.973-264.317-199.206-326.688l-30.481 99.669 1.195 0.667c77.004 46.346 128.513 130.739 128.513 227.163 0 0.304-0.001 0.607-0.001 0.864l-0.002-0.169c0.014 1.11 0.021 2.222 0.021 3.336 0 142.861-114.757 258.92-257.316 261.025-7.68 0-15.258-0.683-22.801-1.365zM184.969 228.523c-73.865 48.128-116.429 106.837-116.429 162.475l0.014 0.361c1.82 37.030 16.645 70.642 39.888 96.237zM320 166.059l-4.433 1.268c-30.54 10.085-60.042 22.453-84.758 35.255l-93.082 315.051-0.428-0.372c19.483 17.276 40.62 32.729 65.042 47.135zM268.22 75.947v0zM597.333 127.488c-5.188 0-10.24-0.341-15.599-0.341-21.641 0-42.667 1.024-63.317 2.389l-148.105 501.077c23.62 5.803 48.503 10.24 74.206 14.336l152.849-517.461zM246.682 587.605l-3.77-1.591c22.531 10.579 45.807 19.834 74.084 28.897l141.756-479.573c-28.774 4.096-56.593 8.875-82.842 15.019l-129.263 437.248zM581.734 757.931c-270.916 0-500.838-105.131-581.973-250.88l69.325-121.173c0 1.707-0.546 3.413-0.546 5.12 0 124.928 210.773 264.192 513.195 264.192s513.195-139.264 513.195-264.192c0-102.4-142.507-214.699-361.131-251.221v-103.765c265.148 40.277 461.21 183.979 461.21 354.987 0.034 202.752-274.534 366.933-613.239 366.933z" />
<glyph unicode="&#xe920;" glyph-name="ico-handicap-oreille" d="M204.669 202.24v53.563c0 14.762 11.967 26.729 26.729 26.729s26.729-11.967 26.729-26.729v-53.559c0-0.028 0-0.055 0-0.083 0-95.953 77.785-173.739 173.739-173.739 0.018 0 0.037 0 0.053 0 71.155 0 129.050 43.586 162.238 116.578l-0.551-1.652c10.091 26.551 15.616 55.352 15.616 85.443 0 1.65-0.017 3.297-0.046 4.693 0.63 14.441 0.998 21.005 1.759 29.407l0.043 0.697c1.485 19.506 5.681 38.255 11.746 54.441l0.462 1.364c12.529 32.512 33.326 60.917 60.164 82.919 2.127 2.101 9.531 8.927 10.87 10.24 4.122 3.938 7.378 6.827 10.503 9.977l0.124 0.115c14.017 13.13 26.343 28.044 37.161 45.309l-0.651-1.499c15.834 32.853 24.707 69.692 24.707 108.604 0 0.561-0.002 1.122-0.005 1.597l-0.001-0.138c0.010 0.906 0.014 1.813 0.014 2.721 0 140.283-113.722 254.005-254.005 254.005s-254.005-113.722-254.005-254.005c0-0.908 0.005-1.815 0.013-2.582v-26.519c0-14.762-11.967-26.729-26.729-26.729s-26.729 11.967-26.729 26.729v26.514c0 0.031 0 0.062 0 0.093 0 169.879 137.714 307.594 307.594 307.594s307.594-137.714 307.594-307.594c0-48.746-11.339-94.844-30.72-133.996l-0.671-1.2c-12.751-21.164-28.358-40.414-46.433-57.351-3.545-3.413-6.984-6.827-11.422-10.765-1.418-1.313-8.77-8.139-10.818-10.24l-0.302-0.234c-20.358-16.275-36.425-37.693-46.592-63.307l0.346 1.079c-4.862-13.266-7.967-27.38-9.063-42.564-0.656-7.352-0.998-13.391-1.575-27.044l-0.002 0.179c0.014-1.178 0.021-2.358 0.021-3.539 0-37.222-7.051-72.796-19.213-103.503-41.879-92.423-117.655-149.399-211.495-149.399h-0.005c-125.514 0.060-227.244 101.827-227.244 227.354 0 0.009 0 0.018 0 0.026zM380.849 643.348c-9.932-19.276-15.755-42.067-15.755-66.218 0-0.166 0-0.333 0.001-0.499v0.026c0-14.762-11.967-26.729-26.729-26.729s-26.729 11.967-26.729 26.729v0c-0.008 0.682-0.013 1.488-0.013 2.295 0 110.744 89.776 200.52 200.52 200.52s200.52-89.776 200.52-200.52c0-0.807-0.005-1.613-0.014-2.417l0.001 0.123c0.023-1.084 0.036-2.362 0.036-3.642 0-27.124-5.923-52.865-16.546-75.999l0.467 1.135c-13.437-24.9-30.651-45.968-51.143-63.278l-0.319-0.263c-2.442-2.101-11.133-10.24-12.892-11.815-22.822-18.296-40.833-41.655-52.461-68.428l-0.446-1.152c-6.491-18.293-11.252-39.583-13.383-61.643l-0.087-1.11c-1.077-9.19-1.707-15.754-3.387-34.133-0.432-38.594-8.579-75.172-22.967-108.421l0.701 1.82c-19.984-40.405-60.919-67.701-108.229-67.701-66.422 0-120.277 53.804-120.359 120.206v0.008c0 14.762 11.967 26.729 26.729 26.729s26.729-11.967 26.729-26.729v0c0-0.046 0-0.1 0-0.154 0-36.905 29.917-66.823 66.823-66.823 26.362 0 49.158 15.265 60.032 37.438l0.174 0.394c10.56 26.039 16.819 56.226 17.118 87.838l0.001 0.121c1.707 18.905 2.363 25.731 3.545 35.709 2.722 27.646 8.509 53.022 17.082 77.076l-0.698-2.245c14.786 36.239 37.529 66.605 66.184 90.004l0.402 0.318c1.838 1.575 10.503 9.715 12.839 11.815 16.061 13.206 29.39 29.048 39.481 46.958l0.429 0.829c6.779 15.299 10.726 33.143 10.726 51.909 0 1.136-0.014 2.268-0.043 3.397l0.003-0.167c0 0.057 0 0.126 0 0.194 0 81.206-65.83 147.036-147.036 147.036-37.882 0-72.418-14.326-98.486-37.855l0.129 0.115c51.231-30.91 84.962-86.27 84.962-149.509 0-73.381-45.417-136.154-109.675-161.742l-1.175-0.413c-2.926-1.196-6.321-1.89-9.878-1.89-14.777 0-26.755 11.979-26.755 26.755 0 11.372 7.095 21.087 17.1 24.96l0.183 0.062c45.312 18.016 76.761 61.491 76.761 112.311 0 46.038-25.809 86.048-63.748 106.352l-0.646 0.316zM757.445 641.51c-7.34 27.52-18.244 51.644-32.419 73.446l0.596-0.978-38.859-38.859c13.169-22.935 22.047-49.949 24.802-78.75l0.062-0.807zM1024 908.012l-52.171 52.25-207.583-207.688c13.908-19.749 25.959-42.363 35.063-66.425l0.699-2.104zM0.263-11.75l52.25-52.25 172.557 172.505c-11.446 24.791-18.641 53.679-19.862 84.104l-0.014 0.442zM800.007 684.045c-9.802 26.167-21.853 48.78-36.411 69.506l0.65-0.976-38.571-38.597c13.579-20.823 24.482-44.948 31.417-70.7l0.405-1.768z" />
<glyph unicode="&#xe921;" glyph-name="ico-handicap-visage" horiz-adv-x="854" d="M151.856 609.395c-17.845 0.083-32.279 14.569-32.279 32.425 0 0.009 0 0.017 0 0.026v-0.001c-0.456 14.843-12.598 26.702-27.509 26.702s-27.053-11.859-27.508-26.66l-0.001-0.042c0-17.827-14.452-32.279-32.279-32.279s-32.279 14.452-32.279 32.279v0c0.843 50.219 41.751 90.605 92.092 90.605s91.248-40.386 92.091-90.526l0.001-0.079c-0.027-17.868-14.47-32.353-32.319-32.45h-0.009zM748.664 705.525c-6.59 74.786-18.124 142.893-34.563 209.062l1.942-9.239c-7.943 31.615-36.115 54.653-69.668 54.653-0.065 0-0.129 0-0.194 0h-430.011s27.058-255.207 63.192-333.282c49.992-107.841 156.15-112.721 129.97-230.809-20.739-93.202-128.897-72.951-162.347-70.023 14.31-43.122 22.565-92.764 22.565-144.335 0-17.137-0.912-34.062-2.689-50.728l0.179 2.071c4.106-0.407 8.875-0.639 13.699-0.639 2.347 0 4.682 0.055 7.002 0.164l-0.328-0.012c0.332-0.003 0.724-0.005 1.117-0.005 55.593 0 103.031 34.917 121.579 84.017l0.296 0.894c5.175 11.946 16.863 20.152 30.468 20.152 2.281 0 4.508-0.231 6.66-0.67l-0.213 0.036c14.596-3.266 25.341-16.111 25.341-31.466 0-4.495-0.921-8.775-2.584-12.661l0.080 0.21c-28.695-73.667-99.069-124.92-181.413-124.92-0.159 0-0.318 0-0.477 0.001h0.025l-29.278 0.976c-12.199 0.244-2.196 7.563 0 15.859-13.527-65.735-55.867-119.472-112.94-148.272l-1.22-0.558c461.691 0 602.445-32.206 602.445 534.569 57.263 0 106.67 65.876 106.67 125.896 0.006 0.414 0.009 0.903 0.009 1.393 0 58.64-46.868 106.334-105.189 107.666l-0.124 0.002zM569.385 609.395c-17.845 0.083-32.279 14.569-32.279 32.425 0 0.009 0 0.017 0 0.026v-0.001c-0.456 14.843-12.598 26.702-27.509 26.702s-27.053-11.859-27.508-26.66l-0.001-0.042c0-17.827-14.452-32.279-32.279-32.279s-32.279 14.452-32.279 32.279v0c0.843 50.219 41.751 90.605 92.092 90.605s91.248-40.386 92.091-90.526l0.001-0.079c-0.027-17.868-14.47-32.353-32.319-32.45h-0.009zM267.040 132.895c-0.503 0.264-1.092 0.439-1.717 0.487l-0.015 0.001c-62.094 11.467-126.066 66.852-125.627 139.803 0 0.029 0 0.064 0 0.099 0 17.773-14.332 32.199-32.070 32.351h-0.258c0 0-0.001 0-0.002 0-17.716 0-32.098-14.272-32.277-31.945v-0.017c-0.586-95.642 78.831-186.16 179.523-204.702 5.17 15.892 9.103 34.521 11.055 53.736l0.095 1.16c0.195 2.684 0.732 5.856 1.293 9.027z" />
<glyph unicode="&#xe922;" glyph-name="ico-ticket" horiz-adv-x="1152" d="M906.505 730.845l50.578 29.568-115.55 199.976-841.921-486.322 115.55-199.976 50.967 29.179c11.16 6.522 24.57 10.374 38.879 10.374 29.107 0 54.493-15.934 67.91-39.556l0.202-0.386c6.788-11.407 10.8-25.152 10.8-39.834 0-28.784-15.421-53.966-38.452-67.736l-0.36-0.199-50.578-29.179 115.55-200.365 841.921 486.322-115.55 199.976-50.578-29.179c-11.027-6.176-24.197-9.813-38.217-9.813-43.812 0-79.329 35.517-79.329 79.329 0 28.601 15.136 53.667 37.834 67.624l0.344 0.197zM350.93 100.182c31.297 35.068 50.424 81.583 50.424 132.565 0 110.164-89.306 199.47-199.47 199.47-14.173 0-28-1.478-41.336-4.289l1.301 0.229 346.261 201.143 190.249-329.532-346.261-201.143zM799.903 358.517l-190.249 329.532 189.86 110.492 1.167-1.556c-2.723-2.723-4.669-6.225-7.003-8.948-2.723-3.502-5.058-6.614-7.392-9.726-4.475-6.231-8.865-13.359-12.754-20.792l-0.474-0.996c-1.556-2.723-3.112-5.447-4.669-8.559-4.308-9.032-8.291-19.765-11.342-30.884l-0.329-1.408-1.167-5.836c-2.121-8.141-3.773-17.822-4.623-27.733l-0.046-0.669c0-3.891 0-7.781-0.389-11.672 0-8.17 0-15.951 0.778-24.122 0.389-3.891 1.167-8.17 1.556-12.45 1.556-8.17 3.502-15.951 5.836-24.122 0.778-3.502 1.945-7.392 3.112-10.894 4.504-12.919 9.626-23.965 15.679-34.405l-0.506 0.946c6.585-11.334 13.66-21.135 21.584-30.173l-0.186 0.216c2.723-3.112 5.447-5.836 8.17-8.559 5.555-5.932 11.397-11.403 17.578-16.476l0.319-0.254 10.116-7.781c5.663-3.993 12.274-8.117 19.109-11.883l1.122-0.567c3.502-1.945 6.614-3.891 10.116-5.447 7.407-3.575 16.311-7.015 25.51-9.772l1.335-0.344 5.836-2.334c9.454-2.421 20.967-4.475 32.717-5.737l1.131-0.099c3.502-0.389 6.614 0 10.116-0.389 2.064-0.086 4.485-0.135 6.919-0.135 6.333 0 12.589 0.332 18.75 0.978l-0.769-0.065c4.28 0.389 8.17 0.778 12.45 1.556 3.502 0.389 7.392 0.778 11.283 1.556z" />
<glyph unicode="&#xe923;" glyph-name="ico-pencil" horiz-adv-x="1025" d="M1008.913 817.323l-127.932 128c-9.359 9.334-22.275 15.106-36.54 15.106s-27.181-5.772-36.541-15.107l-82.226-82.26c-2.341-2.367-3.787-5.622-3.787-9.216s1.446-6.849 3.788-9.217l-0.001 0.001 182.75-182.955c2.387-2.223 5.6-3.587 9.131-3.587s6.743 1.364 9.139 3.595l-0.008-0.007 82.227 82.261c9.352 9.408 15.132 22.376 15.132 36.693s-5.78 27.285-15.135 36.696l0.003-0.003zM698.3 817.323c-2.326 2.375-5.565 3.847-9.148 3.847s-6.822-1.472-9.146-3.845l-584.774-585.047c-1.419-1.377-2.492-3.101-3.084-5.036l-0.022-0.084-91.375-274.091c-0.426-1.233-0.672-2.654-0.672-4.133 0-3.58 1.443-6.824 3.779-9.18l-0.001 0.001c2.304-2.338 5.506-3.786 9.045-3.786 1.504 0 2.948 0.262 4.287 0.742l-0.089-0.028 274.091 91.477c1.966 0.689 3.652 1.738 5.057 3.077l-0.006-0.005 584.772 585.045c2.338 2.304 3.786 5.506 3.786 9.045s-1.448 6.741-3.785 9.044l-0.002 0.001zM116.053-3.243c-1.968 4.814-4.004 8.854-6.312 12.714l0.236-0.426c-4.713 7.905-10.056 14.736-16.145 20.821l-0.001 0.001c-6.076 6.067-12.909 11.379-20.344 15.781l-0.477 0.261c-3.389 2.111-7.349 4.168-11.467 5.924l-0.582 0.22 54.613 164.181c19.897-7.845 36.968-16.788 52.923-27.288l-1.075 0.664c34.534-22.939 63.24-51.733 85.39-85.24l0.694-1.117c9.902-14.813 18.825-31.789 25.911-49.693l0.645-1.849z" />
<glyph unicode="&#xe924;" glyph-name="ico-comment" horiz-adv-x="1170" d="M991.305 959.561h-812.763c-98.66-0.248-178.598-80.057-179.054-178.644v-431.075c0.414-98.707 80.341-178.608 179.018-178.98h606.025l183.662-226.231c2.881-4.628 7.525-7.929 12.97-8.977l0.123-0.020c5.12 0 8.411 5.851 8.411 16.823v218.405h1.609c98.681 0.414 178.567 80.299 178.98 178.941v431.071c-0.415 98.622-80.335 178.44-178.957 178.688h-0.024zM1058.011 349.842c-0.617-37.134-30.864-66.999-68.087-66.999-0.080 0-0.161 0-0.241 0h-111.97v-48.274l-5.413 6.729-33.719 41.545h-659.675c-36.695 0.61-66.262 30.279-66.706 66.956v431.073c0.528 36.627 30.080 66.179 66.656 66.706l0.050 0.001h812.763c36.708-0.328 66.378-29.998 66.706-66.675v-431.062z" />
<glyph unicode="&#xe925;" glyph-name="ico-label" horiz-adv-x="796" d="M724.025 960h-304.071c-2.28 0.366-4.909 0.575-7.586 0.575-27.806 0-50.347-22.541-50.347-50.347 0-0.502 0.007-1.003 0.022-1.501l-0.002 0.073h144.782c2.726 0.407 5.871 0.64 9.071 0.64 31.167 0 57.18-22.062 63.276-51.421l0.073-0.419v-634.823l217.202-184.377v870.4c-6.168 29.778-32.182 51.84-63.348 51.84-3.2 0-6.346-0.233-9.421-0.682l0.35 0.042zM362.041 806.4h-304.128c-2.262 0.36-4.871 0.565-7.528 0.565-27.837 0-50.404-22.566-50.404-50.404 0-0.479 0.007-0.956 0.020-1.432l-0.002 0.070v-819.2l217.202 184.32 217.202-184.32v819.2c-6.145 29.774-32.146 51.839-63.302 51.839-3.196 0-6.338-0.232-9.41-0.681l0.349 0.042z" />
<glyph unicode="&#xe926;" glyph-name="ico-partenaire" horiz-adv-x="1570" d="M0 960v-571.392c35.241-12.847 65.751-29.45 93.279-49.848l-0.983 0.696c56.138 75.73 144.079 125.135 243.691 128.329l0.498 0.013c0.076 0 0.165 0 0.255 0 16.001 0 30.742-5.392 42.507-14.457l-0.163 0.121 373.828-275.797c19.716-14.849 32.33-38.214 32.33-64.525 0-7.898-1.137-15.531-3.255-22.743l0.143 0.57c-14.4-51.816-39.186-96.678-72.144-134.182l0.327 0.38c21.71-11.352 47.117-18.923 74.044-21.116l0.708-0.046c48.7 1.051 93.781 15.666 131.87 40.199l-1.003-0.605 311.91 230.059-278.665 326.315c-64.79-70.539-155.207-116.65-256.394-123.499l-1.176-0.064c-49.649 1.657-94.063 22.776-126.107 55.927l-0.050 0.052c-28.25 29.784-51.942 64.263-69.72 102.072l-1.004 2.376c-5.622 10.811-8.92 23.607-8.92 37.173 0 21.52 8.298 41.103 21.869 55.721l-0.047-0.052 221.389 232.789 2.867 3.413 0.614-0.683c1.012 1.298 2.157 2.422 3.435 3.38l0.047 0.033c-32.872 24.537-74.245 39.366-119.071 39.594h-0.054c-140.561 0-238.933-47.104-411.238-98.304zM1570.133 960l-205.619-118.101c-131.686 40.277-269.653 98.304-392.533 98.304-76.968-1.121-144.771-39.37-186.435-97.599l-0.479-0.705-224.324-236.203c32.973-66.219 73.387-118.101 130.867-118.101 99.942 0 205.619 98.304 261.666 157.013l336.486-393.216c80.164 50.583 172.573 96.766 269.579 133.617l10.792 3.599v571.392zM336.486 388.608c-101.148-4.291-186.616-67.141-223.701-155.342l-0.624-1.671 317.781-236.885c28.273-24.265 65.31-39.036 105.797-39.036 2.239 0 4.467 0.045 6.683 0.135l-0.318-0.010c84.438 11.488 151.318 74.816 167.991 156.421l0.218 1.275z" />
<glyph unicode="&#xe927;" glyph-name="ico-time" d="M512 960c-282.77 0-512-229.23-512-512s229.23-512 512-512c282.77 0 512 229.23 512 512v0c0 282.77-229.23 512-512 512v0zM512 47.275c-0.017 0-0.037 0-0.057 0-221.314 0-400.725 179.411-400.725 400.725s179.411 400.725 400.725 400.725c221.314 0 400.725-179.411 400.725-400.725v0c0-221.295-179.379-400.693-400.666-400.725h-0.003zM550.969 737.394h-77.938v-305.55l189.497-189.497 55.125 55.125-166.684 166.684v273.067z" />
<glyph unicode="&#xe928;" glyph-name="menu" d="M839.68 512h-655.36c-28.262 0-30.72-22.886-30.72-51.2s2.458-51.2 30.72-51.2h655.36c28.262 0 30.72 22.886 30.72 51.2s-2.458 51.2-30.72 51.2zM839.68 307.2h-655.36c-28.262 0-30.72-22.886-30.72-51.2s2.458-51.2 30.72-51.2h655.36c28.262 0 30.72 22.886 30.72 51.2s-2.458 51.2-30.72 51.2zM184.32 614.4h655.36c28.262 0 30.72 22.886 30.72 51.2s-2.458 51.2-30.72 51.2h-655.36c-28.262 0-30.72-22.886-30.72-51.2s2.458-51.2 30.72-51.2z" />
<glyph unicode="&#xe929;" glyph-name="cross" d="M734.618 212.531c-24.013-24.013-62.925-24.013-86.886 0l-135.731 155.136-135.731-155.085c-24.013-24.013-62.925-24.013-86.886 0-24.013 24.013-24.013 62.925 0 86.886l141.21 161.28-141.261 161.382c-24.013 24.013-24.013 62.874 0 86.886s62.874 24.013 86.886 0l135.782-155.187 135.731 155.187c24.013 24.013 62.874 24.013 86.886 0s24.013-62.925 0-86.886l-141.21-161.382 141.21-161.28c24.013-24.013 24.013-62.925 0-86.938z" />
<glyph unicode="&#xe92a;" glyph-name="minus" d="M819.2 460.8c0-28.314-2.458-51.2-30.771-51.2h-552.858c-28.262 0-30.771 22.886-30.771 51.2s2.509 51.2 30.771 51.2h552.909c28.262 0 30.72-22.886 30.72-51.2z" />
<glyph unicode="&#xe92b;" glyph-name="plus" d="M819.2 460.8c0-28.314-2.458-51.2-30.771-51.2h-225.229v-225.229c0-28.262-22.886-30.771-51.2-30.771s-51.2 2.509-51.2 30.771v225.229h-225.229c-28.262 0-30.771 22.886-30.771 51.2s2.509 51.2 30.771 51.2h225.229v225.229c0 28.314 22.886 30.771 51.2 30.771s51.2-2.458 51.2-30.771v-225.229h225.229c28.314 0 30.771-22.886 30.771-51.2z" />
<glyph unicode="&#xe92c;" glyph-name="ico-close" d="M1004.854 114.355l-334.095 333.645 334.095 333.645c43.689 43.882 11.565 83.524-32.124 127.084s-82.881 75.685-127.213 32.124l-333.452-333.645-333.452 333.645c-44.332 43.882-83.524 12.079-127.213-32.124s-75.814-83.524-32.124-127.084l334.095-333.645-334.095-333.645c-43.689-43.882-11.565-83.524 32.124-127.084s82.881-75.685 127.213-32.124l333.452 333.645 333.452-333.645c44.332-43.882 83.524-12.143 127.213 32.124s75.814 83.202 32.124 127.084z" />
<glyph unicode="&#xe92d;" glyph-name="ico-cathedrale" horiz-adv-x="502" d="M401.872 442.378h-256.754v191.275l-5.584 22.509-5.584-22.509-61.382 326.347-61.401-326.328-5.584 22.509-5.584-22.509v-697.672h502.34v506.378h-100.468zM78.133 611.164l5.584 11.264 5.584-11.264v-11.245h-11.167v11.245zM55.818 611.164l5.584 11.264 5.584-11.264v-11.245h-11.167v11.245zM22.335 599.919h-11.167v11.245l5.584 11.264 5.584-11.264v-11.245zM33.483 611.164l5.584 11.264 5.584-11.264v-11.245h-11.167v11.245zM44.65 521.148l11.167 22.489 11.167-22.489v-90.035h-22.335v90.035zM66.985 397.36v-33.753h-11.167v33.753l5.584 11.264zM89.301-7.738h-33.483v90.035l16.751 22.489 16.732-22.489v-90.035zM89.301 172.312h-33.483v101.279l16.751 22.489 16.732-22.489v-101.279zM89.301 363.588h-11.167v33.753l5.584 11.264 5.584-11.264v-33.753zM100.468 431.094h-22.335v90.035l11.167 22.489 11.167-22.489v-90.035zM111.635 599.9h-11.167v11.245l5.584 11.264 5.584-11.264v-11.245zM133.951 599.9h-11.148v11.245l5.564 11.264 5.584-11.264v-11.245zM284.653-19.002h-66.966v81.572c-2.328 4.719-3.69 10.274-3.69 16.147 0 20.53 16.643 37.173 37.173 37.173s37.173-16.643 37.173-37.173c0-5.873-1.362-11.428-3.787-16.366l0.097 0.219v-81.572zM251.17 183.557c-0.126-0.001-0.276-0.001-0.425-0.001-34.146 0-61.826 27.681-61.826 61.826s27.681 61.826 61.826 61.826c34.145 0 61.826-27.68 61.826-61.825v0c0-0.052 0-0.113 0-0.174 0-33.962-27.46-61.509-61.388-61.652h-0.014zM413.039 397.36l5.584 11.264 5.584-11.264v-33.753h-11.167v33.753zM446.522-7.738h-33.483v90.035l16.732 22.489 16.751-22.489v-90.035zM446.522 172.312h-33.483v101.279l16.732 22.489 16.751-22.489v-101.279zM446.522 363.588h-11.167v33.753l5.584 11.264 5.584-11.264v-33.753z" />
<glyph unicode="&#xe92e;" glyph-name="ico-remove" horiz-adv-x="832" d="M527.104 88.96c0.001 0 0.003 0 0.005 0 24.517 0 44.435 19.694 44.795 44.126v338.594c0 24.884-20.172 45.056-45.056 45.056s-45.056-20.172-45.056-45.056v0-338.56c0.359-24.467 20.277-44.163 44.795-44.163 0.182 0 0.363 0.001 0.544 0.003h-0.028zM304.896 88.96c0.001 0 0.003 0 0.005 0 24.517 0 44.435 19.694 44.795 44.126v338.594c0 24.884-20.172 45.056-45.056 45.056s-45.056-20.172-45.056-45.056v0-338.56c0.359-24.467 20.277-44.163 44.795-44.163 0.182 0 0.363 0.001 0.544 0.003h-0.028zM0 714.24v-121.6c0.361-24.466 20.278-44.16 44.795-44.16 0.002 0 0.003 0 0.005 0h26.496v-471.040c1.148-78.365 64.944-141.451 143.474-141.451 0.613 0 1.224 0.004 1.835 0.011l-0.093-0.001h398.464c0.518-0.007 1.129-0.011 1.742-0.011 78.517 0 142.298 63.093 143.409 141.346l0.001 0.105v471.040h27.072c0.001 0 0.003 0 0.005 0 24.517 0 44.435 19.694 44.795 44.126v121.634c-0.897 64.879-53.702 117.128-118.709 117.128-0.499 0-0.997-0.003-1.494-0.009l0.076 0.001h-102.4v11.52c-0.897 64.879-53.702 117.128-118.709 117.128-0.499 0-0.997-0.003-1.494-0.009l0.076 0.001h-147.2c-0.422 0.005-0.92 0.008-1.419 0.008-65.008 0-117.812-52.249-118.708-117.044l-0.001-0.084v-11.52h-102.4c-0.269 0.002-0.588 0.003-0.907 0.003-65.006 0-117.809-52.247-118.708-117.039l-0.001-0.085zM670.336 77.44c-0.503-29.799-24.777-53.762-54.649-53.762-0.16 0-0.32 0.001-0.48 0.002h-398.44c-0.135-0.001-0.295-0.002-0.455-0.002-29.871 0-54.146 23.963-54.648 53.715l-0.001 0.047v471.040h508.672v-471.040zM312.384 842.88c0.252 16.313 13.535 29.44 29.885 29.44 0.046 0 0.092 0 0.138 0h147.193c0.039 0 0.085 0 0.131 0 16.349 0 29.632-13.127 29.884-29.417v-11.544h-207.232v11.52zM90.112 714.24c0.252 16.313 13.535 29.44 29.885 29.44 0.046 0 0.092 0 0.138 0h591.737c0.039 0 0.085 0 0.131 0 16.349 0 29.632-13.127 29.884-29.417v-78.104h-651.776v78.080z" />
<glyph unicode="&#xe92f;" glyph-name="ico-modifier" d="M262.4 85.76l652.864 650.88c7.584 7.271 12.298 17.485 12.298 28.8s-4.713 21.529-12.284 28.787l-0.014 0.013-153.6 153.6c-7.942 7.53-18.697 12.16-30.535 12.16-0.065 0-0.13 0-0.196 0h0.010c-0.017 0-0.038 0-0.059 0-11.231 0-21.374-4.658-28.602-12.148l-0.011-0.012-83.904-83.84-566.912-567.68c-6.029-4.895-9.936-12.203-10.239-20.43l-0.001-0.050-40.896-190.080c-0.359-2.179-0.563-4.69-0.563-7.249 0-11.385 4.056-21.823 10.802-29.948l-0.062 0.077c6.789-7.14 16.359-11.582 26.966-11.582 3.523 0 6.931 0.49 10.16 1.405l-0.262-0.063 192.384 39.040c8.663 0.006 16.59 3.152 22.705 8.361l-0.049-0.041zM731.072 861.44l94.144-94.080-24.576-24.32-94.144 94.080zM137.536 267.52l509.632 510.080 94.144-94.080-507.584-510.080zM982.784 17.92h-740.608c-22.622 0-40.96-18.338-40.96-40.96s18.338-40.96 40.96-40.96v0h740.864c22.622 0 40.96 18.338 40.96 40.96s-18.338 40.96-40.96 40.96v0z" />
<glyph unicode="&#xe930;" glyph-name="chevron-small-down" d="M687.002 570.419c13.875 13.722 36.301 13.722 50.074 0 13.824-13.722 13.926-35.891 0-49.613l-200.090-196.096c-13.824-13.722-36.198-13.722-50.125 0l-200.090 196.096c-13.824 13.67-13.824 35.891 0 49.613 13.875 13.722 36.301 13.722 50.074 0l175.155-160.819 175.002 160.819z" />
<glyph unicode="&#xe931;" glyph-name="ico-petition" horiz-adv-x="696" d="M253.256 242.79c-45.104 0.644-84.596 24.087-107.541 59.299l-0.307 0.502c-1.188 0-3.523 1.229-4.71 1.229l-140.698-281.805 118.415 27.443 59.802-113.459 146.596 291.226c-17.694 3.119-33.47 9.421-47.418 18.332l0.519-0.31c-7.271-1.342-15.773-2.226-24.438-2.453l-0.22-0.005zM498.319 258.355c-14.887-6.731-32.278-10.653-50.585-10.653-0.346 0-0.692 0.001-1.037 0.004h0.053c-9.38 0-17.613 1.229-26.993 2.048-16.545-11.598-36.428-19.605-57.939-22.455l-0.675-0.073 154.788-283.853 60.948 101.171 119.603-20.070-148.89 271.974c-12.668-16.663-29.29-29.693-48.497-37.801l-0.778-0.291zM341.197 406.221c-1.072-0.020-2.337-0.031-3.604-0.031-114.035 0-206.479 92.444-206.479 206.479s92.444 206.479 206.479 206.479c114.035 0 206.479-92.444 206.479-206.479 0-0.003 0-0.007 0-0.010v0c0.004-0.489 0.007-1.068 0.007-1.647 0-112.433-90.602-203.706-202.779-204.79l-0.103-0.001zM687.104 612.659c0.003 0.268 0.004 0.586 0.004 0.903 0 25.88-10.787 49.241-28.111 65.83l-0.033 0.031c4.728 10.749 7.48 23.28 7.48 36.454s-2.752 25.705-7.712 37.050l0.232-0.596c-8.908 20.935-25.020 37.366-45.155 46.469l-0.556 0.225c-1.072 23.218-10.718 43.996-25.82 59.407l0.015-0.015c-49.496 8.815-91.025 37.408-116.855 77.146l-0.413 0.678c-9.55 3.889-20.629 6.146-32.236 6.146s-22.686-2.257-32.823-6.356l0.588 0.21c-15.69 14.505-36.671 23.487-59.747 23.756h-0.054c-28.188-20.237-63.388-32.361-101.42-32.361-12.66 0-25.007 1.344-36.905 3.896l1.15-0.207c-20.674-9.181-36.8-25.479-45.533-45.715l-0.219-0.57c-47.311-3.021-84.54-42.132-84.54-89.94 0-1.646 0.044-3.281 0.131-4.905l-0.010 0.227c-23.516-9.082-41.688-27.508-50.229-50.604l-0.193-0.596c-3.889-9.716-6.145-20.979-6.145-32.768s2.256-23.052 6.359-33.379l-0.214 0.611c-14.305-16.219-23.133-37.566-23.429-60.969l-0.001-0.061c19.909-28.904 31.799-64.672 31.799-103.218 0-12.904-1.332-25.496-3.867-37.647l0.208 1.191c8.922-20.813 25.040-37.117 45.154-46.063l0.557-0.221c1.063-23.35 10.706-44.262 25.826-59.824l-0.021 0.022c15.511-16.266 37.349-26.38 61.549-26.38 1.864 0 3.714 0.060 5.548 0.178l-0.25-0.013c8.734-23.692 26.906-42.118 49.835-51l0.587-0.2c9.521-4.079 20.601-6.451 32.236-6.451s22.714 2.372 32.783 6.658l-0.548-0.207c15.724-14.965 37.049-24.172 60.524-24.172 25.693 0 48.81 11.028 64.876 28.61l0.061 0.068c10.354-2.255 22.248-3.546 34.444-3.546 84.682 0 154.82 62.267 167.127 143.514l0.116 0.935c23.499 9.091 41.656 27.516 50.188 50.604l0.193 0.596c3.909 9.778 6.177 21.11 6.177 32.973s-2.267 23.195-6.392 33.589l0.216-0.616c14.553 15.885 23.47 37.141 23.47 60.481 0 0.049 0 0.099 0 0.148v-0.008z" />
<glyph unicode="&#xe932;" glyph-name="ico-coeur" horiz-adv-x="1249" d="M350.969 960c-1.076 0.012-2.347 0.018-3.62 0.018-95.022 0-181.466-36.728-245.91-96.763l0.217 0.2c-62.454-57.63-101.436-139.893-101.436-231.26 0-91.096 38.75-173.141 100.666-230.551l0.202-0.185 461.711-440.756c16.198-14.707 37.807-23.711 61.519-23.711 21.963 0 42.122 7.725 57.908 20.605l-0.166-0.131c1.136 1.079 2.84 2.101 3.975 3.237l461.711 440.301c62.402 57.457 101.361 139.55 101.361 230.742s-38.959 173.284-101.14 230.542l-0.22 0.2c-65.608 59.934-153.315 96.649-249.597 96.649s-183.988-36.714-249.883-96.907l0.286 0.258-23.284-22.092-24.42 23.057c-64.276 59.839-150.765 96.568-245.832 96.568-1.423 0-2.845-0.008-4.264-0.025l0.216 0.002zM350.969 812.343c49.348-0.424 93.977-20.281 126.677-52.28l-0.033 0.032 85.755-81.495c16.198-14.679 37.794-23.663 61.488-23.663 21.974 0 42.144 7.728 57.939 20.614l-0.166-0.131c1.136 1.022 2.84 2.101 3.975 3.18l84.619 81.041c32.419 32.393 77.192 52.427 126.644 52.427s94.225-20.034 126.645-52.428l-0.001 0.001c34.068-32.058 55.284-77.441 55.284-127.78s-21.216-95.722-55.194-127.696l-0.090-0.084q-200.189-190.818-399.809-381.92l-399.809 382.374c-34.068 32.058-55.284 77.441-55.284 127.78s21.216 95.722 55.194 127.696l0.090 0.084c32.411 32.038 76.89 51.928 126.015 52.247h0.061z" />
<glyph unicode="&#xe933;" glyph-name="ico-analyse" horiz-adv-x="1080" d="M1069.875 232.96l-259.854 268.847 234.459 216.157c17.514 14.861 28.593 36.843 28.728 61.417v0.023c0.021 0.728 0.033 1.585 0.033 2.445 0 23.24-8.821 44.42-23.298 60.374l0.067-0.075-63.246 71.121c-15.175 16.902-36.699 27.839-60.788 29.036l-0.206 0.008c-1.011 0.042-2.196 0.067-3.388 0.067-23.035 0-43.961-9.031-59.429-23.746l0.036 0.034-101.86-90.112c-2.791-1.203-5.015-3.283-6.371-5.887l-0.034-0.071-136.229-125.859-244.792 253.393c-6.073 6.117-14.487 9.904-23.785 9.904-9.205 0-17.544-3.712-23.601-9.72l0.002 0.002-234.366-233.844c-6.202-5.883-10.060-14.183-10.060-23.385 0-0.222 0.002-0.444 0.007-0.666l-0.001 0.033c-0.004-0.19-0.006-0.413-0.006-0.637 0-9.255 3.848-17.611 10.031-23.556l0.011-0.010 235.055-241.292-158.422-148.015-4.506-4.655-159.818-287.092c-2.674-4.966-4.245-10.868-4.245-17.137 0-9.029 3.259-17.296 8.665-23.691l-0.045 0.054c6.309-6.321 14.985-10.278 24.585-10.426h0.028c0.214-0.007 0.465-0.012 0.717-0.012 4.448 0 8.587 1.324 12.044 3.6l-0.083-0.051 289.215 129.955c5.277 1.241 9.84 3.783 13.491 7.272l-0.011-0.010 167.731 155.276c46.117-47.476 269.293-278.342 271.825-280.948 6.126-6.061 14.453-9.909 23.676-10.238l0.062-0.002c0.11-0.001 0.24-0.002 0.37-0.002 9.213 0 17.507 3.937 23.292 10.22l0.020 0.022 234.366 233.658c6.205 5.995 10.058 14.39 10.058 23.685 0 0.182-0.001 0.364-0.004 0.546v-0.027c0.002 0.146 0.004 0.319 0.004 0.492 0 9.259-3.887 17.61-10.117 23.511l-0.015 0.014zM667.89 648.145l109.494 101.469 22.845-24.576-109.494-101.469zM870.046 649.449l-107.446-99.421-24.557 24.948 109.14 99.049zM936.346 868.026l62.054-69.818c3.861-4.487 6.443-10.176 7.119-16.436l0.012-0.134c-0.608-5.863-2.904-11.097-6.388-15.315l0.039 0.048-78.327-71.494-88.902 102.214 75.143 72.239c3.651 3.42 8.574 5.52 13.987 5.52 6.055 0 11.496-2.628 15.245-6.805l0.017-0.019zM270.28 114.362l-157.584-71.121 84.061 153.041zM896.335 187.159c6.191 6.129 10.031 14.623 10.054 24.013v0.004c-0.022 9.453-3.86 18.006-10.054 24.204v0c-5.964 6.282-14.376 10.191-23.701 10.191s-17.737-3.908-23.688-10.177l-0.013-0.014-122.694-122.508-40.457 41.146 64.14 65.164c6.199 6.157 10.037 14.686 10.037 24.111s-3.837 17.953-10.035 24.109l-0.002 0.002c-5.976 6.286-14.401 10.196-23.738 10.196s-17.762-3.91-23.725-10.182l-0.013-0.014-63.972-64.977-38.372 40.588 122.768 122.694c6.224 6.181 10.076 14.742 10.076 24.204s-3.852 18.023-10.074 24.202l-0.002 0.002c-6.064 6.061-14.44 9.81-23.692 9.81s-17.628-3.749-23.692-9.81l-122.526-122.507-38.54 40.96 64.289 65.35c6.159 6.176 9.967 14.698 9.967 24.111s-3.808 17.935-9.968 24.111l0.001-0.001c-5.976 6.286-14.401 10.196-23.738 10.196s-17.762-3.91-23.725-10.182l-0.013-0.014-63.972-64.977-38.391 40.588 122.88 122.694c6.152 6.214 9.953 14.765 9.953 24.204s-3.801 17.99-9.955 24.206l0.003-0.003c-6.066 6.072-14.449 9.829-23.71 9.829s-17.644-3.756-23.71-9.829v0l-122.526-122.508-38.521 40.774 64.27 65.536c6.168 6.172 9.982 14.696 9.982 24.111s-3.815 17.939-9.983 24.111v0c-6.053 6.094-14.436 9.866-23.701 9.866-9.172 0-17.481-3.697-23.517-9.682l0.002 0.002-68.459-65.536-38.633 40.96 122.787 122.694c6.161 6.21 9.968 14.762 9.968 24.204s-3.807 17.994-9.97 24.206l0.002-0.002c-6.001 6.205-14.401 10.058-23.701 10.058s-17.7-3.852-23.692-10.049l-122.535-122.517-40.737 43.008 184.562 185.623 648.713-670.999-184.432-183.203-40.42 40.96zM396.679 356.026l-138.426-126.604-20.648 22.342 136.788 126.976zM441.698 307.619l25.116-26.996-138.594-128.838-25.414 28.858z" />
<glyph unicode="&#xe934;" glyph-name="ico-laureat" horiz-adv-x="1193" d="M537.623 159.291c-2.178 4.927-4.474 10.114-6.911 14.912s-4.992 9.596-7.651 14.134c-1.297 2.204-2.697 4.538-4.059 6.872s-2.762 4.668-4.188 6.872-2.84 4.409-4.279 6.483-2.892 4.020-4.305 6.094-5.731 7.91-8.662 11.411l-2.191 2.593-2.178 2.723c-1.452 1.686-2.918 3.371-4.396 4.927s-2.969 3.112-4.474 4.538-2.969 3.112-4.474 4.409-3.021 2.853-4.564 4.149-3.125 2.334-4.655 3.631c-2.814 2.373-5.937 4.6-9.234 6.565l-0.323 0.178c-5.881 3.861-12.63 7.349-19.74 10.117l-0.748 0.256c-9.938-17.801-16.834-38.651-19.379-60.824l-0.072-0.769c-0.309-3.274-0.486-7.080-0.486-10.927 0-7.641 0.696-15.119 2.027-22.376l-0.115 0.756c1.114-6.217 2.606-11.661 4.526-16.899l-0.221 0.691c2.254-6.374 4.591-11.68 7.261-16.785l-0.336 0.706c3.149-5.677 6.317-10.508 9.794-15.091l-0.225 0.309c1.776-2.464 3.631-4.668 5.576-7.002s4.033-4.279 6.172-6.354 4.344-4.020 6.626-5.965c1.141-0.908 2.295-1.945 3.475-2.853 1.069-0.961 2.242-1.857 3.483-2.657l0.109-0.066c4.316-3.009 9.356-6.105 14.57-8.918l0.848-0.418c18.229-9.409 39.786-14.925 62.631-14.925 3.056 0 6.090 0.099 9.097 0.293l-0.41-0.021c-0.098 23.090-4.438 45.137-12.278 65.443l0.427-1.256c-1.854 5.057-3.89 10.114-6.069 15.042zM283.613 218.031c1.311-5.859 2.796-10.802 4.584-15.597l-0.266 0.815c0.882-2.464 1.828-4.798 2.84-7.261 0.519-1.167 1.024-2.334 1.595-3.501s1.18-2.334 1.789-3.371c2.464-4.538 5.187-8.947 8.143-13.356 12.288-17.103 28.349-30.742 47.018-39.871l0.739-0.326c8.787 15.138 15.061 32.86 17.727 51.741l0.090 0.775c1.372 8.431 2.177 18.174 2.217 28.098v0.040c0 4.798-0.182 9.336-0.441 14.134s-0.661 9.466-1.297 14.134c-2.198 18.327-7.018 35.018-14.11 50.448l0.43-1.044c-1.778 4.225-3.541 7.718-5.506 11.080l0.241-0.447c-0.96 1.686-2.010 3.242-3.034 4.927s-2.010 3.242-3.086 4.927c-2.343 3.364-4.634 6.28-7.075 9.062l0.098-0.114c-2.486 3.124-4.993 5.915-7.655 8.55l-0.008 0.008c-14.432-11.534-26.276-25.634-34.98-41.686l-0.355-0.716c-4.092-7.66-7.396-16.54-9.454-25.886l-0.129-0.696c-0.955-4.108-1.726-9.067-2.151-14.124l-0.027-0.399c-0.193-2.019-0.302-4.365-0.302-6.737 0-0.276 0.001-0.551 0.004-0.826v0.042c0-2.464 0.117-4.927 0.298-7.521 0.407-5.724 1.14-10.961 2.196-16.081l-0.135 0.78zM211.621 388.287c-5.118-5.516-9.612-11.73-13.296-18.45l-0.242-0.481c-3.497-6.518-6.42-14.078-8.378-22.017l-0.141-0.676c-0.493-2.075-0.934-4.279-1.297-6.354s-0.545-4.149-0.726-6.224c-0.27-2.922-0.425-6.32-0.425-9.754 0-0.993 0.013-1.983 0.039-2.97l-0.003 0.146c0.242-9.005 1.647-17.586 4.069-25.728l-0.179 0.702c5.074-17.279 13.618-32.185 24.887-44.568l-0.082 0.091c11.806 9.411 21.529 20.873 28.751 33.912l0.295 0.58c1.854 3.371 3.553 6.743 5.109 10.244s2.931 7.132 4.292 10.763c2.398 6.421 4.485 14.090 5.894 21.993l0.123 0.829c0.609 3.89 1.297 7.78 1.686 11.67s0.622 7.521 0.648 11.152c0 1.945 0 3.76-0.078 5.576s0 3.631-0.143 5.446c-0.215 3.971-0.617 7.629-1.208 11.223l0.080-0.59c-0.272 1.686-0.635 3.371-0.96 5.057s-0.622 3.501-0.998 5.187c-0.912 3.984-1.888 7.279-3.039 10.491l0.199-0.636c-1.206 3.242-2.282 6.483-3.618 9.596-1.559 3.695-3.070 6.72-4.742 9.641l0.229-0.435c-14.409-6.067-26.648-14.672-36.697-25.36l-0.051-0.055zM131.42 416.814q0.259-2.723 0.622-5.446c0.506-3.631 1.167-7.132 1.997-10.763 0.415-1.815 0.869-3.631 1.362-5.316s1.18-3.501 1.815-5.187c1.297-3.501 2.749-6.872 4.331-10.114 12.476 5.111 23.094 12.404 31.859 21.497l0.027 0.028c2.226 2.247 4.346 4.614 6.344 7.084l0.139 0.178c1.037 1.297 2.049 2.593 3.021 3.89s2.010 2.723 2.969 4.149c3.569 5.107 6.906 10.937 9.71 17.062l0.288 0.702c0.7 1.686 1.297 3.242 1.971 4.798l1.789 4.668c1.167 3.242 2.178 6.354 3.008 9.596 1.386 5.312 2.524 11.71 3.184 18.249l0.045 0.553c0.252 2.477 0.396 5.353 0.396 8.262 0 0.378-0.002 0.755-0.007 1.131l0.001-0.057c0 3.112-0.324 6.094-0.454 9.207-0.463 6.603-1.621 12.746-3.409 18.614l0.155-0.59c-13.427-2.193-25.39-7.167-35.727-14.323l0.289 0.189c-5.619-3.868-10.502-8.183-14.816-13.017l-0.070-0.080c-2.158-2.439-4.261-5.102-6.212-7.879l-0.193-0.29c-1.741-2.585-3.496-5.6-5.060-8.726l-0.218-0.48c-1.362-2.641-2.805-5.935-4.062-9.318l-0.217-0.666c-0.622-1.686-1.193-3.501-1.712-5.187-0.448-1.394-0.897-3.181-1.247-5.004l-0.050-0.312c-1.353-6.373-2.128-13.695-2.128-21.198 0-0.161 0-0.321 0.001-0.482v0.025c0-0.908 0-1.815 0-2.723zM106.9 504.212c10.014 1.544 18.972 5.107 26.779 10.269l-0.248-0.154c4.275 2.913 8.014 5.94 11.488 9.242l-0.038-0.036c3.675 3.542 6.994 7.4 9.932 11.548l0.169 0.252c2.795 3.824 5.322 8.169 7.378 12.771l0.182 0.455c1.976 3.928 3.746 8.539 5.061 13.337l0.126 0.537c0.545 1.913 1.060 4.324 1.434 6.782l0.044 0.35c0.195 1.167 0.324 2.334 0.48 3.501s0.337 2.464 0.467 3.631c0.235 2.158 0.37 4.662 0.37 7.197s-0.134 5.038-0.396 7.504l0.026-0.307c-0.094 0-0.206 0.001-0.318 0.001-9.928 0-19.332-2.248-27.729-6.262l0.388 0.167c-4.79-2.296-8.915-4.888-12.704-7.886l0.139 0.106c-4.107-3.311-7.687-7.018-10.765-11.122l-0.114-0.159c-2.981-4.051-5.684-8.65-7.895-13.521l-0.196-0.484c-0.903-1.932-1.887-4.421-2.743-6.968l-0.161-0.553c-0.652-2.095-1.291-4.759-1.777-7.476l-0.064-0.434c-0.892-4.731-1.402-10.174-1.402-15.736 0-0.166 0-0.332 0.001-0.498v0.026c0.013-2.893 0.243-5.723 0.676-8.485l-0.041 0.315c0.35-2.593 0.882-5.316 1.452-7.91zM99.742 616.506c-0.091-2.334-0.091-4.668 0-7.002 0.482-0.015 1.050-0.023 1.619-0.023 8.033 0 15.673 1.678 22.59 4.703l-0.363-0.142c4.256 1.926 7.873 3.96 11.291 6.266l-0.269-0.171c3.814 2.642 7.156 5.412 10.243 8.44l-0.012-0.012c3.034 3.055 5.778 6.405 8.185 10.001l0.153 0.243c1.154 1.815 2.321 3.631 3.397 5.446s2.049 3.76 2.918 5.705c1.555 3.379 2.923 7.359 3.894 11.491l0.087 0.439c1.017 3.591 1.754 7.793 2.063 12.113l0.012 0.205c-2.693 0.47-5.794 0.738-8.958 0.738-5.429 0-10.674-0.791-15.626-2.263l0.387 0.099c-4.449-1.289-8.321-2.967-11.92-5.062l0.25 0.134c-4.049-2.301-7.537-4.968-10.621-8.041l0.001 0.001c-6.57-6.235-11.703-13.916-14.895-22.539l-0.134-0.412c-1.469-3.829-2.713-8.362-3.516-13.046l-0.062-0.44c-0.386-2.025-0.643-4.392-0.712-6.807l-0.001-0.065zM478.584 63.076q-9.66-0.778-19.45-2.334c-1.634-0.259-3.255-0.519-4.876-0.648l-4.863-0.778c-3.255-0.389-6.483-1.037-9.777-1.686s-6.561-1.297-9.842-2.075-6.483-1.297-9.777-2.075c-6.483-1.426-13.123-3.371-19.697-5.316s-12.863-3.89-19.074-6.094-12.306-4.798-18.037-7.261c-12.461-5.433-23.077-11.285-33.081-17.981l0.755 0.476c-19.057-12.069-34.312-28.554-44.587-48.068l-0.33-0.688c13.613-8.007 29.384-15.205 45.915-20.745l1.79-0.52c8.377-2.593 16.857-4.798 25.234-6.743 4.175-0.908 8.493-1.556 12.747-2.204s8.519-1.037 12.747-1.426 8.416-0.778 12.63-0.908 8.441-0.13 12.604 0 8.286 0.259 12.37 0.648c2.036 0.13 4.059 0.259 6.081 0.519s4.046 0.519 6.056 0.908c9.109 1.348 16.998 3.067 24.689 5.255l-1.348-0.328c4.568 1.184 8.271 2.381 11.885 3.76l-0.773-0.259c3.644 1.426 7.21 2.853 10.685 4.409s6.821 3.112 10.036 4.668 6.315 3.371 9.297 5.316c6.165 4.007 11.496 8.018 16.537 12.356l-0.199-0.167c4.868 4.089 9.237 8.416 13.229 13.075l0.127 0.151c3.643 4.32 7.107 9.105 10.208 14.137l0.295 0.515c10.54 17.145 16.783 37.911 16.783 60.136 0 1.105-0.015 2.206-0.046 3.304l0.004-0.162c-9.541 0.742-20.66 1.166-31.878 1.166-15.874 0-31.55-0.847-46.985-2.499l1.918 0.166zM342.263 121.816c-16.675 11.295-35.76 21.561-55.877 29.829l-2.124 0.773q-7.612 3.112-15.56 5.835l-4.007 1.167-3.89 1.297c-2.593 0.908-5.303 1.686-8.001 2.464-5.381 1.556-10.944 2.723-16.507 3.89s-11.061 2.204-16.74 3.112c-2.853 0.389-5.68 0.648-8.506 0.908l-8.338 0.778c-5.446 0.389-10.853 0.648-16.183 0.519-10.898-0.047-21.514-1.13-31.791-3.157l1.059 0.174c-19.697-3.631-37.010-11.997-51.297-23.876l0.181 0.147c4.162-5.576 8.545-10.892 13.11-16.079s9.712-9.985 14.821-14.653c2.593-2.334 5.187-4.538 7.78-6.872 2.684-2.075 5.485-4.149 8.273-6.224q8.39-6.030 17.077-11.281c21.247-12.848 46.572-21.146 73.676-22.925l0.495-0.026c2.389-0.148 5.182-0.232 7.994-0.232 3.511 0 6.992 0.131 10.438 0.389l-0.459-0.028c6.269 0.557 11.97 1.52 17.512 2.887l-0.785-0.164c29.516 6.701 53.69 25.515 67.447 50.814l0.266 0.535zM137.839 222.959c2.918-0.363 6.295-0.571 9.72-0.571 1.032 0 2.060 0.019 3.084 0.056l-0.148-0.004c4.389 0.134 8.565 0.553 12.65 1.242l-0.539-0.075c15.829 2.674 29.781 9.286 41.25 18.789l-0.144-0.116c-10.333 14.994-21.895 28.014-34.862 39.482l-0.227 0.197c-6.332 5.556-13.26 10.965-20.491 15.969l-0.762 0.499q-5.589 3.696-11.567 7.002c-1.997 1.167-4.020 2.204-6.081 3.242s-4.007 2.075-6.069 3.112c-6.939 3.403-15.184 6.582-23.728 9.059l-1.116 0.277c-7.035 2.103-15.28 3.665-23.766 4.378l-0.457 0.031c-2.42 0.227-5.233 0.356-8.076 0.356-13.354 0-26.042-2.852-37.487-7.98l0.581 0.233c1.906-4.927 3.994-9.725 6.276-14.523 2.513-5.498 5.027-10.091 7.821-14.488l-0.287 0.483q4.201-6.808 8.882-13.226c1.556-2.075 3.138-4.149 4.772-6.224s3.449-3.89 5.187-5.835q5.342-5.641 11.061-10.892c1.893-1.686 3.89-3.371 5.77-4.927s4.085-3.112 6.159-4.538c3.55-2.515 7.706-5.134 11.997-7.538l0.723-0.372c3.689-2.124 8.062-4.216 12.594-5.989l0.684-0.236c7.725-3.198 16.703-5.61 26.059-6.816l0.536-0.056zM38.992 392.437c0.703-0.722 1.439-1.4 2.21-2.037l0.047-0.037 2.386-2.075c1.608-1.297 3.255-2.464 4.914-3.631 5.818-4.291 12.447-8.074 19.502-11.044l0.636-0.238c1.686-0.648 3.371-1.297 5.057-1.815s3.436-1.037 5.187-1.426c2.873-0.768 6.342-1.407 9.889-1.788l0.316-0.028c2.41-0.267 5.205-0.42 8.035-0.42 10.882 0 21.238 2.253 30.626 6.318l-0.5-0.193c-1.154 3.631-2.477 7.132-3.89 10.633-0.726 1.815-1.53 3.501-2.308 5.187s-1.491 3.501-2.295 5.187c-1.621 3.371-3.371 6.743-5.278 9.985-0.96 1.686-1.945 3.242-2.969 4.927l-1.569 2.334-1.504 2.464c-4.414 6.76-9.024 12.647-14.084 18.112l0.080-0.088-3.89 4.149c-1.297 1.426-2.593 2.723-4.046 4.149-2.762 2.593-5.667 5.187-8.714 7.651-2.7 2.188-5.735 4.407-8.877 6.475l-0.433 0.268c-2.66 1.937-5.707 3.87-8.875 5.61l-0.448 0.225c-5.479 3.113-11.849 5.925-18.512 8.090l-0.744 0.209c-7.234 2.445-15.566 3.855-24.227 3.855-5.19 0-10.262-0.507-15.168-1.473l0.495 0.081c1.405-9.819 3.384-18.492 5.991-26.888l-0.325 1.213c1.539-4.919 3.105-8.957 4.896-12.871l-0.279 0.682c1.738-4.020 3.631-7.91 5.667-11.8 4.32-7.925 9.124-14.767 14.596-21.007l-0.112 0.13c2.765-3.269 5.548-6.229 8.478-9.038l0.041-0.039zM15.262 566.194c0.272-1.556 0.635-2.982 0.998-4.538q1.089-4.474 2.593-8.947c2.123-6.402 4.58-11.888 7.508-17.073l-0.247 0.475c3.234-5.439 6.761-10.15 10.726-14.453l-0.054 0.059c3.73-4.123 7.876-7.754 12.405-10.867l0.238-0.154c4.004-2.693 8.608-4.978 13.506-6.624l0.407-0.119c5.504-1.969 11.854-3.108 18.47-3.108 3.555 0 7.033 0.329 10.406 0.957l-0.349-0.054c-0.246 2.723-0.622 5.576-1.102 8.299s-1.141 5.446-1.699 8.169c-1.37 6.146-3.095 11.474-5.253 16.574l0.235-0.625c-1.063 2.593-2.269 5.187-3.54 7.78s-2.49 4.927-3.89 7.391c-3.091 5.193-6.381 9.688-10.044 13.844l0.086-0.099c-3.637 4.19-7.5 7.967-11.65 11.409l-0.163 0.131c-3.778 3.044-8.029 5.803-12.551 8.107l-0.416 0.192c-7.756 4.094-16.951 6.497-26.707 6.497-0.435 0-0.869-0.005-1.301-0.014l0.064 0.001c-0.054-1.339-0.085-2.912-0.085-4.491 0-4.952 0.304-9.833 0.895-14.626l-0.058 0.574c0.117-1.556 0.324-3.112 0.571-4.668zM32.119 655.536c0.685-2.858 1.467-5.281 2.41-7.622l-0.128 0.36c1.995-5.17 4.302-9.613 7.026-13.756l-0.167 0.27c2.675-4.17 5.672-7.785 9.052-10.999l0.025-0.023c8.989-8.376 21.008-13.604 34.244-13.874l0.054-0.001c0.207 2.334 0.311 4.798 0.311 7.132s-0.13 4.798-0.195 7.132c-0.217 5.132-0.877 9.981-1.945 14.676l0.104-0.542c-2.227 10.141-5.869 19.114-10.767 27.244l0.225-0.403c-2.667 4.246-5.462 7.932-8.545 11.354l0.065-0.073c-2.885 3.23-6.068 6.088-9.538 8.569l-0.174 0.118c-6.345 4.726-14.017 8.033-22.36 9.301l-0.28 0.035c-1.018-4.591-1.728-9.976-1.976-15.481l-0.007-0.209c-0.005-0.371-0.008-0.809-0.008-1.248 0-5.052 0.404-10.010 1.181-14.844l-0.070 0.531c0.298-2.593 0.817-5.057 1.426-7.651zM109.752 718.166c-3.479-6.619-5.943-14.332-6.944-22.497l-0.033-0.325c2.555-0.456 5.497-0.716 8.5-0.716 12.246 0 23.48 4.333 32.253 11.549l-0.088-0.070c11.647 9.042 19.952 21.903 23.049 36.678l0.071 0.407c-4.067 1.293-8.744 2.038-13.595 2.038-10.429 0-20.053-3.444-27.798-9.256l0.12 0.086c-6.331-4.842-11.544-10.795-15.423-17.607l-0.151-0.287zM126.972 782.093c-3.687-5.299-6.553-11.49-8.241-18.151l-0.084-0.392c3.715-1.147 7.985-1.808 12.41-1.808 8.624 0 16.662 2.51 23.423 6.84l-0.174-0.104c2.95 1.868 5.513 3.834 7.888 6.003l-0.043-0.039c2.48 2.089 4.669 4.385 6.588 6.898l0.077 0.105c3.64 4.751 6.626 10.252 8.681 16.188l0.123 0.41c-4.621 2.075-10.017 3.284-15.695 3.284-7.376 0-14.276-2.040-20.166-5.587l0.176 0.098c-3.118-1.817-5.816-3.834-8.26-6.118l0.026 0.024c-2.58-2.221-4.815-4.736-6.684-7.517l-0.084-0.133zM146.319 832.405c-0.872-0.972-1.723-2.029-2.516-3.129l-0.077-0.113c-0.778-1.167-1.491-2.334-2.165-3.501-1.221-2.164-2.352-4.692-3.25-7.328l-0.096-0.323c3.874-1.631 8.377-2.578 13.102-2.578 5.811 0 11.287 1.433 16.094 3.965l-0.189-0.091c5.008 2.377 9.268 5.513 12.829 9.313l0.021 0.023c1.677 1.849 3.229 3.883 4.599 6.042l0.108 0.182c1.352 1.975 2.602 4.233 3.632 6.608l0.102 0.264c-4.039 2.138-8.79 3.499-13.832 3.757l-0.082 0.003c-0.302 0.010-0.658 0.015-1.015 0.015-5.133 0-9.997-1.153-14.347-3.214l0.204 0.087c-5.172-2.502-9.546-5.861-13.121-9.938l-0.040-0.047zM183.314 860.414c4.506 1.737 8.378 4.151 11.702 7.16l-0.032-0.028c3.159 3.047 5.851 6.55 7.977 10.407l0.114 0.226c-4.168 2.708-9.267 4.319-14.742 4.319-3.56 0-6.961-0.681-10.080-1.92l0.185 0.065c-9.029-3.465-16.097-10.318-19.767-18.963l-0.086-0.228c3.911-2.057 8.547-3.265 13.464-3.265 4.049 0 7.908 0.819 11.418 2.3l-0.193-0.072zM197.577 895.554c1.818 0.574 3.371 1.233 4.847 2.019l-0.153-0.074c1.655 0.985 3.047 1.927 4.384 2.938l-0.118-0.085c2.633 2.084 4.835 4.575 6.544 7.398l0.069 0.123c-3.337 2.444-7.523 3.91-12.052 3.91-2.178 0-4.277-0.339-6.247-0.968l0.145 0.040c-6.898-2.17-12.445-6.914-15.621-13.079l-0.069-0.147c3.226-2.003 7.141-3.191 11.333-3.191 2.459 0 4.822 0.409 7.026 1.162l-0.153-0.045zM205.358 922.915c1.101-0.23 2.366-0.362 3.662-0.362 1.699 0 3.346 0.227 4.911 0.652l-0.131-0.030c5.88 1.376 10.755 4.939 13.821 9.764l0.054 0.090c-2.938 2.378-6.72 3.817-10.839 3.817-1.573 0-3.096-0.21-4.545-0.603l0.121 0.028c-6.013-1.484-10.983-5.177-14.104-10.148l-0.056-0.096c1.983-1.486 4.353-2.573 6.929-3.093l0.112-0.019zM97.732 696.123c1.436 5.352 2.261 11.498 2.261 17.835 0 2.212-0.1 4.401-0.297 6.561l0.020-0.278c-0.49 8.693-2.58 16.781-5.979 24.14l0.17-0.411c-5.561 13.999-16.905 24.673-31.003 29.208l-0.351 0.098c-2.686-7.008-4.242-15.113-4.242-23.583 0-9.91 2.13-19.322 5.957-27.804l-0.172 0.427c6.138-13.653 18.497-23.551 33.366-26.154l0.27-0.039zM87.994 790.522c3.849-12.327 13.425-21.818 25.533-25.475l0.271-0.070c2.447 5.971 3.969 12.89 4.199 20.135l0.002 0.093c0.022 0.692 0.034 1.505 0.034 2.321 0 2.836-0.149 5.638-0.439 8.397l0.029-0.344c-0.458 3.835-1.236 7.303-2.327 10.629l0.109-0.385c-2.126 6.644-5.364 12.391-9.539 17.319l0.060-0.073c-3.87 4.528-8.721 8.102-14.234 10.41l-0.25 0.093c-3.882-7.84-6.154-17.071-6.154-26.833 0-1.966 0.092-3.911 0.272-5.83l-0.019 0.245c0.488-3.969 1.348-7.564 2.562-10.992l-0.111 0.359zM133.56 819.957c1.107 2.17 2.154 4.747 2.989 7.418l0.097 0.362c0.402 1.426 0.739 2.723 1.024 4.149s0.609 2.723 0.83 4.149c0.343 2.092 0.54 4.504 0.54 6.961 0 3.508-0.4 6.922-1.156 10.2l0.059-0.304c-1.247 5.523-3.453 10.388-6.453 14.653l0.087-0.13c-2.848 3.939-6.535 7.099-10.812 9.258l-0.171 0.078c-1.401-2.242-2.732-4.844-3.841-7.56l-0.127-0.35c-0.929-2.46-1.722-5.381-2.241-8.395l-0.042-0.293c-0.455-2.387-0.715-5.133-0.715-7.94 0-3.343 0.369-6.6 1.069-9.732l-0.056 0.296c2.293-10.369 9.353-18.715 18.71-22.742l0.209-0.080zM154.112 863.785c4.011 6.425 6.389 14.228 6.389 22.586 0 1.774-0.107 3.523-0.315 5.24l0.020-0.207c-0.978 9.095-5.957 16.858-13.116 21.586l-0.11 0.068c-2.852-3.91-5.046-8.503-6.308-13.47l-0.059-0.275c-0.81-2.934-1.276-6.304-1.276-9.782 0-1.763 0.12-3.499 0.351-5.198l-0.022 0.198c1.232-9.043 6.697-16.59 14.298-20.675l0.147-0.072zM175.080 900.352c3.736 5.093 5.978 11.484 5.978 18.399 0 0.552-0.014 1.101-0.043 1.646l0.003-0.076c-0.236 6.773-3.616 12.711-8.718 16.426l-0.061 0.042c-4.169-4.958-6.702-11.413-6.702-18.46 0-0.668 0.023-1.331 0.068-1.987l-0.005 0.089c0.368-6.776 4.015-12.626 9.371-16.030l0.082-0.049zM194.245 928.879c3.852 4.458 6.198 10.31 6.198 16.71 0 0.006 0 0.012 0 0.019v-0.001c0 0.047 0.001 0.103 0.001 0.159 0 5.765-2.616 10.919-6.726 14.339l-0.030 0.024c-4.065-4.521-6.56-10.525-6.587-17.111v-0.006c0-0.003 0-0.007 0-0.011 0-2.98 0.734-5.789 2.031-8.255l-0.047 0.097c1.265-2.408 3.006-4.406 5.112-5.931l0.049-0.034zM862.043 17.303c-9.245 6.216-19.857 12.068-30.978 16.979l-1.336 0.526c-5.744 2.464-11.852 5.057-18.050 7.261s-12.578 4.279-19.074 6.094-13.161 3.89-19.697 5.316c-3.268 0.778-6.483 1.426-9.764 2.075s-6.574 1.556-9.842 2.075-6.483 1.297-9.79 1.686l-4.863 0.778c-1.621 0.13-3.242 0.389-4.876 0.648q-9.803 1.556-19.45 2.334c-13.519 1.486-29.197 2.333-45.073 2.333-11.221 0-22.343-0.423-33.351-1.255l1.465 0.089c-0.026-0.918-0.041-1.999-0.041-3.084 0-22.244 6.242-43.031 17.071-60.703l-0.289 0.508c3.396-5.548 6.86-10.332 10.651-14.833l-0.148 0.18c4.119-4.81 8.487-9.138 13.185-13.086l0.171-0.14c4.846-4.17 10.18-8.182 15.771-11.833l0.58-0.356c2.969-1.945 6.069-3.631 9.284-5.316s6.574-3.242 10.049-4.668 7.028-2.982 10.672-4.409c2.842-1.12 6.545-2.318 10.327-3.323l0.786-0.178c6.34-1.859 14.228-3.578 22.281-4.796l1.059-0.132c2.010-0.389 4.033-0.648 6.056-0.908s4.046-0.389 6.081-0.519c4.085-0.389 8.208-0.519 12.37-0.648s8.377-0.13 12.604 0 8.403 0.519 12.63 0.908 8.48 0.908 12.747 1.426 8.571 1.297 12.747 2.204c8.429 1.945 16.857 4.149 25.234 6.743 18.327 6.065 34.103 13.262 48.924 21.916l-1.205-0.65c-10.621 20.203-25.887 36.687-44.442 48.451l-0.514 0.305zM1006.456 172.387c-5.342 0.13-10.737-0.13-16.196-0.519l-8.338-0.778c-2.827-0.259-5.654-0.519-8.506-0.908-5.68-0.908-11.268-1.815-16.74-3.112s-11.126-2.334-16.507-3.89c-2.697-0.778-5.355-1.556-8.001-2.464l-3.955-1.297-4.007-1.167c-5.303-1.815-10.503-3.76-15.56-5.835-22.246-9.042-41.336-19.307-59.148-31.323l1.134 0.721c14.026-25.836 38.206-44.651 67.044-51.218l0.683-0.131c4.758-1.203 10.459-2.166 16.286-2.691l0.441-0.032c2.988-0.23 6.472-0.362 9.986-0.362 2.814 0 5.609 0.084 8.381 0.25l-0.382-0.018c27.599 1.807 52.923 10.105 74.916 23.368l-0.745-0.417c5.77 3.501 11.476 7.261 17.065 11.281 2.788 2.075 5.589 4.149 8.273 6.224 2.593 2.334 5.187 4.538 7.78 6.872 5.109 4.668 10.127 9.466 14.821 14.653s8.947 10.503 13.11 16.079c-14.105 11.735-31.418 20.101-50.431 23.624l-0.685 0.105c-9.227 1.854-19.852 2.938-30.722 2.982h-0.036zM1118.309 325.527c-8.943-0.744-17.187-2.306-25.105-4.631l0.883 0.222c-9.663-2.757-17.908-5.936-25.79-9.749l0.946 0.413c-2.062-1.037-4.072-2.075-6.069-3.112s-4.085-2.075-6.081-3.242c-3.981-2.204-7.845-4.538-11.554-7.002-7.998-5.504-14.931-10.913-21.53-16.694l0.264 0.226c-13.193-11.665-24.755-24.685-34.623-38.966l-0.466-0.713c11.328-9.38 25.277-15.99 40.591-18.6l0.514-0.072c3.545-0.614 7.722-1.033 11.971-1.164l0.14-0.003c0.875-0.033 1.903-0.052 2.936-0.052 3.425 0 6.802 0.207 10.119 0.61l-0.399-0.039c9.884 1.265 18.853 3.677 27.284 7.132l-0.715-0.259c5.217 2.008 9.589 4.1 13.774 6.484l-0.496-0.26c5.015 2.776 9.17 5.394 13.175 8.213l-0.454-0.303c2.075 1.426 4.162 2.982 6.159 4.538s3.89 3.242 5.783 4.927q5.705 5.252 11.048 10.892c1.764 1.945 3.553 3.89 5.187 5.835s3.229 4.149 4.785 6.224c3.099 4.279 6.069 8.688 8.869 13.226 2.511 3.914 5.029 8.506 7.241 13.27l0.306 0.735c2.269 4.798 4.357 9.596 6.263 14.523-10.865 4.896-23.553 7.748-36.908 7.748-2.847 0-5.664-0.13-8.445-0.383l0.358 0.026zM1154.058 469.59c-7.41-2.371-13.785-5.183-19.793-8.571l0.525 0.272c-3.616-1.965-6.664-3.898-9.574-6.008l0.251 0.173c-3.151-2.075-6.263-4.279-9.31-6.743s-5.952-5.057-8.714-7.651c-1.387-1.426-2.723-2.723-4.033-4.149l-3.89-4.149c-4.98-5.377-9.59-11.264-13.691-17.516l-0.313-0.508-1.504-2.464-1.569-2.334c-1.024-1.686-2.010-3.242-2.969-4.927-1.906-3.242-3.657-6.613-5.265-9.985-0.804-1.686-1.582-3.501-2.308-5.187s-1.569-3.371-2.308-5.187c-1.465-3.501-2.775-7.002-3.89-10.633 8.892-3.872 19.252-6.125 30.137-6.125 2.831 0 5.627 0.152 8.379 0.449l-0.341-0.030c3.858 0.409 7.322 1.048 10.69 1.926l-0.498-0.11c1.712 0.389 3.423 0.908 5.187 1.426s3.371 1.167 5.057 1.815c7.691 3.207 14.32 6.99 20.405 11.469l-0.267-0.188c1.66 1.167 3.307 2.334 4.914 3.631l2.399 2.075c0.752 0.648 1.504 1.297 2.256 2.075 2.984 2.853 5.78 5.813 8.42 8.91l0.139 0.167c5.361 6.11 10.164 12.952 14.186 20.283l0.298 0.593c2.036 3.89 3.89 7.78 5.667 11.8 1.533 3.26 3.1 7.299 4.414 11.45l0.202 0.739c2.278 7.173 4.26 15.844 5.566 24.736l0.113 0.939c-4.424 0.89-9.51 1.4-14.715 1.4-8.67 0-17.010-1.414-24.801-4.024l0.551 0.16zM1138.122 574.622c-4.313-3.574-8.175-7.35-11.71-11.42l-0.103-0.121c-3.578-4.057-6.867-8.552-9.729-13.332l-0.229-0.413c-1.426-2.464-2.723-4.927-3.89-7.391s-2.477-5.187-3.54-7.78c-1.915-4.469-3.64-9.796-4.894-15.303l-0.124-0.647c-0.558-2.723-1.219-5.446-1.699-8.169s-0.856-5.576-1.102-8.299c3.024-0.575 6.503-0.904 10.058-0.904 6.616 0 12.965 1.138 18.864 3.23l-0.395-0.122c5.305 1.762 9.91 4.047 14.12 6.874l-0.207-0.131c4.769 3.264 8.915 6.895 12.589 10.961l0.054 0.061c3.915 4.241 7.443 8.953 10.458 14.006l0.214 0.387c2.682 4.709 5.139 10.196 7.065 15.926l0.196 0.672q1.465 4.474 2.593 8.947c0.35 1.556 0.713 2.982 0.985 4.538s0.454 3.112 0.648 4.668c0.525 4.212 0.824 9.088 0.824 14.033 0 1.586-0.031 3.165-0.092 4.736l0.007-0.226c-0.368 0.008-0.802 0.013-1.237 0.013-9.756 0-18.951-2.403-27.026-6.649l0.318 0.153c-4.964-2.497-9.236-5.256-13.178-8.412l0.146 0.113zM1129.045 676.413c-3.018-3.349-5.813-7.035-8.283-10.947l-0.197-0.334c-4.669-7.728-8.306-16.701-10.419-26.247l-0.11-0.594c-0.968-4.151-1.632-9-1.848-13.965l-0.006-0.169c0-2.334-0.207-4.798-0.195-7.132s0.104-4.798 0.311-7.132c8.685 0.027 16.826 2.333 23.864 6.349l-0.238-0.125c4.074 2.183 7.585 4.726 10.709 7.673l-0.024-0.023c3.376 3.24 6.351 6.853 8.871 10.787l0.141 0.235c2.558 3.873 4.864 8.316 6.692 12.998l0.168 0.487c0.824 1.991 1.607 4.414 2.21 6.907l0.072 0.354c0.622 2.593 1.128 5.057 1.517 7.651 0.707 4.302 1.111 9.26 1.111 14.312 0 0.439-0.003 0.877-0.009 1.314l0.001-0.066c-0.256 5.714-0.966 11.099-2.1 16.326l0.116-0.636c-8.623-1.304-16.296-4.611-22.775-9.432l0.135 0.096c-3.637-2.604-6.815-5.461-9.65-8.632l-0.049-0.056zM708.566 94.715c6.062 3.232 11.102 6.327 15.947 9.683l-0.53-0.347c1.35 0.866 2.523 1.762 3.617 2.745l-0.025-0.022c1.18 0.908 2.334 1.945 3.475 2.853 2.282 1.945 4.5 3.89 6.639 5.965s4.188 4.149 6.159 6.354 3.799 4.538 5.576 7.002c3.253 4.274 6.42 9.105 9.246 14.153l0.324 0.629c2.334 4.398 4.67 9.705 6.643 15.185l0.281 0.894c1.702 4.547 3.199 9.991 4.225 15.599l0.093 0.61c1.211 6.486 1.903 13.948 1.903 21.571 0 3.864-0.178 7.687-0.526 11.46l0.036-0.484c-2.622 22.943-9.518 43.792-19.885 62.445l0.435-0.852c-7.863-3.025-14.617-6.513-20.922-10.632l0.421 0.258c-3.62-2.143-6.743-4.37-9.663-6.83l0.106 0.087c-1.53-1.297-3.112-2.464-4.655-3.631s-3.060-2.723-4.564-4.149-2.969-2.982-4.474-4.409-2.995-2.982-4.474-4.538-2.943-3.242-4.396-4.927l-2.178-2.723-2.191-2.593c-2.931-3.501-5.809-7.261-8.662-11.411-1.413-2.075-2.866-4.149-4.305-6.094s-2.866-4.279-4.279-6.483-2.814-4.538-4.188-6.872-2.71-4.668-4.046-6.872c-2.671-4.538-5.187-9.336-7.663-14.134s-4.733-9.985-6.911-14.912-4.214-9.985-6.069-15.042c-7.414-19.050-11.753-41.097-11.852-64.145v-0.041c2.606-0.174 5.649-0.274 8.716-0.274 22.844 0 44.4 5.517 63.408 15.291l-0.78-0.364zM842.852 135.561c19.408 9.456 35.469 23.095 47.502 39.825l0.255 0.372c2.956 4.409 5.692 8.818 8.143 13.356 0.609 1.037 1.219 2.204 1.789 3.371s1.076 2.334 1.595 3.501c1.024 2.464 1.971 4.798 2.84 7.261 1.516 3.966 3.005 8.908 4.174 13.973l0.157 0.81c0.911 4.331 1.638 9.569 2.026 14.902l0.023 0.399c0.182 2.593 0.272 5.057 0.285 7.521 0.004 0.277 0.006 0.604 0.006 0.931 0 2.32-0.111 4.614-0.327 6.878l0.022-0.288c-0.456 5.464-1.222 10.424-2.305 15.264l0.139-0.741c-2.192 10.043-5.501 18.922-9.871 27.151l0.275-0.568c-9.059 16.768-20.903 30.868-35.064 42.193l-0.271 0.209c-2.67-2.64-5.174-5.431-7.504-8.366l-0.147-0.192c-2.355-2.67-4.65-5.586-6.778-8.628l-0.211-0.319c-1.076-1.686-2.101-3.242-3.086-4.927s-2.062-3.242-3.034-4.927c-1.713-2.905-3.475-6.398-5.025-10.005l-0.24-0.628c-6.662-14.386-11.482-31.077-13.601-48.6l-0.079-0.804c-0.609-4.668-1.037-9.336-1.297-14.134s-0.48-9.336-0.441-14.134c0.048-9.97 0.852-19.712 2.359-29.222l-0.141 1.083c2.76-19.657 9.038-37.378 18.205-53.219l-0.375 0.703zM932.557 330.325c1.532-8.732 3.619-16.401 6.322-23.773l-0.305 0.951c1.362-3.631 2.736-7.261 4.292-10.763s3.255-6.872 5.122-10.244c7.507-13.622 17.227-25.085 28.805-34.317l0.228-0.175c11.187 12.292 19.732 27.198 24.604 43.681l0.202 0.796c2.243 7.441 3.648 16.021 3.887 24.893l0.003 0.134c0.023 0.841 0.036 1.831 0.036 2.824 0 3.434-0.154 6.831-0.456 10.186l0.031-0.433c-0.182 2.075-0.415 4.149-0.726 6.224s-0.817 4.279-1.297 6.354c-2.1 8.615-5.022 16.174-8.777 23.223l0.258-0.53c-3.926 7.202-8.419 13.416-13.592 18.991l0.054-0.059c-10.111 10.747-22.363 19.353-36.091 25.154l-0.697 0.261c-1.431-2.474-2.942-5.498-4.284-8.612l-0.228-0.594c-1.297-3.112-2.412-6.354-3.618-9.596-0.96-2.594-1.932-5.89-2.711-9.26l-0.116-0.595c-0.389-1.686-0.726-3.501-1.011-5.187s-0.687-3.371-0.96-5.057c-0.511-3.004-0.913-6.662-1.117-10.372l-0.011-0.261c-0.091-1.815-0.143-3.631-0.143-5.446s-0.104-3.631-0.078-5.576c0.033-3.969 0.273-7.842 0.708-11.655l-0.047 0.503c0.363-3.89 1.050-7.78 1.66-11.67zM986.564 481.779c-0.004-0.319-0.007-0.696-0.007-1.074 0-2.909 0.144-5.785 0.424-8.621l-0.029 0.359c0.704-7.092 1.843-13.49 3.425-19.712l-0.196 0.909c0.83-3.242 1.841-6.354 3.008-9.596 0.596-1.556 1.193-3.112 1.802-4.668s1.297-3.112 1.958-4.798c3.096-6.827 6.438-12.657 10.253-18.132l-0.242 0.367c0.947-1.426 1.945-2.723 2.956-4.149s1.984-2.593 3.021-3.89c2.137-2.647 4.258-5.014 6.491-7.269l-0.007 0.007c8.797-9.113 19.413-16.406 31.272-21.301l0.614-0.224c1.582 3.242 3.034 6.613 4.331 10.114 0.635 1.686 1.297 3.371 1.815 5.187s0.947 3.501 1.297 5.316c0.83 3.631 1.491 7.132 1.997 10.763q0.363 2.723 0.622 5.446l0.207 2.723c0 0.908 0 1.815 0 2.723 0.001 0.154 0.001 0.337 0.001 0.52 0 7.481-0.77 14.781-2.235 21.827l0.12-0.692c-0.4 2.136-0.849 3.923-1.391 5.67l0.095-0.353c-0.519 1.686-1.089 3.501-1.712 5.187-1.482 4.066-2.92 7.36-4.526 10.555l0.26-0.57c-1.796 3.613-3.555 6.627-5.485 9.516l0.195-0.31c-2.145 3.067-4.248 5.73-6.49 8.267l0.084-0.097c-4.382 4.911-9.261 9.225-14.601 12.919l-0.272 0.178c-10.053 6.965-22.020 11.939-34.947 14.065l-0.505 0.069c-1.627-5.275-2.785-11.417-3.239-17.754l-0.016-0.27c-0.13-3.112-0.389-6.094-0.402-9.207zM1087.473 512.122c0.392 2.447 0.623 5.276 0.635 8.156v0.013c0.001 0.14 0.001 0.306 0.001 0.473 0 5.562-0.51 11.005-1.486 16.284l0.084-0.548c-0.55 3.151-1.189 5.815-1.972 8.417l0.131-0.507c-1.018 3.1-2.001 5.589-3.105 8.012l0.2-0.491c-2.407 5.354-5.11 9.954-8.242 14.219l0.15-0.215c-3.192 4.261-6.767 7.968-10.75 11.19l-0.117 0.091c-3.651 2.884-7.775 5.477-12.165 7.605l-0.4 0.175c-8.013 3.847-17.42 6.095-27.352 6.095-0.112 0-0.224 0-0.336-0.001h0.017c-0.229-2.158-0.36-4.662-0.36-7.197s0.131-5.039 0.386-7.506l-0.026 0.309c0.13-1.167 0.285-2.464 0.467-3.631s0.285-2.334 0.48-3.501c0.418-2.808 0.934-5.219 1.582-7.575l-0.104 0.443c1.441-5.336 3.211-9.947 5.387-14.32l-0.2 0.445c2.238-5.057 4.765-9.403 7.702-13.431l-0.142 0.204c3.112-4.398 6.431-8.256 10.078-11.777l0.024-0.023c3.436-3.267 7.175-6.293 11.143-9.008l0.307-0.198c7.559-5.005 16.516-8.567 26.156-10.066l0.375-0.048c0.609 2.593 1.037 5.316 1.4 7.91zM1093.14 609.503c0.117 2.334 0.117 4.668 0 7.002-0.061 2.473-0.309 4.843-0.73 7.152l0.042-0.28c-0.866 5.123-2.11 9.657-3.748 13.996l0.169-0.511c-3.326 9.035-8.459 16.717-15.003 22.927l-0.026 0.025c-3.083 3.071-6.571 5.738-10.378 7.912l-0.242 0.127c-3.35 1.96-7.221 3.638-11.3 4.834l-0.371 0.093c-4.564 1.374-9.809 2.165-15.238 2.165-3.164 0-6.265-0.268-9.282-0.784l0.324 0.046c0.318-4.523 1.060-8.725 2.194-12.763l-0.107 0.444c1.053-4.57 2.416-8.55 4.133-12.336l-0.165 0.406c0.869-1.945 1.841-3.76 2.918-5.705s2.256-3.631 3.397-5.446c2.559-3.839 5.304-7.189 8.342-10.248l-0.004 0.004c3.077-3.020 6.424-5.79 9.992-8.263l0.252-0.165c3.151-2.139 6.767-4.173 10.553-5.902l0.469-0.192c6.546-2.883 14.179-4.561 22.203-4.561 0.555 0 1.108 0.008 1.659 0.024l-0.081-0.002zM1093.14 720.241c-0.176-1.883-0.277-4.071-0.277-6.283 0-6.338 0.825-12.483 2.373-18.334l-0.112 0.499c15.167 2.624 27.557 12.526 33.599 25.909l0.115 0.284c3.647 8.052 5.773 17.46 5.773 27.364 0 8.474-1.556 16.585-4.398 24.062l0.155-0.465c-14.449-4.632-25.793-15.306-31.236-28.971l-0.118-0.335c-3.252-6.944-5.372-15.027-5.891-23.543l-0.009-0.187zM1075.245 795.579c-0.27-2.42-0.423-5.227-0.423-8.069 0-0.81 0.013-1.618 0.037-2.422l-0.003 0.118c0.232-7.338 1.754-14.257 4.345-20.628l-0.144 0.399c12.379 3.727 21.955 13.218 25.731 25.274l0.073 0.271c1.103 3.069 1.963 6.664 2.425 10.382l0.025 0.251c0.167 1.695 0.262 3.663 0.262 5.654 0 9.739-2.275 18.947-6.322 27.121l0.16-0.357c-5.758-2.402-10.605-5.976-14.427-10.451l-0.044-0.052c-4.124-4.853-7.367-10.6-9.394-16.893l-0.098-0.353c-0.985-2.947-1.759-6.416-2.18-9.993l-0.024-0.251zM1055.185 831.887c0.285-1.426 0.622-2.723 1.037-4.149 0.918-3.026 1.961-5.604 3.204-8.065l-0.13 0.285c9.566 4.107 16.626 12.453 18.879 22.608l0.040 0.214c0.644 2.836 1.013 6.093 1.013 9.436 0 2.807-0.26 5.553-0.758 8.215l0.043-0.275c-0.552 3.301-1.345 6.222-2.391 9.020l0.109-0.333c-1.22 3.058-2.551 5.66-4.090 8.12l0.123-0.21c-4.445-2.242-8.131-5.401-10.923-9.249l-0.060-0.087c-2.908-4.137-5.113-9-6.314-14.247l-0.053-0.276c-0.697-2.974-1.097-6.388-1.097-9.896 0-2.457 0.196-4.869 0.574-7.22l-0.034 0.258c0.22-1.426 0.493-2.853 0.83-4.149zM1053.189 884.532c0.212 1.507 0.334 3.248 0.334 5.017 0 3.473-0.467 6.836-1.342 10.032l0.062-0.266c-1.314 5.242-3.51 9.837-6.445 13.857l0.078-0.112c-7.266-4.798-12.241-12.561-13.202-21.525l-0.011-0.13c-0.191-1.522-0.3-3.283-0.3-5.069 0-8.347 2.381-16.138 6.5-22.731l-0.105 0.181c7.746 4.156 13.207 11.705 14.416 20.605l0.016 0.143zM1027.255 916.431c0.039 0.562 0.061 1.218 0.061 1.88 0 7.054-2.537 13.516-6.749 18.522l0.036-0.044c-5.159-3.761-8.537-9.696-8.778-16.431l-0.001-0.037c-0.025-0.47-0.040-1.020-0.040-1.573 0-6.916 2.248-13.307 6.052-18.483l-0.061 0.087c5.453 3.445 9.115 9.297 9.489 16.026l0.002 0.053zM1003.759 934.844c1.25 2.373 1.987 5.184 1.997 8.166v0.003c-0.044 6.591-2.541 12.591-6.622 17.141l0.021-0.024c-4.14-3.445-6.756-8.599-6.756-14.364 0-0.056 0-0.112 0.001-0.168v0.009c0-0.007 0-0.014 0-0.022 0-6.401 2.352-12.252 6.238-16.737l-0.027 0.032c2.152 1.562 3.893 3.559 5.116 5.872l0.045 0.093zM1026.321 743.193c3.174-15.184 11.483-28.043 22.991-36.979l0.142-0.106c8.682-7.147 19.914-11.48 32.157-11.48 3.005 0 5.949 0.261 8.811 0.762l-0.304-0.044c-1.045 8.491-3.512 16.203-7.167 23.195l0.177-0.373c-4.025 7.099-9.233 13.052-15.421 17.792l-0.139 0.103c-7.625 5.72-17.247 9.159-27.672 9.159-4.839 0-9.505-0.741-13.891-2.116l0.329 0.089zM1059.179 789.744c-2.417 2.264-5.115 4.281-8.022 5.98l-0.212 0.115c-5.714 3.448-12.613 5.488-19.99 5.488-5.678 0-11.074-1.209-15.944-3.383l0.249 0.099c2.178-6.346 5.169-11.848 8.919-16.736l-0.102 0.138c1.988-2.62 4.173-4.917 6.588-6.949l0.064-0.053c2.332-2.131 4.895-4.096 7.62-5.831l0.225-0.134c6.587-4.225 14.625-6.736 23.249-6.736 4.425 0 8.695 0.661 12.718 1.889l-0.308-0.081c-1.773 7.052-4.635 13.242-8.436 18.732l0.124-0.189c-1.947 2.912-4.169 5.426-6.684 7.611l-0.046 0.039zM1049.182 829.163c-0.871 1.213-1.721 2.27-2.625 3.278l0.032-0.036c-3.596 4.121-7.949 7.479-12.856 9.878l-0.24 0.106c-4.144 1.975-9.005 3.128-14.136 3.128-0.36 0-0.718-0.006-1.075-0.017l0.052 0.001c-5.124-0.264-9.875-1.624-14.099-3.849l0.185 0.089c1.133-2.64 2.382-4.898 3.825-7.014l-0.091 0.141c1.484-2.341 3.035-4.374 4.742-6.264l-0.035 0.040c3.584-3.82 7.844-6.956 12.596-9.227l0.254-0.109c4.621-2.441 10.1-3.874 15.913-3.874 4.726 0 9.231 0.947 13.336 2.662l-0.229-0.085c-0.998 2.959-2.134 5.487-3.478 7.882l0.119-0.231c-0.687 1.167-1.4 2.334-2.178 3.501zM1014.508 880.642c-2.934 1.174-6.335 1.855-9.895 1.855-5.475 0-10.574-1.61-14.848-4.383l0.106 0.065c2.25-4.079 4.941-7.58 8.080-10.622l0.012-0.011c3.294-2.977 7.166-5.391 11.417-7.045l0.253-0.087c3.333-1.424 7.211-2.251 11.282-2.251 4.936 0 9.587 1.216 13.671 3.366l-0.161-0.077c-3.766 8.882-10.855 15.738-19.666 19.111l-0.238 0.080zM979.757 907.873c1.782-2.943 3.984-5.434 6.556-7.477l0.057-0.044c1.225-0.932 2.622-1.874 4.071-2.738l0.208-0.115c1.322-0.715 2.871-1.375 4.485-1.891l0.197-0.054c2.068-0.72 4.451-1.136 6.932-1.136 4.205 0 8.131 1.195 11.457 3.264l-0.092-0.053c-3.245 6.312-8.792 11.057-15.504 13.176l-0.186 0.051c-1.827 0.59-3.928 0.929-6.109 0.929-4.531 0-8.719-1.467-12.116-3.952l0.058 0.040zM979.108 923.174c1.434-0.395 3.080-0.622 4.78-0.622 1.296 0 2.561 0.132 3.782 0.383l-0.121-0.021c2.712 0.526 5.106 1.615 7.151 3.145l-0.046-0.033c-3.172 5.067-8.138 8.76-13.989 10.211l-0.158 0.033c-1.328 0.365-2.853 0.575-4.427 0.575-4.121 0-7.907-1.439-10.881-3.843l0.033 0.026c3.122-4.918 8.002-8.482 13.737-9.825l0.15-0.030z" />
<glyph unicode="&#xe935;" glyph-name="ico-montage-projet" horiz-adv-x="1333" d="M686.974 690.509c-1.795 48.407-41.47 86.968-90.151 86.968-0.449 0-0.897-0.003-1.345-0.010l0.068 0.001h-108.544l19.765 70.867c1.562 6.237 2.458 13.397 2.458 20.767 0 35.924-21.294 66.875-51.949 80.918l-0.555 0.228-6.502 2.763c-9.756 4.389-21.145 6.959-33.131 6.989h-0.011c-0.344 0.005-0.75 0.008-1.157 0.008-31.461 0-58.739-17.909-72.196-44.088l-0.213-0.456c-108.788-197.811-108.788-219.103-108.788-226.255v-209.514c0.997-48.961 40.923-88.27 90.029-88.27 0.498 0 0.994 0.004 1.49 0.012l-0.075-0.001h201.143c3.090 0.016 6.063 0.49 8.863 1.358l-0.215-0.058c56.889 16.579 133.201 183.832 150.138 250.149 1.292 8.159 2.029 17.567 2.029 27.148 0 7.214-0.418 14.331-1.232 21.327l0.081-0.851zM424.164 731.144c5.608-6.961 14.132-11.378 23.687-11.378 0.027 0 0.053 0 0.080 0h147.615c0.151 0.003 0.33 0.004 0.508 0.004 16.986 0 30.79-13.619 31.089-30.534v-0.028c0-0.65 0-1.3 0-2.276 0.626-6.050 0.983-13.072 0.983-20.178 0-3.594-0.091-7.166-0.272-10.715l0.020 0.498c-21.992-85.658-87.43-191.634-107.65-207.238h-194.056c-0.162-0.003-0.352-0.005-0.543-0.005-16.922 0-30.684 13.532-31.054 30.365l-0.001 0.034v207.563c35.97 81.64 70.277 148.167 107.947 212.486l-5.303-9.799c3.821 7.247 11.304 12.104 19.922 12.104 3.092 0 6.038-0.625 8.719-1.756l-0.148 0.055 6.502-2.763c10.391-5.17 17.406-15.715 17.406-27.899 0-2.207-0.23-4.36-0.668-6.437l0.036 0.203-29.956-107.276c-0.625-2.216-0.984-4.761-0.984-7.39 0-6.699 2.332-12.853 6.228-17.695l-0.043 0.055zM163.401 773.079h-133.51c-0.132 0.002-0.288 0.003-0.444 0.003-16.088 0-29.164-12.891-29.463-28.907v-319.256c0.299-16.044 13.376-28.935 29.464-28.935 0.156 0 0.312 0.001 0.467 0.004h133.487c0.132-0.002 0.288-0.003 0.444-0.003 16.091 0 29.171 12.889 29.479 28.907v319.257c-0.308 16.046-13.389 28.935-29.48 28.935-0.156 0-0.312-0.001-0.467-0.004h0.023zM133.494 453.689h-73.679v261.526h73.663v-261.526zM647.038 205.491c1.752-48.397 41.408-86.967 90.073-86.967 0.42 0 0.838 0.003 1.257 0.009l-0.063-0.001h108.365l-19.732-70.867c-1.562-6.239-2.458-13.401-2.458-20.772 0-35.901 21.256-66.838 51.869-80.912l0.554-0.228 6.502-2.763c9.74-4.391 21.113-6.961 33.083-6.989h0.010c0.332-0.005 0.724-0.008 1.117-0.008 31.436 0 58.687 17.912 72.106 44.087l0.212 0.456c108.593 197.811 108.593 219.266 108.593 226.255v209.514c-0.953 48.951-40.86 88.269-89.95 88.269-0.469 0-0.936-0.004-1.403-0.011l0.071 0.001h-200.818c-3.084-0.017-6.052-0.491-8.846-1.358l0.215 0.057c-56.889-16.579-132.957-183.832-149.878-250.149-1.288-8.163-2.023-17.576-2.023-27.161 0-7.21 0.416-14.322 1.226-21.315l-0.080 0.852zM909.393 164.856c-5.59 6.96-14.099 11.378-23.641 11.378-0.032 0-0.063 0-0.095 0h-147.353c-0.141-0.002-0.308-0.004-0.475-0.004-16.979 0-30.776 13.623-31.057 30.535v0.026c0 0.65 0 1.3-0.098 2.276-0.617 6.027-0.969 13.025-0.969 20.104 0 3.62 0.092 7.218 0.274 10.792l-0.020-0.501c21.959 85.658 87.268 191.634 107.455 207.238h193.812c0.152 0.003 0.331 0.004 0.51 0.004 16.915 0 30.669-13.535 31.022-30.366l0.001-0.033v-207.563c-35.888-81.662-70.118-148.194-107.709-212.521l5.309 9.834c-3.813-7.245-11.29-12.101-19.901-12.101-3.088 0-6.030 0.624-8.707 1.754l0.147-0.055-6.502 2.763c-10.382 5.182-17.387 15.728-17.387 27.91 0 2.203 0.229 4.353 0.665 6.426l-0.036-0.203 29.907 107.276c0.633 2.23 0.996 4.79 0.996 7.436 0 6.678-2.317 12.815-6.192 17.651l0.043-0.056zM1169.701 122.921h133.283c0.122-0.002 0.266-0.003 0.411-0.003 16.084 0 29.157 12.893 29.447 28.908v319.255c-0.291 16.042-13.364 28.935-29.448 28.935-0.144 0-0.289-0.001-0.433-0.003h-133.261c-0.122 0.002-0.266 0.003-0.411 0.003-16.084 0-29.157-12.893-29.447-28.908v-319.255c0.291-16.042 13.364-28.935 29.448-28.935 0.144 0 0.289 0.001 0.433 0.003h-0.022zM1199.575 442.311h73.549v-261.526h-73.582v261.526z" />
</font>
</defs>
</svg>
